g Hill_1_winter
v 3.145044 0.06026351 3.931304
v 3.931304 0.06026351 3.145044
v 3.931304 0.0602635 3.931304
v 3.145044 0.04132954 3.145044
v 2.358783 0.06026376 3.931304
v 3.931304 0.06026376 2.358783
v 2.358783 0.1205282 3.145044
v 1.572522 0.06026419 3.931304
v 3.145044 0.1205282 2.358783
v 3.931304 0.06026419 1.572522
v 1.572522 0.2086001 3.145044
v 0.7862611 0.06026456 3.931304
v 2.358783 0.2521834 2.358783
v 3.145044 0.2086001 1.572522
v 3.931304 0.06026456 0.786261
v 0.7862611 0.2758965 3.145044
v 0 0.06026471 3.931304
v 1.572522 0.3843704 2.358783
v 2.358783 0.3843704 1.572522
v 3.145044 0.2758965 0.786261
v 3.931304 0.06026471 6.891955E-08
v 0 0.3009365 3.145044
v -0.7862608 0.06026456 3.931304
v 0.7862611 0.4810398 2.358783
v 1.572522 0.5533462 1.572522
v 2.358783 0.4810398 0.786261
v 3.145044 0.3009365 6.891955E-08
v 3.931304 0.06026456 -0.7862621
v -0.7862608 0.2758965 3.145044
v -1.572522 0.06026419 3.931304
v 0 0.5163808 2.358783
v 0.7862611 0.6743902 1.572522
v 1.572522 0.6743902 0.786261
v 2.358783 0.5163808 6.891955E-08
v 3.145044 0.2758965 -0.7862621
v 3.931304 0.06026419 -1.572522
v -1.572522 0.2086001 3.145044
v -2.358783 0.06026376 3.931304
v -0.7862608 0.4810398 2.358783
v 0 0.7182597 1.572522
v 0.7862611 0.8115369 0.786261
v 1.572522 0.7182597 6.891955E-08
v 2.358783 0.4810398 -0.7862621
v 3.145044 0.2086001 -1.572522
v 3.931304 0.06026376 -2.358784
v 3.145044 0.1205282 -2.358784
v 3.931304 0.06026351 -3.145044
v 2.358783 0.3843704 -1.572522
v 1.572522 0.6743902 -0.7862621
v 0.7862611 0.8610326 6.891955E-08
v 0 0.8610326 0.786261
v 3.145044 0.04132954 -3.145044
v 3.931304 0.0602635 -3.931304
v 3.145044 0.06026351 -3.931304
v 2.358783 0.2521834 -2.358784
v 2.358783 0.1205282 -3.145044
v 2.358783 0.06026376 -3.931304
v 1.572522 0.5533462 -1.572522
v 0.7862611 0.8115369 -0.7862621
v 1.572522 0.3843704 -2.358784
v 1.572522 0.2086001 -3.145044
v 1.572522 0.06026419 -3.931304
v 0.7862611 0.6743902 -1.572522
v 0 0.9124936 6.891955E-08
v 0.7862611 0.4810398 -2.358784
v 0.7862611 0.2758965 -3.145044
v 0.7862611 0.06026456 -3.931304
v 0 0.8610326 -0.7862621
v 0 0.7182597 -1.572522
v 0 0.5163808 -2.358784
v 0 0.3009365 -3.145044
v 0 0.06026471 -3.931304
v -0.7862608 0.2758965 -3.145044
v -0.7862608 0.06026456 -3.931304
v -0.7862608 0.4810398 -2.358784
v -0.7862608 0.6743902 -1.572522
v -0.7862608 0.8115369 -0.7862621
v -0.7862608 0.8610326 6.891955E-08
v -1.572522 0.2086001 -3.145044
v -1.572522 0.06026419 -3.931304
v -1.572522 0.3843704 -2.358784
v -1.572522 0.5533462 -1.572522
v -1.572522 0.6743902 -0.7862621
v -2.358783 0.1205282 -3.145044
v -2.358783 0.06026376 -3.931304
v -2.358783 0.2521834 -2.358784
v -2.358783 0.3843704 -1.572522
v -3.145044 0.04132954 -3.145044
v -3.145044 0.06026351 -3.931304
v -3.145044 0.1205282 -2.358784
v -3.931304 0.06026351 -3.145044
v -3.931304 0.0602635 -3.931304
v -3.931304 0.06026376 -2.358784
v -3.931304 0.06026419 -1.572522
v -3.145044 0.2086001 -1.572522
v -3.931304 0.06026456 -0.7862621
v -3.145044 0.2758965 -0.7862621
v -3.931304 0.06026471 6.891955E-08
v -2.358783 0.4810398 -0.7862621
v -3.145044 0.3009365 6.891955E-08
v -3.931304 0.06026456 0.786261
v -2.358783 0.5163808 6.891955E-08
v -3.145044 0.2758965 0.786261
v -3.931304 0.06026419 1.572522
v -1.572522 0.7182597 6.891955E-08
v -3.145044 0.2086001 1.572522
v -3.931304 0.06026376 2.358783
v -2.358783 0.4810398 0.786261
v -1.572522 0.6743902 0.786261
v -3.145044 0.1205282 2.358783
v -3.931304 0.06026351 3.145044
v -2.358783 0.3843704 1.572522
v -0.7862608 0.8115369 0.786261
v -3.145044 0.04132954 3.145044
v -3.931304 0.0602635 3.931304
v -3.145044 0.06026351 3.931304
v -2.358783 0.2521834 2.358783
v -1.572522 0.5533462 1.572522
v -0.7862608 0.6743902 1.572522
v -2.358783 0.1205282 3.145044
v -1.572522 0.3843704 2.358783
vt 0.6115712 0.6289129
vt 0.6136583 0.631
vt 0.6136583 0.6289129
vt 0.6115712 0.631
vt 0.6094841 0.6289129
vt 0.6136583 0.6330871
vt 0.6094841 0.631
vt 0.607397 0.6289129
vt 0.6115712 0.6330871
vt 0.6136583 0.6351743
vt 0.607397 0.631
vt 0.6053098 0.6289129
vt 0.6094841 0.6330871
vt 0.6115712 0.6351743
vt 0.6136583 0.6372614
vt 0.6053098 0.631
vt 0.6032227 0.6289129
vt 0.607397 0.6330871
vt 0.6094841 0.6351743
vt 0.6115712 0.6372614
vt 0.6136583 0.6393485
vt 0.6032227 0.631
vt 0.6011356 0.6289129
vt 0.6053098 0.6330871
vt 0.607397 0.6351743
vt 0.6094841 0.6372614
vt 0.6115712 0.6393485
vt 0.6136583 0.6414356
vt 0.6011356 0.631
vt 0.5990485 0.6289129
vt 0.6032227 0.6330871
vt 0.6053098 0.6351743
vt 0.607397 0.6372614
vt 0.6094841 0.6393485
vt 0.6115712 0.6414356
vt 0.6136583 0.6435227
vt 0.5990485 0.631
vt 0.5969613 0.6289129
vt 0.6011356 0.6330871
vt 0.6032227 0.6351743
vt 0.6053098 0.6372614
vt 0.607397 0.6393485
vt 0.6094841 0.6414356
vt 0.6115712 0.6435227
vt 0.6136583 0.6456099
vt 0.6115712 0.6456099
vt 0.6136583 0.647697
vt 0.6094841 0.6435227
vt 0.607397 0.6414356
vt 0.6053098 0.6393485
vt 0.6032227 0.6372614
vt 0.6115712 0.647697
vt 0.6136583 0.6497841
vt 0.6115712 0.6497841
vt 0.6094841 0.6456099
vt 0.6094841 0.647697
vt 0.6094841 0.6497841
vt 0.607397 0.6435227
vt 0.6053098 0.6414356
vt 0.607397 0.6456099
vt 0.607397 0.647697
vt 0.607397 0.6497841
vt 0.6053098 0.6435227
vt 0.6032227 0.6393485
vt 0.6053098 0.6456099
vt 0.6053098 0.647697
vt 0.6053098 0.6497841
vt 0.6032227 0.6414356
vt 0.6032227 0.6435227
vt 0.6032227 0.6456099
vt 0.6032227 0.647697
vt 0.6032227 0.6497841
vt 0.6011356 0.647697
vt 0.6011356 0.6497841
vt 0.6011356 0.6456099
vt 0.6011356 0.6435227
vt 0.6011356 0.6414356
vt 0.6011356 0.6393485
vt 0.5990485 0.647697
vt 0.5990485 0.6497841
vt 0.5990485 0.6456099
vt 0.5990485 0.6435227
vt 0.5990485 0.6414356
vt 0.5969613 0.647697
vt 0.5969613 0.6497841
vt 0.5969613 0.6456099
vt 0.5969613 0.6435227
vt 0.5948741 0.647697
vt 0.5948741 0.6497841
vt 0.5948741 0.6456099
vt 0.592787 0.647697
vt 0.592787 0.6497841
vt 0.592787 0.6456099
vt 0.592787 0.6435227
vt 0.5948741 0.6435227
vt 0.592787 0.6414356
vt 0.5948741 0.6414356
vt 0.592787 0.6393485
vt 0.5969613 0.6414356
vt 0.5948741 0.6393485
vt 0.592787 0.6372614
vt 0.5969613 0.6393485
vt 0.5948741 0.6372614
vt 0.592787 0.6351743
vt 0.5990485 0.6393485
vt 0.5948741 0.6351743
vt 0.592787 0.6330871
vt 0.5969613 0.6372614
vt 0.5990485 0.6372614
vt 0.5948741 0.6330871
vt 0.592787 0.631
vt 0.5969613 0.6351743
vt 0.6011356 0.6372614
vt 0.5948741 0.631
vt 0.592787 0.6289129
vt 0.5948741 0.6289129
vt 0.5969613 0.6330871
vt 0.5990485 0.6351743
vt 0.6011356 0.6351743
vt 0.5969613 0.631
vt 0.5990485 0.6330871
vn 0.01915787 0.9997911 0.007119745
vn 0.007119798 0.9997911 0.01915789
vn -0.01203877 0.999855 -0.01203878
vn 0.04943123 0.9975535 0.04943128
vn 0.05294426 0.9954592 0.07910743
vn 0.0791074 0.9954592 0.05294416
vn 0.09398534 0.988237 0.1206422
vn 0.04854511 0.982669 0.1788992
vn 0.1206423 0.988237 0.09398533
vn 0.1788992 0.982669 0.04854508
vn 0.08395354 0.9770027 0.1960037
vn 0.02839768 0.96724 0.2522702
vn 0.1609922 0.9737366 0.1609922
vn 0.1960037 0.9770027 0.08395338
vn 0.2522702 0.96724 0.02839769
vn 0.04886819 0.9671584 0.2494324
vn 0 0.9603845 0.2786783
vn 0.1391397 0.9681594 0.2081045
vn 0.2081045 0.9681594 0.1391397
vn 0.2494324 0.9671584 0.04886816
vn 0.278678 0.9603846 0
vn 0 0.9632752 0.2685159
vn -0.02839783 0.96724 0.2522701
vn 0.08030238 0.9675002 0.2397807
vn 0.1754957 0.9687118 0.1754958
vn 0.2397806 0.9675002 0.08030242
vn 0.2685155 0.9632753 0
vn 0.2522701 0.96724 -0.02839768
vn -0.04886819 0.9671584 0.2494324
vn -0.04854511 0.982669 0.1788992
vn 0 0.9679782 0.251034
vn 0.1004727 0.974515 0.2005635
vn 0.2005635 0.974515 0.1004728
vn 0.2510339 0.9679784 0
vn 0.2494322 0.9671584 -0.04886816
vn 0.1788992 0.982669 -0.04854508
vn -0.08395345 0.9770027 0.1960037
vn -0.05294415 0.9954592 0.07910744
vn -0.08030222 0.9675002 0.2397808
vn 0 0.977781 0.2096289
vn 0.114718 0.986752 0.1147179
vn 0.209629 0.977781 0
vn 0.2397806 0.9675003 -0.08030243
vn 0.1960035 0.9770027 -0.08395338
vn 0.0791074 0.9954592 -0.05294417
vn 0.1206421 0.988237 -0.09398531
vn 0.007119725 0.9997911 -0.01915791
vn 0.2081042 0.9681594 -0.1391397
vn 0.2005636 0.974515 -0.1004728
vn 0.1199529 0.9927796 0
vn 0 0.9927796 0.119953
vn 0.04943126 0.9975535 -0.04943131
vn -0.01203877 0.999855 0.01203878
vn 0.01915795 0.9997911 -0.007119745
vn 0.160992 0.9737366 -0.1609922
vn 0.09398536 0.9882368 -0.1206423
vn 0.0529445 0.9954592 -0.07910743
vn 0.1754958 0.9687118 -0.1754958
vn 0.1147178 0.986752 -0.1147179
vn 0.1391398 0.9681594 -0.2081045
vn 0.08395351 0.9770027 -0.1960038
vn 0.04854527 0.982669 -0.1788992
vn 0.1004727 0.974515 -0.2005635
vn 0 1 0
vn 0.08030254 0.9675002 -0.2397807
vn 0.04886822 0.9671583 -0.2494326
vn 0.02839768 0.96724 -0.2522702
vn 0 0.9927796 -0.119953
vn 0 0.977781 -0.2096289
vn 0 0.9679782 -0.2510339
vn 0 0.9632752 -0.2685161
vn 0 0.9603845 -0.2786783
vn -0.04886807 0.9671583 -0.2494326
vn -0.02839768 0.96724 -0.2522701
vn -0.08030254 0.9675002 -0.2397808
vn -0.100473 0.974515 -0.2005635
vn -0.1147179 0.986752 -0.1147179
vn -0.119953 0.9927796 0
vn -0.08395321 0.9770027 -0.1960039
vn -0.04854511 0.982669 -0.1788992
vn -0.1391397 0.9681594 -0.2081045
vn -0.175496 0.9687118 -0.1754958
vn -0.2005637 0.974515 -0.1004728
vn -0.09398526 0.988237 -0.1206423
vn -0.05294435 0.9954592 -0.07910744
vn -0.160992 0.9737366 -0.1609922
vn -0.2081044 0.9681594 -0.1391397
vn -0.04943125 0.9975535 -0.0494313
vn -0.01915795 0.9997911 -0.007119737
vn -0.1206421 0.988237 -0.09398529
vn -0.007119684 0.9997911 -0.01915791
vn 0.01203876 0.999855 0.01203878
vn -0.07910728 0.9954592 -0.05294415
vn -0.1788991 0.9826691 -0.04854507
vn -0.1960036 0.9770027 -0.08395336
vn -0.2522696 0.9672402 -0.02839769
vn -0.2494321 0.9671584 -0.04886816
vn -0.2786776 0.9603847 0
vn -0.2397808 0.9675002 -0.08030243
vn -0.2685156 0.9632753 0
vn -0.2522703 0.96724 0.02839769
vn -0.2510342 0.9679782 0
vn -0.2494325 0.9671583 0.04886815
vn -0.1788992 0.9826691 0.04854508
vn -0.209629 0.977781 0
vn -0.1960037 0.9770027 0.08395336
vn -0.07910729 0.9954592 0.05294416
vn -0.2397809 0.9675002 0.08030242
vn -0.2005636 0.974515 0.1004728
vn -0.1206422 0.988237 0.0939853
vn -0.007119842 0.9997911 0.0191579
vn -0.2081046 0.9681594 0.1391397
vn -0.114718 0.986752 0.1147179
vn -0.04943123 0.9975535 0.04943126
vn 0.01203875 0.999855 -0.01203878
vn -0.01915792 0.9997911 0.007119737
vn -0.1609923 0.9737366 0.1609922
vn -0.1754958 0.9687118 0.1754958
vn -0.1004727 0.974515 0.2005635
vn -0.09398527 0.988237 0.1206422
vn -0.1391396 0.9681594 0.2081045
g Hill_1_winter_0
f 3/3/3 2/2/2 1/1/1
f 2/2/2 4/4/4 1/1/1
f 1/1/1 4/4/4 5/5/5
f 2/2/2 6/6/6 4/4/4
f 4/4/4 7/7/7 5/5/5
f 5/5/5 7/7/7 8/8/8
f 6/6/6 9/9/9 4/4/4
f 4/4/4 9/9/9 7/7/7
f 6/6/6 10/10/10 9/9/9
f 7/7/7 11/11/11 8/8/8
f 8/8/8 11/11/11 12/12/12
f 9/9/9 13/13/13 7/7/7
f 7/7/7 13/13/13 11/11/11
f 10/10/10 14/14/14 9/9/9
f 9/9/9 14/14/14 13/13/13
f 10/10/10 15/15/15 14/14/14
f 11/11/11 16/16/16 12/12/12
f 12/12/12 16/16/16 17/17/17
f 13/13/13 18/18/18 11/11/11
f 11/11/11 18/18/18 16/16/16
f 14/14/14 19/19/19 13/13/13
f 13/13/13 19/19/19 18/18/18
f 15/15/15 20/20/20 14/14/14
f 14/14/14 20/20/20 19/19/19
f 15/15/15 21/21/21 20/20/20
f 16/16/16 22/22/22 17/17/17
f 17/17/17 22/22/22 23/23/23
f 18/18/18 24/24/24 16/16/16
f 16/16/16 24/24/24 22/22/22
f 19/19/19 25/25/25 18/18/18
f 18/18/18 25/25/25 24/24/24
f 20/20/20 26/26/26 19/19/19
f 19/19/19 26/26/26 25/25/25
f 21/21/21 27/27/27 20/20/20
f 20/20/20 27/27/27 26/26/26
f 21/21/21 28/28/28 27/27/27
f 22/22/22 29/29/29 23/23/23
f 23/23/23 29/29/29 30/30/30
f 24/24/24 31/31/31 22/22/22
f 22/22/22 31/31/31 29/29/29
f 25/25/25 32/32/32 24/24/24
f 24/24/24 32/32/32 31/31/31
f 26/26/26 33/33/33 25/25/25
f 25/25/25 33/33/33 32/32/32
f 27/27/27 34/34/34 26/26/26
f 26/26/26 34/34/34 33/33/33
f 28/28/28 35/35/35 27/27/27
f 27/27/27 35/35/35 34/34/34
f 28/28/28 36/36/36 35/35/35
f 29/29/29 37/37/37 30/30/30
f 30/30/30 37/37/37 38/38/38
f 31/31/31 39/39/39 29/29/29
f 29/29/29 39/39/39 37/37/37
f 32/32/32 40/40/40 31/31/31
f 31/31/31 40/40/40 39/39/39
f 33/33/33 41/41/41 32/32/32
f 32/32/32 41/41/41 40/40/40
f 34/34/34 42/42/42 33/33/33
f 33/33/33 42/42/42 41/41/41
f 35/35/35 43/43/43 34/34/34
f 34/34/34 43/43/43 42/42/42
f 36/36/36 44/44/44 35/35/35
f 35/35/35 44/44/44 43/43/43
f 36/36/36 45/45/45 44/44/44
f 45/45/45 46/46/46 44/44/44
f 45/45/45 47/47/47 46/46/46
f 44/44/44 48/48/48 43/43/43
f 44/44/44 46/46/46 48/48/48
f 43/43/43 49/49/49 42/42/42
f 43/43/43 48/48/48 49/49/49
f 42/42/42 50/50/50 41/41/41
f 42/42/42 49/49/49 50/50/50
f 41/41/41 51/51/51 40/40/40
f 41/41/41 50/50/50 51/51/51
f 47/47/47 52/52/52 46/46/46
f 47/47/47 53/53/53 52/52/52
f 53/53/53 54/54/54 52/52/52
f 46/46/46 55/55/55 48/48/48
f 46/46/46 52/52/52 55/55/55
f 52/52/52 54/54/54 56/56/56
f 52/52/52 56/56/56 55/55/55
f 54/54/54 57/57/57 56/56/56
f 48/48/48 58/58/58 49/49/49
f 48/48/48 55/55/55 58/58/58
f 49/49/49 59/59/59 50/50/50
f 49/49/49 58/58/58 59/59/59
f 55/55/55 56/56/56 60/60/60
f 55/55/55 60/60/60 58/58/58
f 56/56/56 57/57/57 61/61/61
f 56/56/56 61/61/61 60/60/60
f 57/57/57 62/62/62 61/61/61
f 58/58/58 60/60/60 63/63/63
f 58/58/58 63/63/63 59/59/59
f 50/50/50 59/59/59 64/64/64
f 50/50/50 64/64/64 51/51/51
f 60/60/60 61/61/61 65/65/65
f 60/60/60 65/65/65 63/63/63
f 61/61/61 62/62/62 66/66/66
f 61/61/61 66/66/66 65/65/65
f 62/62/62 67/67/67 66/66/66
f 59/59/59 63/63/63 68/68/68
f 59/59/59 68/68/68 64/64/64
f 63/63/63 65/65/65 69/69/69
f 63/63/63 69/69/69 68/68/68
f 65/65/65 66/66/66 70/70/70
f 65/65/65 70/70/70 69/69/69
f 66/66/66 67/67/67 71/71/71
f 66/66/66 71/71/71 70/70/70
f 67/67/67 72/72/72 71/71/71
f 71/71/71 72/72/72 73/73/73
f 72/72/72 74/74/74 73/73/73
f 70/70/70 71/71/71 75/75/75
f 71/71/71 73/73/73 75/75/75
f 69/69/69 70/70/70 76/76/76
f 70/70/70 75/75/75 76/76/76
f 68/68/68 69/69/69 77/77/77
f 69/69/69 76/76/76 77/77/77
f 64/64/64 68/68/68 78/78/78
f 68/68/68 77/77/77 78/78/78
f 73/73/73 74/74/74 79/79/79
f 74/74/74 80/80/80 79/79/79
f 75/75/75 73/73/73 81/81/81
f 73/73/73 79/79/79 81/81/81
f 76/76/76 75/75/75 82/82/82
f 75/75/75 81/81/81 82/82/82
f 77/77/77 76/76/76 83/83/83
f 76/76/76 82/82/82 83/83/83
f 79/79/79 80/80/80 84/84/84
f 80/80/80 85/85/85 84/84/84
f 81/81/81 79/79/79 86/86/86
f 79/79/79 84/84/84 86/86/86
f 82/82/82 81/81/81 87/87/87
f 81/81/81 86/86/86 87/87/87
f 84/84/84 85/85/85 88/88/88
f 85/85/85 89/89/89 88/88/88
f 86/86/86 84/84/84 90/90/90
f 84/84/84 88/88/88 90/90/90
f 88/88/88 89/89/89 91/91/91
f 89/89/89 92/92/92 91/91/91
f 88/88/88 91/91/91 93/93/93
f 90/90/90 88/88/88 93/93/93
f 90/90/90 93/93/93 94/94/94
f 86/86/86 90/90/90 95/95/95
f 95/95/95 90/90/90 94/94/94
f 87/87/87 86/86/86 95/95/95
f 95/95/95 94/94/94 96/96/96
f 97/97/97 95/95/95 96/96/96
f 87/87/87 95/95/95 97/97/97
f 97/97/97 96/96/96 98/98/98
f 99/99/99 87/87/87 97/97/97
f 82/82/82 87/87/87 99/99/99
f 83/83/83 82/82/82 99/99/99
f 100/100/100 97/97/97 98/98/98
f 99/99/99 97/97/97 100/100/100
f 100/100/100 98/98/98 101/101/101
f 83/83/83 99/99/99 102/102/102
f 102/102/102 99/99/99 100/100/100
f 103/103/103 100/100/100 101/101/101
f 102/102/102 100/100/100 103/103/103
f 103/103/103 101/101/101 104/104/104
f 105/105/105 83/83/83 102/102/102
f 77/77/77 83/83/83 105/105/105
f 78/78/78 77/77/77 105/105/105
f 106/106/106 103/103/103 104/104/104
f 106/106/106 104/104/104 107/107/107
f 108/108/108 102/102/102 103/103/103
f 105/105/105 102/102/102 108/108/108
f 108/108/108 103/103/103 106/106/106
f 78/78/78 105/105/105 109/109/109
f 109/109/109 105/105/105 108/108/108
f 110/110/110 106/106/106 107/107/107
f 110/110/110 107/107/107 111/111/111
f 112/112/112 108/108/108 106/106/106
f 109/109/109 108/108/108 112/112/112
f 112/112/112 106/106/106 110/110/110
f 113/113/113 78/78/78 109/109/109
f 64/64/64 78/78/78 113/113/113
f 51/51/51 64/64/64 113/113/113
f 114/114/114 110/110/110 111/111/111
f 114/114/114 111/111/111 115/115/115
f 116/116/116 114/114/114 115/115/115
f 117/117/117 112/112/112 110/110/110
f 117/117/117 110/110/110 114/114/114
f 118/118/118 109/109/109 112/112/112
f 113/113/113 109/109/109 118/118/118
f 118/118/118 112/112/112 117/117/117
f 51/51/51 113/113/113 119/119/119
f 119/119/119 113/113/113 118/118/118
f 40/40/40 51/51/51 119/119/119
f 40/40/40 119/119/119 39/39/39
f 120/120/120 114/114/114 116/116/116
f 120/120/120 117/117/117 114/114/114
f 38/38/38 120/120/120 116/116/116
f 37/37/37 120/120/120 38/38/38
f 121/121/121 118/118/118 117/117/117
f 119/119/119 118/118/118 121/121/121
f 39/39/39 119/119/119 121/121/121
f 121/121/121 117/117/117 120/120/120
f 37/37/37 121/121/121 120/120/120
f 39/39/39 121/121/121 37/37/37
