g Arrow1
v -0.7762749 0.1245249 -1.228182
v -0.7762749 0.03753771 -1.786
v -0.005616646 0.08105524 -1.506937
v 0.7632956 0.1245249 -1.228182
v 0.7632956 0.03753771 -1.786
v -0.005616646 0.1679943 -0.9494278
vt 0.4523241 0.732623
vt 0.4523337 0.7326322
vt 0.4523429 0.7326239
vt 0.4523522 0.7326161
vt 0.4523616 0.7326244
vt 0.4523335 0.7326153
vn 0 0.9880584 -0.1540797
vn 0 0.9880584 -0.1540797
vn 0 0.9880584 -0.1540797
vn 0 0.9880584 -0.1540797
vn 0 0.9880584 -0.1540797
vn 0 0.9880584 -0.1540797
g Arrow1_0
f 3/3/3 2/2/2 1/1/1
f 3/3/3 1/1/1 4/4/4
f 4/4/4 5/5/5 3/3/3
f 1/1/1 6/6/6 4/4/4
