g road_climb_hill
v 4.050005 0.5998599 18.51023
v 4.050006 -20 20
v 4.050006 -0.03928219 20
v 4.050005 -20 18.51023
v 4.050004 1.084451 17.02046
v 4.050004 -20 17.02046
v 4.050003 1.447555 15.53068
v 4.050003 -20 15.53068
v 4.050002 1.697801 14.04091
v 4.050002 -20 14.04091
v 4.050002 1.858612 12.55114
v 4.050002 -20 12.55114
v 4.05 1.935807 11.26747
v 4.05 -20 11.26747
v 4.05 1.960718 9.998983
v 4.05 -20 9.998982
v 4.049999 -20 8.732515
v 4.049999 1.935886 8.732517
v 4.049998 -20 7.448854
v 4.049998 1.858776 7.448853
v 4.049997 -20 5.959084
v 4.049997 1.698076 5.959085
v 4.049997 -20 4.469314
v 4.049997 1.447966 4.469313
v 4.049996 -20 2.979541
v 4.049996 1.085035 2.979542
v 4.049995 -20 1.48977
v 4.049995 0.6011979 1.489769
v 4.049994 -20 -5.192092E-06
v 4.049994 -0.039281 -2.002341E-06
v -4.049983 -0.03928319 20
v -4.049983 -20 20
v -4.049983 -20 18.51023
v -4.049983 0.5998608 18.51023
v -4.049984 -20 17.02046
v -4.049984 1.08445 17.02046
v -4.049985 -20 15.53068
v -4.049985 1.447555 15.53068
v -4.049986 -20 14.04091
v -4.049986 1.697801 14.04091
v -4.049987 -20 12.55114
v -4.049987 1.858612 12.55114
v -4.049988 -20 11.26748
v -4.049988 1.935806 11.26748
v -4.049988 -20 9.998984
v -4.049988 1.960718 9.998985
v -4.049989 1.935885 8.732519
v -4.049989 -20 8.732517
v -4.04999 1.858776 7.448855
v -4.04999 -20 7.448856
v -4.049991 1.698076 5.959086
v -4.049991 -20 5.959085
v -4.049992 1.447965 4.469315
v -4.049992 -20 4.469315
v -4.049993 1.085034 2.979544
v -4.049993 -20 2.979541
v -4.049994 0.6011979 1.489773
v -4.049994 -20 1.489772
v -4.049994 -0.039282 -2.34139E-09
v -4.049994 -20 -1.192093E-06
v 4.050006 -0.03928219 20
v -3.977983 -1.192093E-06 20
v 3.978006 -1.192093E-06 20
v -4.049983 -0.03928319 20
v 4.050006 -20 20
v -4.049983 -20 20
v -3.977983 -1.192093E-06 20
v 3.978005 0.6261049 18.51023
v 3.978006 -1.192093E-06 20
v -3.977983 0.6261058 18.51023
v 3.978004 1.118157 17.02046
v -3.977984 1.118158 17.02046
v 3.978003 1.484509 15.53068
v -3.977985 1.484509 15.53068
v 3.978003 1.736159 14.04091
v -3.977986 1.736158 14.04091
v 3.978001 1.897639 12.55114
v -3.977987 1.897639 12.55114
v 3.978001 1.97508 11.26747
v -3.977988 1.97508 11.26748
v 3.978 1.999999 9.998984
v -3.977988 1.999999 9.998986
v 3.977999 1.975162 8.732517
v -3.977989 1.975161 8.732519
v 3.977998 1.897806 7.448853
v -3.97799 1.897805 7.448855
v 3.977998 1.736436 5.959085
v -3.977991 1.736436 5.959086
v 3.977997 1.484923 4.469313
v -3.977992 1.484923 4.469315
v 3.977996 1.11875 2.979542
v -3.977993 1.118749 2.979544
v 3.977995 0.6274999 1.489769
v -3.977993 0.6274979 1.489773
v 3.977994 1.192093E-13 -2E-06
v -3.977994 0 0
v 4.049994 -0.039281 -2.002341E-06
v -4.049994 -20 -1.192093E-06
v 4.049994 -20 -5.192092E-06
v -4.049994 -0.039282 -2.34139E-09
v 3.977994 1.192093E-13 -2E-06
v -3.977994 0 0
v -3.977993 0.6274979 1.489773
v -4.049994 -0.039282 -2.34139E-09
v -3.977994 0 0
v -4.049994 0.6011979 1.489773
v -3.977993 1.118749 2.979544
v -4.049993 1.085034 2.979544
v -3.977992 1.484923 4.469315
v -4.049992 1.447965 4.469315
v -3.977991 1.736436 5.959086
v -4.049991 1.698076 5.959086
v -3.97799 1.897805 7.448855
v -4.04999 1.858776 7.448855
v -3.977989 1.975161 8.732519
v -4.049989 1.935885 8.732519
v -3.977988 1.999999 9.998986
v -4.049988 1.960718 9.998985
v -3.977988 1.97508 11.26748
v -4.049988 1.935806 11.26748
v -3.977987 1.897639 12.55114
v -4.049987 1.858612 12.55114
v -3.977986 1.736158 14.04091
v -4.049986 1.697801 14.04091
v -3.977985 1.484509 15.53068
v -4.049985 1.447555 15.53068
v -3.977984 1.118158 17.02046
v -4.049984 1.08445 17.02046
v -3.977983 0.6261058 18.51023
v -4.049983 0.5998608 18.51023
v -3.977983 -1.192093E-06 20
v -4.049983 -0.03928319 20
v 3.977994 1.192093E-13 -2E-06
v 4.049994 -0.039281 -2.002341E-06
v 4.049995 0.6011979 1.489769
v 3.977995 0.6274999 1.489769
v 4.049996 1.085035 2.979542
v 3.977996 1.11875 2.979542
v 4.049997 1.447966 4.469313
v 3.977997 1.484923 4.469313
v 4.049997 1.698076 5.959085
v 3.977998 1.736436 5.959085
v 4.049998 1.858776 7.448853
v 3.977998 1.897806 7.448853
v 4.049999 1.935886 8.732517
v 3.977999 1.975162 8.732517
v 4.05 1.960718 9.998983
v 3.978 1.999999 9.998984
v 4.05 1.935807 11.26747
v 3.978001 1.97508 11.26747
v 4.050002 1.858612 12.55114
v 3.978001 1.897639 12.55114
v 4.050002 1.697801 14.04091
v 3.978003 1.736159 14.04091
v 4.050003 1.447555 15.53068
v 3.978003 1.484509 15.53068
v 4.050004 1.084451 17.02046
v 3.978004 1.118157 17.02046
v 4.050005 0.5998599 18.51023
v 3.978005 0.6261049 18.51023
v 4.050006 -0.03928219 20
v 3.978006 -1.192093E-06 20
vt 0.983661 0.951107
vt 0.983661 0.951107
vt 0.983661 0.951107
vt 0.983661 0.951107
vt 0.983661 0.951107
vt 0.983661 0.951107
vt 0.983661 0.951107
vt 0.983661 0.951107
vt 0.983661 0.951107
vt 0.983661 0.951107
vt 0.983661 0.951107
vt 0.983661 0.951107
vt 0.983661 0.951107
vt 0.983661 0.951107
vt 0.983661 0.951107
vt 0.983661 0.951107
vt 0.983661 0.951107
vt 0.983661 0.951107
vt 0.983661 0.951107
vt 0.983661 0.951107
vt 0.983661 0.951107
vt 0.983661 0.951107
vt 0.983661 0.951107
vt 0.983661 0.951107
vt 0.983661 0.951107
vt 0.983661 0.951107
vt 0.983661 0.951107
vt 0.983661 0.951107
vt 0.983661 0.951107
vt 0.983661 0.951107
vt 0.983661 0.951107
vt 0.983661 0.951107
vt 0.983661 0.951107
vt 0.983661 0.951107
vt 0.983661 0.951107
vt 0.983661 0.951107
vt 0.983661 0.951107
vt 0.983661 0.951107
vt 0.983661 0.951107
vt 0.983661 0.951107
vt 0.983661 0.951107
vt 0.983661 0.951107
vt 0.983661 0.951107
vt 0.983661 0.951107
vt 0.983661 0.951107
vt 0.983661 0.951107
vt 0.983661 0.951107
vt 0.983661 0.951107
vt 0.983661 0.951107
vt 0.983661 0.951107
vt 0.983661 0.951107
vt 0.983661 0.951107
vt 0.983661 0.951107
vt 0.983661 0.951107
vt 0.983661 0.951107
vt 0.983661 0.951107
vt 0.983661 0.951107
vt 0.983661 0.951107
vt 0.983661 0.951107
vt 0.983661 0.951107
vt 0.983661 0.951107
vt 0.983661 0.951107
vt 0.983661 0.951107
vt 0.983661 0.951107
vt 0.983661 0.951107
vt 0.983661 0.951107
vt 0.203913 0.606964
vt 0.203913 0.606964
vt 0.203913 0.606964
vt 0.203913 0.606964
vt 0.203913 0.606964
vt 0.203913 0.606964
vt 0.203913 0.606964
vt 0.203913 0.606964
vt 0.203913 0.606964
vt 0.203913 0.606964
vt 0.203913 0.606964
vt 0.203913 0.606964
vt 0.203913 0.606964
vt 0.203913 0.606964
vt 0.203913 0.606964
vt 0.203913 0.606964
vt 0.203913 0.606964
vt 0.203913 0.606964
vt 0.203913 0.606964
vt 0.203913 0.606964
vt 0.203913 0.606964
vt 0.203913 0.606964
vt 0.203913 0.606964
vt 0.203913 0.606964
vt 0.203913 0.606964
vt 0.203913 0.606964
vt 0.203913 0.606964
vt 0.203913 0.606964
vt 0.203913 0.606964
vt 0.203913 0.606964
vt 0.983661 0.951107
vt 0.983661 0.951107
vt 0.983661 0.951107
vt 0.983661 0.951107
vt 0.983661 0.951107
vt 0.983661 0.951107
vt 0.985211 0.985211
vt 0.985211 0.985211
vt 0.985211 0.985211
vt 0.985211 0.985211
vt 0.985211 0.985211
vt 0.985211 0.985211
vt 0.985211 0.985211
vt 0.985211 0.985211
vt 0.985211 0.985211
vt 0.985211 0.985211
vt 0.985211 0.985211
vt 0.985211 0.985211
vt 0.985211 0.985211
vt 0.985211 0.985211
vt 0.985211 0.985211
vt 0.985211 0.985211
vt 0.985211 0.985211
vt 0.985211 0.985211
vt 0.985211 0.985211
vt 0.985211 0.985211
vt 0.985211 0.985211
vt 0.985211 0.985211
vt 0.985211 0.985211
vt 0.985211 0.985211
vt 0.985211 0.985211
vt 0.985211 0.985211
vt 0.985211 0.985211
vt 0.985211 0.985211
vt 0.985211 0.985211
vt 0.985211 0.985211
vt 0.985211 0.985211
vt 0.985211 0.985211
vt 0.985211 0.985211
vt 0.985211 0.985211
vt 0.985211 0.985211
vt 0.985211 0.985211
vt 0.985211 0.985211
vt 0.985211 0.985211
vt 0.985211 0.985211
vt 0.985211 0.985211
vt 0.985211 0.985211
vt 0.985211 0.985211
vt 0.985211 0.985211
vt 0.985211 0.985211
vt 0.985211 0.985211
vt 0.985211 0.985211
vt 0.985211 0.985211
vt 0.985211 0.985211
vt 0.985211 0.985211
vt 0.985211 0.985211
vt 0.985211 0.985211
vt 0.985211 0.985211
vt 0.985211 0.985211
vt 0.985211 0.985211
vt 0.985211 0.985211
vt 0.985211 0.985211
vt 0.985211 0.985211
vt 0.985211 0.985211
vt 0.985211 0.985211
vt 0.985211 0.985211
vn 1 0 0
vn 1 0 0
vn 1 0 0
vn 1 0 0
vn 1 0 0
vn 1 0 0
vn 1 0 0
vn 1 0 0
vn 1 0 0
vn 1 0 0
vn 1 0 0
vn 1 0 0
vn 1 0 0
vn 1 0 0
vn 1 0 0
vn 1 0 0
vn 1 0 0
vn 1 0 0
vn 1 0 0
vn 1 0 0
vn 1 0 0
vn 1 0 0
vn 1 0 0
vn 1 0 0
vn 1 0 0
vn 1 0 0
vn 1 0 0
vn 1 0 0
vn 1 0 0
vn 1 0 0
vn -1 0 0
vn -1 0 0
vn -1 0 0
vn -1 0 0
vn -1 0 0
vn -1 0 0
vn -1 0 0
vn -1 0 0
vn -1 0 0
vn -1 0 0
vn -1 0 0
vn -1 0 0
vn -1 0 0
vn -1 0 0
vn -1 0 0
vn -1 0 0
vn -1 0 0
vn -1 0 0
vn -1 0 0
vn -1 0 0
vn -1 0 0
vn -1 0 0
vn -1 0 0
vn -1 0 0
vn -1 0 0
vn -1 0 0
vn -1 0 0
vn -1 0 0
vn -1 0 0
vn -1 0 0
vn 0 -5.960465E-08 1
vn 0 2.19404E-05 1
vn 0 2.19404E-05 1
vn 0 -5.960465E-08 1
vn 0 -5.960465E-08 1
vn 0 -5.960465E-08 1
vn 0 0.9218928 0.387445
vn 0 0.9364478 0.350807
vn 0 0.9218928 0.387445
vn 0 0.9364478 0.350807
vn 0 0.9610372 0.2764191
vn 0 0.9610372 0.2764191
vn 0 0.9792171 0.2028151
vn 0 0.9792171 0.2028151
vn 0 0.9905404 0.137221
vn 0 0.9905404 0.137221
vn 0 0.9964646 0.08401401
vn 0 0.9964646 0.0840141
vn 0 0.9992021 0.03993806
vn 0 0.9992021 0.03993806
vn 0 1 1.60596E-05
vn 0 1 1.60596E-05
vn 0 0.9992041 -0.03988894
vn 0 0.9992041 -0.03988894
vn 0 0.9964704 -0.08394497
vn 0 0.9964704 -0.08394497
vn 0 0.9905517 -0.1371399
vn 0 0.9905517 -0.1371399
vn 0 0.9792374 -0.202717
vn 0 0.9792374 -0.202717
vn 0 0.9611198 -0.2761319
vn 0 0.9611198 -0.2761319
vn 0 0.9363939 -0.3509509
vn 0 0.9363939 -0.3509509
vn 0 0.9215853 -0.388176
vn 0 0.9215853 -0.388176
vn 0 5.960465E-08 -1
vn 0 5.960465E-08 -1
vn 0 5.960465E-08 -1
vn 0 5.960465E-08 -1
vn 0 5.960465E-08 -1
vn 0 5.960465E-08 -1
vn -0.376988 0.868206 -0.322643
vn -0.3864969 0.8486419 -0.3611469
vn -0.3864969 0.8486419 -0.3611469
vn -0.3783922 0.8655152 -0.3281811
vn -0.4021061 0.8809871 -0.249344
vn -0.3974909 0.8814937 -0.2548919
vn -0.4454891 0.8771751 -0.179174
vn -0.443838 0.877198 -0.183116
vn -0.465262 0.876985 -0.120119
vn -0.4647349 0.8769657 -0.1222809
vn -0.4743322 0.8772922 -0.07326196
vn -0.4741842 0.8772824 -0.07432997
vn -0.4780279 0.8776556 -0.03478493
vn -0.4780061 0.8776503 -0.03521695
vn -0.478901 0.8778689 1.405232E-05
vn -0.478901 0.8778689 1.405232E-05
vn -0.4780221 0.8776571 0.03482905
vn -0.4779999 0.8776518 0.03526105
vn -0.4743231 0.877292 0.07332405
vn -0.474175 0.877282 0.07439305
vn -0.4652439 0.8769848 0.120191
vn -0.4647161 0.8769652 0.1223561
vn -0.4454469 0.8771779 0.179265
vn -0.4437931 0.8772013 0.1832091
vn -0.4019049 0.8810027 0.249613
vn -0.3972631 0.8815092 0.2551931
vn -0.3767009 0.8683458 0.322602
vn -0.378117 0.865687 0.328045
vn -0.386328 0.8489849 0.360521
vn -0.386328 0.8489849 0.360521
vn 0.3865012 0.8486394 -0.3611481
vn 0.3865012 0.8486394 -0.3611481
vn 0.3783969 0.8655128 -0.3281819
vn 0.3769929 0.8682038 -0.3226429
vn 0.3974918 0.8814936 -0.2548908
vn 0.4021058 0.8809876 -0.2493428
vn 0.443834 0.8771999 -0.1831169
vn 0.445485 0.877177 -0.1791749
vn 0.464736 0.876965 -0.1222819
vn 0.4652632 0.8769842 -0.12012
vn 0.474189 0.8772798 -0.07432994
vn 0.4743369 0.8772897 -0.07326192
vn 0.4780081 0.8776491 -0.03521796
vn 0.478029 0.877655 -0.03478594
vn 0.478899 0.87787 1.405233E-05
vn 0.478899 0.87787 1.405233E-05
vn 0.4779968 0.8776535 0.03526103
vn 0.4780181 0.8776592 0.03482806
vn 0.474175 0.877282 0.07439305
vn 0.4743223 0.8772925 0.07332309
vn 0.4647169 0.8769649 0.122355
vn 0.4652451 0.8769841 0.1201911
vn 0.4437871 0.8772041 0.1832101
vn 0.445441 0.8771809 0.1792651
vn 0.3972531 0.8815132 0.2551951
vn 0.4018949 0.8810067 0.249615
vn 0.3781122 0.8656894 0.3280442
vn 0.3766952 0.8683482 0.3226022
vn 0.3863262 0.8489873 0.3605172
vn 0.3863262 0.8489873 0.3605172
g road_climb_hill_0
f 3/3/3 2/2/2 1/1/1
f 2/2/2 4/4/4 1/1/1
f 1/1/1 4/4/4 5/5/5
f 4/4/4 6/6/6 5/5/5
f 5/5/5 6/6/6 7/7/7
f 6/6/6 8/8/8 7/7/7
f 7/7/7 8/8/8 9/9/9
f 8/8/8 10/10/10 9/9/9
f 9/9/9 10/10/10 11/11/11
f 10/10/10 12/12/12 11/11/11
f 11/11/11 12/12/12 13/13/13
f 12/12/12 14/14/14 13/13/13
f 13/13/13 14/14/14 15/15/15
f 14/14/14 16/16/16 15/15/15
f 15/15/15 16/16/16 17/17/17
f 18/18/18 15/15/15 17/17/17
f 18/18/18 17/17/17 19/19/19
f 20/20/20 18/18/18 19/19/19
f 20/20/20 19/19/19 21/21/21
f 22/22/22 20/20/20 21/21/21
f 22/22/22 21/21/21 23/23/23
f 24/24/24 22/22/22 23/23/23
f 24/24/24 23/23/23 25/25/25
f 26/26/26 24/24/24 25/25/25
f 26/26/26 25/25/25 27/27/27
f 28/28/28 26/26/26 27/27/27
f 28/28/28 27/27/27 29/29/29
f 30/30/30 28/28/28 29/29/29
f 33/33/33 32/32/32 31/31/31
f 34/34/34 33/33/33 31/31/31
f 35/35/35 33/33/33 34/34/34
f 36/36/36 35/35/35 34/34/34
f 37/37/37 35/35/35 36/36/36
f 38/38/38 37/37/37 36/36/36
f 39/39/39 37/37/37 38/38/38
f 40/40/40 39/39/39 38/38/38
f 41/41/41 39/39/39 40/40/40
f 42/42/42 41/41/41 40/40/40
f 43/43/43 41/41/41 42/42/42
f 44/44/44 43/43/43 42/42/42
f 45/45/45 43/43/43 44/44/44
f 46/46/46 45/45/45 44/44/44
f 46/46/46 47/47/47 45/45/45
f 47/47/47 48/48/48 45/45/45
f 47/47/47 49/49/49 48/48/48
f 49/49/49 50/50/50 48/48/48
f 49/49/49 51/51/51 50/50/50
f 51/51/51 52/52/52 50/50/50
f 51/51/51 53/53/53 52/52/52
f 53/53/53 54/54/54 52/52/52
f 53/53/53 55/55/55 54/54/54
f 55/55/55 56/56/56 54/54/54
f 55/55/55 57/57/57 56/56/56
f 57/57/57 58/58/58 56/56/56
f 57/57/57 59/59/59 58/58/58
f 59/59/59 60/60/60 58/58/58
f 63/63/63 62/62/62 61/61/61
f 62/62/62 64/64/64 61/61/61
f 61/61/61 64/64/64 65/65/65
f 64/64/64 66/66/66 65/65/65
f 69/69/69 68/68/68 67/67/67
f 68/68/68 70/70/70 67/67/67
f 68/68/68 71/71/71 70/70/70
f 71/71/71 72/72/72 70/70/70
f 71/71/71 73/73/73 72/72/72
f 73/73/73 74/74/74 72/72/72
f 73/73/73 75/75/75 74/74/74
f 75/75/75 76/76/76 74/74/74
f 75/75/75 77/77/77 76/76/76
f 77/77/77 78/78/78 76/76/76
f 77/77/77 79/79/79 78/78/78
f 79/79/79 80/80/80 78/78/78
f 79/79/79 81/81/81 80/80/80
f 81/81/81 82/82/82 80/80/80
f 81/81/81 83/83/83 82/82/82
f 83/83/83 84/84/84 82/82/82
f 83/83/83 85/85/85 84/84/84
f 85/85/85 86/86/86 84/84/84
f 85/85/85 87/87/87 86/86/86
f 87/87/87 88/88/88 86/86/86
f 87/87/87 89/89/89 88/88/88
f 89/89/89 90/90/90 88/88/88
f 89/89/89 91/91/91 90/90/90
f 91/91/91 92/92/92 90/90/90
f 91/91/91 93/93/93 92/92/92
f 93/93/93 94/94/94 92/92/92
f 93/93/93 95/95/95 94/94/94
f 95/95/95 96/96/96 94/94/94
f 99/99/99 98/98/98 97/97/97
f 98/98/98 100/100/100 97/97/97
f 97/97/97 100/100/100 101/101/101
f 100/100/100 102/102/102 101/101/101
f 105/105/105 104/104/104 103/103/103
f 104/104/104 106/106/106 103/103/103
f 103/103/103 106/106/106 107/107/107
f 106/106/106 108/108/108 107/107/107
f 107/107/107 108/108/108 109/109/109
f 108/108/108 110/110/110 109/109/109
f 109/109/109 110/110/110 111/111/111
f 110/110/110 112/112/112 111/111/111
f 111/111/111 112/112/112 113/113/113
f 112/112/112 114/114/114 113/113/113
f 113/113/113 114/114/114 115/115/115
f 114/114/114 116/116/116 115/115/115
f 115/115/115 116/116/116 117/117/117
f 116/116/116 118/118/118 117/117/117
f 119/119/119 117/117/117 118/118/118
f 120/120/120 119/119/119 118/118/118
f 121/121/121 119/119/119 120/120/120
f 122/122/122 121/121/121 120/120/120
f 123/123/123 121/121/121 122/122/122
f 124/124/124 123/123/123 122/122/122
f 125/125/125 123/123/123 124/124/124
f 126/126/126 125/125/125 124/124/124
f 127/127/127 125/125/125 126/126/126
f 128/128/128 127/127/127 126/126/126
f 129/129/129 127/127/127 128/128/128
f 130/130/130 129/129/129 128/128/128
f 131/131/131 129/129/129 130/130/130
f 132/132/132 131/131/131 130/130/130
f 135/135/135 134/134/134 133/133/133
f 136/136/136 135/135/135 133/133/133
f 137/137/137 135/135/135 136/136/136
f 138/138/138 137/137/137 136/136/136
f 139/139/139 137/137/137 138/138/138
f 140/140/140 139/139/139 138/138/138
f 141/141/141 139/139/139 140/140/140
f 142/142/142 141/141/141 140/140/140
f 143/143/143 141/141/141 142/142/142
f 144/144/144 143/143/143 142/142/142
f 145/145/145 143/143/143 144/144/144
f 146/146/146 145/145/145 144/144/144
f 147/147/147 145/145/145 146/146/146
f 148/148/148 147/147/147 146/146/146
f 147/147/147 148/148/148 149/149/149
f 148/148/148 150/150/150 149/149/149
f 149/149/149 150/150/150 151/151/151
f 150/150/150 152/152/152 151/151/151
f 151/151/151 152/152/152 153/153/153
f 152/152/152 154/154/154 153/153/153
f 153/153/153 154/154/154 155/155/155
f 154/154/154 156/156/156 155/155/155
f 155/155/155 156/156/156 157/157/157
f 156/156/156 158/158/158 157/157/157
f 157/157/157 158/158/158 159/159/159
f 158/158/158 160/160/160 159/159/159
f 159/159/159 160/160/160 161/161/161
f 160/160/160 162/162/162 161/161/161
