# File produced by Open Asset Import Library (http://www.assimp.sf.net)
# (assimp v3.1.35440475)

mtllib model.mtl

# 116 vertex positions
v  200 4 -83.0657
v  0 0 -83.0657
v  200 0 -83.0657
v  0 4 -83.0657
v  0 4 -113.08
v  200 0 -113.08
v  0 0 -113.08
v  200 4 -113.08
v  104 40 -83.0657
v  100 40 -113.08
v  100 40 -83.0657
v  104 40 -113.08
v  104 4 -113.08
v  100 4 -113.08
v  104 4 -83.0657
v  100 4 -83.0657
v  104 80 -83.0657
v  100 80 -113.08
v  100 80 -83.0657
v  104 80 -113.08
v  104 44 -113.08
v  100 44 -113.08
v  104 44 -83.0657
v  100 44 -83.0657
v  104 156 -83.0657
v  100 156 -113.08
v  100 156 -83.0657
v  104 156 -113.08
v  104 120 -113.08
v  100 120 -113.08
v  104 120 -83.0657
v  100 120 -83.0657
v  104 196 -83.0657
v  100 196 -113.08
v  100 196 -83.0657
v  104 196 -113.08
v  104 160 -113.08
v  100 160 -113.08
v  104 160 -83.0657
v  100 160 -83.0657
v  160 100 -83.0657
v  160 96 -113.08
v  160 96 -83.0657
v  160 100 -113.08
v  196 100 -113.08
v  196 96 -113.08
v  196 100 -83.0657
v  196 96 -83.0657
v  4 100 -83.0657
v  4 96 -113.08
v  4 96 -83.0657
v  4 100 -113.08
v  40 100 -113.08
v  40 96 -113.08
v  40 100 -83.0657
v  40 96 -83.0657
v  80 84 -83.0657
v  80 80 -113.08
v  80 80 -83.0657
v  80 84 -113.08
v  120 84 -113.08
v  120 80 -113.08
v  120 84 -83.0657
v  120 80 -83.0657
v  84 116 -83.0657
v  80 116 -113.08
v  80 116 -83.0657
v  84 116 -113.08
v  84 84 -113.08
v  84 84 -83.0657
v  200 156 -83.0657
v  196 156 -113.08
v  196 156 -83.0657
v  200 156 -113.08
v  196 4 -83.0657
v  196 4 -113.08
v  4 196 -83.0657
v  0 196 -113.08
v  0 196 -83.0657
v  4 196 -113.08
v  4 4 -83.0657
v  4 4 -113.08
v  160 44 -83.0657
v  40 40 -83.0657
v  160 40 -83.0657
v  40 44 -83.0657
v  40 44 -113.08
v  160 40 -113.08
v  40 40 -113.08
v  160 44 -113.08
v  160 120 -83.0657
v  160 116 -83.0657
v  80 120 -83.0657
v  80 120 -113.08
v  160 116 -113.08
v  160 120 -113.08
v  200 160 -83.0657
v  40 156 -83.0657
v  40 160 -83.0657
v  40 160 -113.08
v  40 156 -113.08
v  200 160 -113.08
v  200 200 -83.0657
v  200 196 -83.0657
v  0 200 -83.0657
v  0 200 -113.08
v  200 196 -113.08
v  200 200 -113.08
v  156 116 -113.08
v  156 116 -83.0657
v  156 44 -83.0657
v  156 44 -113.08
v  44 156 -83.0657
v  44 156 -113.08
v  44 44 -83.0657
v  44 44 -113.08

# 318 UV coordinates
vt 0.922976 -4.16625e-14 0
vt 0.912047 0.546427 0
vt 0.912047 -4.17444e-14 0
vt 0.922976 0.546427 0
vt 0.881476 0.546427 0
vt 0.892404 7.82203e-15 0
vt 0.892404 0.546427 0
vt 0.881476 9.81371e-15 0
vt 0.984119 0.470005 0
vt 0.97319 0.388002 0
vt 0.984119 0.388002 0
vt 0.97319 0.470005 0
vt 0.999404 0.410014 0
vt 0.988476 0.328011 0
vt 0.999404 0.328011 0
vt 0.988476 0.410014 0
vt 0.0820029 0.546427 0
vt 1.52924e-16 -3.09559e-16 0
vt 0.0820029 -3.27912e-16 0
vt 7.00589e-17 0.546427 0
vt 0.255241 0.546427 0
vt 0.173238 -3.87904e-16 0
vt 0.255241 -3.33067e-16 0
vt 0.173238 0.546427 0
vt 0.672571 0.934429 0
vt 0.6835 0.852426 0
vt 0.6835 0.934429 0
vt 0.672571 0.852426 0
vt 0.347214 0.950783 0
vt 0.336286 0.852426 0
vt 0.347214 0.852426 0
vt 0.336286 0.950783 0
vt 0.259857 0.644784 0
vt 0.34186 0.546427 0
vt 0.34186 0.644784 0
vt 0.259857 0.546427 0
vt 0.657286 0.934429 0
vt 0.668214 0.852426 0
vt 0.668214 0.934429 0
vt 0.657286 0.852426 0
vt 6.02857e-17 0.950783 0
vt 0.0820029 0.852426 0
vt 0.0820029 0.950783 0
vt -4.27326e-17 0.852426 0
vt 0.561214 0.863354 0
vt 0.550286 0.764998 0
vt 0.561214 0.764998 0
vt 0.550286 0.863354 0
vt 0.769381 0.989071 0
vt 0.780309 0.907069 0
vt 0.780309 0.989071 0
vt 0.769381 0.907069 0
vt 0.5765 0.863354 0
vt 0.565571 0.764998 0
vt 0.5765 0.764998 0
vt 0.565571 0.863354 0
vt 0.779571 0.808712 0
vt 0.861574 0.710355 0
vt 0.861574 0.808712 0
vt 0.779571 0.710355 0
vt 0.591785 0.764998 0
vt 0.580857 0.847 0
vt 0.580857 0.764998 0
vt 0.591785 0.847 0
vt 0.779571 0.907069 0
vt 0.861574 0.907069 0
vt 0.214738 0.961711 0
vt 0.203809 0.863354 0
vt 0.214738 0.863354 0
vt 0.203809 0.961711 0
vt 0.652928 0.852426 0
vt 0.642 0.934429 0
vt 0.642 0.852426 0
vt 0.652928 0.934429 0
vt 0.331928 0.939854 0
vt 0.321 0.841497 0
vt 0.331928 0.841497 0
vt 0.321 0.939854 0
vt 0.515098 0.81964 0
vt 0.433095 0.917997 0
vt 0.433095 0.81964 0
vt 0.515098 0.917997 0
vt 0.611428 0.934429 0
vt 0.622357 0.852426 0
vt 0.622357 0.934429 0
vt 0.611428 0.852426 0
vt 0.779571 0.513641 0
vt 0.861574 0.415284 0
vt 0.861574 0.513641 0
vt 0.779571 0.415284 0
vt 0.199452 0.961711 0
vt 0.188524 0.863354 0
vt 0.199452 0.863354 0
vt 0.188524 0.961711 0
vt 0.535 0.945357 0
vt 0.545928 0.863354 0
vt 0.545928 0.945357 0
vt 0.535 0.863354 0
vt 0.535 0.764998 0
vt 0.545928 0.764998 0
vt 0.861574 0.611998 0
vt 0.779571 0.611998 0
vt 0.795595 0.907069 0
vt 0.784666 0.989071 0
vt 0.784666 0.907069 0
vt 0.795595 0.989071 0
vt 0.184167 0.961711 0
vt 0.173238 0.863354 0
vt 0.184167 0.863354 0
vt 0.173238 0.961711 0
vt 0.519714 0.956286 0
vt 0.530643 0.874283 0
vt 0.530643 0.956286 0
vt 0.519714 0.874283 0
vt 0.377786 0.950783 0
vt 0.366857 0.852426 0
vt 0.377786 0.852426 0
vt 0.366857 0.950783 0
vt 0.433095 0.721283 0
vt 0.515098 0.622927 0
vt 0.515098 0.721283 0
vt 0.433095 0.622927 0
vt 0.749738 0.830569 0
vt 0.738809 0.912572 0
vt 0.738809 0.830569 0
vt 0.749738 0.912572 0
vt 0.255241 0.764998 0
vt 0.173238 0.764998 0
vt 0.255241 0.863354 0
vt 0.393071 0.950783 0
vt 0.382143 0.852426 0
vt 0.393071 0.852426 0
vt 0.382143 0.950783 0
vt 0.765024 0.830569 0
vt 0.754095 0.912572 0
vt 0.754095 0.830569 0
vt 0.765024 0.912572 0
vt 0.3625 0.950783 0
vt 0.351571 0.852426 0
vt 0.3625 0.852426 0
vt 0.351571 0.950783 0
vt 0.596143 0.934429 0
vt 0.607071 0.852426 0
vt 0.607071 0.934429 0
vt 0.596143 0.852426 0
vt 0.515098 0.52457 0
vt 0.433095 0.52457 0
vt 0.703881 0.928926 0
vt 0.692952 0.830569 0
vt 0.703881 0.830569 0
vt 0.692952 0.928926 0
vt 0.412714 0.934429 0
vt 0.423643 0.852426 0
vt 0.423643 0.934429 0
vt 0.412714 0.852426 0
vt 0.519714 0.764998 0
vt 0.530643 0.764998 0
vt 0.606333 0.743141 0
vt 0.688336 0.633855 0
vt 0.688336 0.743141 0
vt 0.606333 0.633855 0
vt 0.999404 0.164006 0
vt 0.988476 0.0820029 0
vt 0.999404 0.0820029 0
vt 0.988476 0.164006 0
vt 0.606333 0.852426 0
vt 0.688336 0.852426 0
vt 0.321 0.732212 0
vt 0.331928 0.732212 0
vt 0.999404 -1.88283e-16 0
vt 0.988476 -4.26306e-16 0
vt 0.719166 0.917997 0
vt 0.708238 0.830569 0
vt 0.719166 0.830569 0
vt 0.708238 0.917997 0
vt 0.34186 0.732212 0
vt 0.259857 0.732212 0
vt 0.708238 1 0
vt 0.719166 1 0
vt 0.086619 0.939854 0
vt 0.168622 0.852426 0
vt 0.168622 0.939854 0
vt 0.086619 0.852426 0
vt 0.734452 0.917997 0
vt 0.723524 0.830569 0
vt 0.734452 0.830569 0
vt 0.723524 0.917997 0
vt 0.580857 0.929003 0
vt 0.591785 0.929003 0
vt 0.892404 0.961711 0
vt 0.881476 0.961711 0
vt 0.774955 0.415284 0
vt 0.692952 0.415284 0
vt 0.774955 0.830569 0
vt 0.877119 0.961711 0
vt 0.86619 0.546427 0
vt 0.877119 0.546427 0
vt 0.86619 0.961711 0
vt 0.774955 4.30264e-16 0
vt 0.692952 3.3117e-16 0
vt 0.799952 0.989071 0
vt 0.810881 0.907069 0
vt 0.810881 0.989071 0
vt 0.799952 0.907069 0
vt 0.438928 0.917997 0
vt 0.428 1 0
vt 0.428 0.917997 0
vt 0.438928 1 0
vt 0.938262 0.52457 0
vt 0.927333 -3.87658e-15 0
vt 0.938262 -1.09609e-14 0
vt 0.927333 0.52457 0
vt 0.346476 0.52457 0
vt 0.428479 4.14177e-16 0
vt 0.428479 0.52457 0
vt 0.346476 4.37544e-16 0
vt 0.953547 0.52457 0
vt 0.942619 -6.65053e-15 0
vt 0.953547 -1.02141e-14 0
vt 0.942619 0.52457 0
vt 0.515098 3.10668e-17 0
vt 0.433095 1.83058e-16 0
vt 0.397428 0.934429 0
vt 0.408357 0.852426 0
vt 0.408357 0.934429 0
vt 0.397428 0.852426 0
vt 0.968833 -4.86749e-15 0
vt 0.957904 0.327856 0
vt 0.957904 -4.82947e-15 0
vt 0.968833 0.327856 0
vt 0.957904 0.655712 0
vt 0.968833 0.655712 0
vt 0.999404 0.492017 0
vt 0.988476 0.492017 0
vt 0.984119 0.552008 0
vt 0.97319 0.552008 0
vt 0.428479 0.852426 0
vt 0.346476 0.852426 0
vt 0.601717 0.764998 0
vt 0.519714 0.437142 0
vt 0.601717 0.437142 0
vt 0.259857 0.950783 0
vt 0.270786 0.732212 0
vt 0.270786 0.950783 0
vt 0.275143 0.950783 0
vt 0.286071 0.732212 0
vt 0.286071 0.950783 0
vt 0.275143 0.732212 0
vt 0.999404 0.246009 0
vt 0.988476 0.246009 0
vt 0.861574 0.218571 0
vt 0.779571 1.93441e-16 0
vt 0.861574 1.66533e-16 0
vt 0.779571 0.218571 0
vt 0.927333 0.961711 0
vt 0.938262 0.961711 0
vt 0.942619 0.961711 0
vt 0.953547 0.961711 0
vt 0.484786 1 0
vt 0.473857 0.917997 0
vt 0.484786 0.917997 0
vt 0.473857 1 0
vt 0.97319 0.305999 0
vt 0.984119 0.305999 0
vt 0.688336 0.437142 0
vt 0.606333 -1.72109e-16 0
vt 0.688336 -2.77555e-17 0
vt 0.606333 0.437142 0
vt 0.519714 -4.87615e-18 0
vt 0.601717 1.66533e-16 0
vt 0.896762 0.546427 0
vt 0.90769 3.95618e-16 0
vt 0.90769 0.546427 0
vt 0.896762 5.13476e-16 0
vt 0.877119 -3.01711e-14 0
vt 0.86619 -3.04756e-14 0
vt 0.500071 1 0
vt 0.489143 0.917997 0
vt 0.500071 0.917997 0
vt 0.489143 1 0
vt 0.454214 1 0
vt 0.443286 0.917997 0
vt 0.454214 0.917997 0
vt 0.443286 1 0
vt 0.259857 8.15054e-16 0
vt 0.34186 7.87465e-16 0
vt 0.168622 0.546427 0
vt 0.086619 8.09334e-16 0
vt 0.168622 8.84212e-16 0
vt 0.086619 0.546427 0
vt 0.738809 0.994575 0
vt 0.749738 0.994575 0
vt 0.316643 0.928926 0
vt 0.305714 0.732212 0
vt 0.316643 0.732212 0
vt 0.305714 0.928926 0
vt 0.301357 0.928926 0
vt 0.290428 0.732212 0
vt 0.301357 0.732212 0
vt 0.290428 0.928926 0
vt 0.637643 0.852426 0
vt 0.626714 0.934429 0
vt 0.626714 0.852426 0
vt 0.637643 0.934429 0
vt 0.815238 0.989071 0
vt 0.826166 0.907069 0
vt 0.826166 0.989071 0
vt 0.815238 0.907069 0
vt 0.968833 0.961711 0
vt 0.957904 0.961711 0
vt 0.97319 1.02286e-14 0
vt 0.984119 1.02149e-14 0
vt 1.50616e-16 0.852426 0
vt 4.01859e-16 0.546427 0
vt 0.4695 0.917997 0
vt 0.458571 1 0
vt 0.458571 0.917997 0
vt 0.4695 1 0

# 24 vertex normals
vn 0 4.62545e-16 1
vn 6.42147e-32 -4.62545e-16 -1
vn -1 -6.94146e-17 6.42147e-32
vn 1 6.94146e-17 -0
vn 6.94146e-17 -1 4.62545e-16
vn -6.94146e-17 1 -4.62545e-16
vn -4.22995e-15 1 -1.0335e-15
vn 8.74329e-30 -1.0335e-15 -1
vn 1 4.22995e-15 -1.98711e-30
vn 4.22995e-15 -1 1.0335e-15
vn -1 -4.22995e-15 6.75618e-30
vn 0 1.0335e-15 1
vn -1 -9.27036e-16 -6.90253e-30
vn 7.88861e-30 -1.0335e-15 -1
vn -9.27036e-16 1 -1.0335e-15
vn 1 9.27036e-16 6.90253e-30
vn 9.27036e-16 -1 1.0335e-15
vn -7.88861e-30 1.0335e-15 1
vn -7.04992e-17 1 -9.39544e-18
vn 0 9.39544e-18 1
vn 1 7.04992e-17 -0
vn 1.32474e-33 -9.39544e-18 -1
vn -1 -7.04992e-17 1.32474e-33
vn 7.04992e-17 -1 9.39544e-18

# Mesh 'Mesh1_Mesh1' with 12 faces
g Mesh1_Mesh1
usemtl Mensola_01
f  1/1/1 2/2/1 3/3/1
f  2/2/1 1/1/1 4/4/1
f  5/5/2 6/6/2 7/7/2
f  6/6/2 5/5/2 8/8/2
f  5/9/3 2/10/3 4/11/3
f  2/10/3 5/9/3 7/12/3
f  6/13/4 1/14/4 3/15/4
f  1/14/4 6/13/4 8/16/4
f  6/17/5 2/18/5 7/19/5
f  2/18/5 6/17/5 3/20/5
f  1/21/6 5/22/6 4/23/6
f  5/22/6 1/21/6 8/24/6

# Mesh 'Mesh2_Mesh2' with 12 faces
g Mesh2_Mesh2
usemtl Divisore_01
f  9/25/7 10/26/7 11/27/7
f  10/26/7 9/25/7 12/28/7
f  10/29/8 13/30/8 14/31/8
f  13/30/8 10/29/8 12/32/8
f  13/33/9 9/34/9 15/35/9
f  9/34/9 13/33/9 12/36/9
f  13/37/10 16/38/10 14/39/10
f  16/38/10 13/37/10 15/40/10
f  10/41/11 16/42/11 11/43/11
f  16/42/11 10/41/11 14/44/11
f  9/45/12 16/46/12 15/47/12
f  16/46/12 9/45/12 11/48/12

# Mesh 'Mesh3_Mesh3' with 12 faces
g Mesh3_Mesh3
usemtl Divisore_01
f  17/49/7 18/50/7 19/51/7
f  18/50/7 17/49/7 20/52/7
f  18/53/8 21/54/8 22/55/8
f  21/54/8 18/53/8 20/56/8
f  21/57/9 17/58/9 23/59/9
f  17/58/9 21/57/9 20/60/9
f  21/61/10 24/62/10 22/63/10
f  24/62/10 21/61/10 23/64/10
f  18/65/11 24/59/11 19/66/11
f  24/59/11 18/65/11 22/57/11
f  17/67/12 24/68/12 23/69/12
f  24/68/12 17/67/12 19/70/12

# Mesh 'Mesh4_Mesh4' with 12 faces
g Mesh4_Mesh4
usemtl Divisore_01
f  25/71/7 26/72/7 27/73/7
f  26/72/7 25/71/7 28/74/7
f  26/75/8 29/76/8 30/77/8
f  29/76/8 26/75/8 28/78/8
f  29/79/9 25/80/9 31/81/9
f  25/80/9 29/79/9 28/82/9
f  29/83/10 32/84/10 30/85/10
f  32/84/10 29/83/10 31/86/10
f  26/87/11 32/88/11 27/89/11
f  32/88/11 26/87/11 30/90/11
f  25/91/12 32/92/12 31/93/12
f  32/92/12 25/91/12 27/94/12

# Mesh 'Mesh5_Mesh5' with 12 faces
g Mesh5_Mesh5
usemtl Divisore_01
f  33/95/7 34/96/7 35/97/7
f  34/96/7 33/95/7 36/98/7
f  34/96/8 37/99/8 38/100/8
f  37/99/8 34/96/8 36/98/8
f  37/60/9 33/101/9 39/58/9
f  33/101/9 37/60/9 36/102/9
f  37/103/10 40/104/10 38/105/10
f  40/104/10 37/103/10 39/106/10
f  34/89/11 40/102/11 35/87/11
f  40/102/11 34/89/11 38/101/11
f  33/107/12 40/108/12 39/109/12
f  40/108/12 33/107/12 35/110/12

# Mesh 'Mesh6_Mesh6' with 12 faces
g Mesh6_Mesh6
usemtl Divisore_01
f  41/111/13 42/112/13 43/113/13
f  42/112/13 41/111/13 44/114/13
f  42/115/14 45/116/14 46/117/14
f  45/116/14 42/115/14 44/118/14
f  45/119/15 41/120/15 47/121/15
f  41/120/15 45/119/15 44/122/15
f  45/123/16 48/124/16 46/125/16
f  48/124/16 45/123/16 47/126/16
f  42/127/17 48/108/17 43/128/17
f  48/108/17 42/127/17 46/129/17
f  41/130/18 48/131/18 47/132/18
f  48/131/18 41/130/18 43/133/18

# Mesh 'Mesh7_Mesh7' with 12 faces
g Mesh7_Mesh7
usemtl Divisore_01
f  49/134/13 50/135/13 51/136/13
f  50/135/13 49/134/13 52/137/13
f  50/138/14 53/139/14 54/140/14
f  53/139/14 50/138/14 52/141/14
f  53/121/15 49/81/15 55/119/15
f  49/81/15 53/121/15 52/79/15
f  53/142/16 56/143/16 54/144/16
f  56/143/16 53/142/16 55/145/16
f  50/146/17 56/122/17 51/147/17
f  56/122/17 50/146/17 54/120/17
f  49/148/18 56/149/18 55/150/18
f  56/149/18 49/148/18 51/151/18

# Mesh 'Mesh8_Mesh8' with 12 faces
g Mesh8_Mesh8
usemtl Divisore_03
f  57/152/13 58/153/13 59/154/13
f  58/153/13 57/152/13 60/155/13
f  58/112/14 61/156/14 62/157/14
f  61/156/14 58/112/14 60/114/14
f  61/158/15 57/159/15 63/160/15
f  57/159/15 61/158/15 60/161/15
f  62/162/16 63/163/16 64/164/16
f  63/163/16 62/162/16 61/165/16
f  58/166/17 64/160/17 59/167/17
f  64/160/17 58/166/17 62/158/17
f  57/77/18 64/168/18 63/169/18
f  64/168/18 57/77/18 59/76/18

# Mesh 'Mesh9_Mesh9' with 12 faces
g Mesh9_Mesh9
usemtl Divisore_02
f  65/163/7 66/170/7 67/164/7
f  66/170/7 65/163/7 68/171/7
f  66/172/8 69/173/8 60/174/8
f  69/173/8 66/172/8 68/175/8
f  70/176/9 68/33/9 65/35/9
f  68/33/9 70/176/9 69/177/9
f  69/178/10 57/172/10 60/179/10
f  57/172/10 69/178/10 70/175/10
f  66/180/11 57/181/11 67/182/11
f  57/181/11 66/180/11 60/183/11
f  65/184/12 57/185/12 70/186/12
f  57/185/12 65/184/12 67/187/12

# Mesh 'Mesh10_Mesh10' with 12 faces
g Mesh10_Mesh10
usemtl Parete_Dx_01
f  71/188/19 72/64/19 73/189/19
f  72/64/19 71/188/19 74/62/19
f  71/190/20 75/5/20 1/7/20
f  75/5/20 71/190/20 73/191/20
f  8/192/21 71/149/21 1/193/21
f  71/149/21 8/192/21 74/194/21
f  72/195/22 8/196/22 76/197/22
f  8/196/22 72/195/22 74/198/22
f  72/193/23 75/199/23 73/192/23
f  75/199/23 72/193/23 76/200/23
f  8/201/24 75/202/24 76/203/24
f  75/202/24 8/201/24 1/204/24

# Mesh 'Mesh11_Mesh11' with 12 faces
g Mesh11_Mesh11
usemtl Parete_Sx_01
f  77/205/19 78/206/19 79/207/19
f  78/206/19 77/205/19 80/208/19
f  77/209/20 4/210/20 81/211/20
f  4/210/20 77/209/20 79/212/20
f  82/213/21 77/214/21 81/215/21
f  77/214/21 82/213/21 80/216/21
f  78/217/22 82/218/22 5/219/22
f  82/218/22 78/217/22 80/220/22
f  78/147/23 4/221/23 79/146/23
f  4/221/23 78/147/23 5/222/23
f  82/223/24 4/224/24 5/225/24
f  4/224/24 82/223/24 81/226/24

# Mesh 'Mesh12_Mesh12' with 12 faces
g Mesh12_Mesh12
usemtl Mensola_02
f  83/227/1 84/228/1 85/229/1
f  84/228/1 83/227/1 86/230/1
f  87/231/2 88/230/2 89/232/2
f  88/230/2 87/231/2 90/228/2
f  87/233/3 84/16/3 86/13/3
f  84/16/3 87/233/3 89/234/3
f  88/235/4 83/12/4 85/9/4
f  83/12/4 88/235/4 90/236/4
f  88/237/5 84/213/5 89/215/5
f  84/213/5 88/237/5 85/238/5
f  83/239/6 87/240/6 86/241/6
f  87/240/6 83/239/6 90/156/6

# Mesh 'Mesh13_Mesh13' with 12 faces
g Mesh13_Mesh13
usemtl Mensola_03
f  91/242/1 67/243/1 92/244/1
f  67/243/1 91/242/1 93/177/1
f  94/245/2 95/246/2 66/247/2
f  95/246/2 94/245/2 96/248/2
f  94/249/3 67/165/3 93/162/3
f  67/165/3 94/249/3 66/250/3
f  95/15/4 91/250/4 92/249/4
f  91/250/4 95/15/4 96/14/4
f  95/251/5 67/252/5 66/253/5
f  67/252/5 95/251/5 92/254/5
f  91/127/6 94/24/6 93/21/6
f  94/24/6 91/127/6 96/128/6

# Mesh 'Mesh14_Mesh14' with 12 faces
g Mesh14_Mesh14
usemtl Mensola_04
f  97/255/1 98/209/1 71/256/1
f  98/209/1 97/255/1 99/212/1
f  100/217/2 74/257/2 101/220/2
f  74/257/2 100/217/2 102/258/2
f  100/259/3 98/260/3 99/261/3
f  98/260/3 100/259/3 101/262/3
f  74/11/4 97/263/4 71/264/4
f  97/263/4 74/11/4 102/10/4
f  74/265/5 98/266/5 101/267/5
f  98/266/5 74/265/5 71/268/5
f  97/241/6 100/269/6 99/270/6
f  100/269/6 97/241/6 102/240/6

# Mesh 'Mesh15_Mesh15' with 12 faces
g Mesh15_Mesh15
usemtl Mensola_05
f  103/271/1 79/272/1 104/273/1
f  79/272/1 103/271/1 105/274/1
f  106/275/2 107/196/2 78/276/2
f  107/196/2 106/275/2 108/197/2
f  106/277/3 79/278/3 105/279/3
f  79/278/3 106/277/3 78/280/3
f  107/281/4 103/282/4 104/283/4
f  103/282/4 107/281/4 108/284/4
f  107/34/5 79/285/5 78/286/5
f  79/285/5 107/34/5 104/36/5
f  103/287/6 106/288/6 105/289/6
f  106/288/6 103/287/6 108/290/6

# Mesh 'Mesh16_Mesh16' with 12 faces
g Mesh16_Mesh16
usemtl Parete_Dx_02
f  92/291/19 109/126/19 110/292/19
f  109/126/19 92/291/19 95/124/19
f  92/293/20 111/294/20 83/295/20
f  111/294/20 92/293/20 110/296/20
f  90/161/21 92/265/21 83/159/21
f  92/265/21 90/161/21 95/268/21
f  109/297/22 90/298/22 112/299/22
f  90/298/22 109/297/22 95/300/22
f  109/90/23 111/251/23 110/88/23
f  111/251/23 109/90/23 112/254/23
f  90/301/24 111/302/24 112/303/24
f  111/302/24 90/301/24 83/304/24

# Mesh 'Mesh17_Mesh17' with 12 faces
g Mesh17_Mesh17
usemtl Parete_Sx_02
f  113/305/19 101/306/19 98/307/19
f  101/306/19 113/305/19 114/308/19
f  113/309/20 86/231/20 115/232/20
f  86/231/20 113/309/20 98/310/20
f  116/183/21 113/287/21 115/181/21
f  113/287/21 116/183/21 114/290/21
f  101/264/22 116/311/22 87/312/22
f  116/311/22 101/264/22 114/263/22
f  101/17/23 86/313/23 98/314/23
f  86/313/23 101/17/23 87/42/23
f  116/315/24 86/316/24 87/317/24
f  86/316/24 116/315/24 115/318/24

