g road_sign_attention
v -0.05 0.519582 -0.04999997
v 0.05 2.946627 -0.04999982
v -0.05 2.946627 -0.04999982
v 0.05 0.519583 -0.04999997
v -0.05 -0.470172 -0.05000003
v 0.05 -0.470172 -0.05000003
v 0.05 0.519583 -0.04999997
v 0.05 2.946627 0.05000017
v 0.05 2.946627 -0.04999982
v 0.05 0.5195829 0.05000003
v 0.05 -0.470172 -0.05000003
v 0.05 -0.470172 0.04999997
v 0.05 0.5195829 0.05000003
v -0.05 2.946627 0.05000017
v 0.05 2.946627 0.05000017
v -0.05 0.5195829 0.05000003
v 0.05 -0.470172 0.04999997
v -0.05 -0.470172 0.04999997
v -0.05 0.5195829 0.05000003
v -0.05 2.946627 -0.04999982
v -0.05 2.946627 0.05000017
v -0.05 0.519582 -0.04999997
v -0.05 -0.470172 0.04999997
v -0.05 -0.470172 -0.05000003
v 0.05 -0.470172 -0.05000003
v -0.05 -0.470172 -0.05000003
v -0.05 -0.470172 0.04999997
v 0.05 -0.470172 0.04999997
v 0.031702 2.976867 0.03170218
v -0.031702 2.976867 0.03170218
v -0.031702 2.976867 -0.03170182
v 0.031702 2.976867 -0.03170182
v -0.031702 2.976867 -0.03170182
v -0.05 2.946627 -0.04999982
v 0.05 2.946627 -0.04999982
v 0.031702 2.976867 -0.03170182
v 0.031702 2.976867 -0.03170182
v 0.05 2.946627 -0.04999982
v 0.05 2.946627 0.05000017
v 0.031702 2.976867 0.03170218
v 0.031702 2.976867 0.03170218
v 0.05 2.946627 0.05000017
v -0.05 2.946627 0.05000017
v -0.031702 2.976867 0.03170218
v -0.031702 2.976867 0.03170218
v -0.05 2.946627 0.05000017
v -0.05 2.946627 -0.04999982
v -0.031702 2.976867 -0.03170182
v -0.751028 2.083409 -0.1460379
v -0.114998 3.185045 -0.1460378
v -0.114998 3.185045 -0.04999981
v -0.751028 2.083409 -0.04999987
v 0.715292 1.899389 -0.04999989
v 0.63603 1.884227 -0.04999989
v -0.63603 1.884227 -0.04999989
v -0.715292 1.899388 -0.04999989
v -0.764979 1.942566 -0.04999988
v 0.764979 1.942566 -0.04999988
v 0.777528 2.007185 -0.04999988
v -0.777528 2.007185 -0.04999988
v 0.751028 2.083409 -0.04999987
v -0.751028 2.083409 -0.04999987
v 0.114998 3.185045 -0.04999981
v -0.114998 3.185045 -0.04999981
v 0.062236 3.246106 -0.0499998
v -0.062236 3.246106 -0.0499998
v 0 3.267549 -0.0499998
v 0.63603 1.884227 -0.1460379
v -0.63603 1.884227 -0.1460379
v -0.63603 1.884227 -0.04999989
v 0.63603 1.884227 -0.04999989
v 0.114998 3.185045 -0.1460378
v 0.751028 2.083409 -0.1460379
v 0.751028 2.083409 -0.04999987
v 0.114998 3.185045 -0.04999981
v 0.751028 2.083409 -0.1460379
v 0.777528 2.007185 -0.1460379
v 0.777528 2.007185 -0.04999988
v 0.751028 2.083409 -0.04999987
v 0.777528 2.007185 -0.1460379
v 0.764979 1.942566 -0.1460379
v 0.764979 1.942566 -0.04999988
v 0.777528 2.007185 -0.04999988
v 0.764979 1.942566 -0.1460379
v 0.715292 1.899389 -0.1460379
v 0.715292 1.899389 -0.04999989
v 0.764979 1.942566 -0.04999988
v 0.715292 1.899389 -0.1460379
v 0.63603 1.884227 -0.1460379
v 0.63603 1.884227 -0.04999989
v 0.715292 1.899389 -0.04999989
v 0.114998 3.185045 -0.04999981
v 0.062236 3.246106 -0.0499998
v 0.062236 3.246106 -0.1460378
v 0.114998 3.185045 -0.1460378
v 0.062236 3.246106 -0.0499998
v 0 3.267549 -0.0499998
v 0 3.267549 -0.1460378
v 0.062236 3.246106 -0.1460378
v 0 3.267549 -0.0499998
v -0.062236 3.246106 -0.0499998
v -0.062236 3.246106 -0.1460378
v 0 3.267549 -0.1460378
v -0.062236 3.246106 -0.0499998
v -0.114998 3.185045 -0.04999981
v -0.114998 3.185045 -0.1460378
v -0.062236 3.246106 -0.1460378
v -0.63603 1.884227 -0.1460379
v -0.715292 1.899388 -0.1460379
v -0.715292 1.899388 -0.04999989
v -0.63603 1.884227 -0.04999989
v -0.715292 1.899388 -0.1460379
v -0.764979 1.942566 -0.1460379
v -0.764979 1.942566 -0.04999988
v -0.715292 1.899388 -0.04999989
v -0.764979 1.942566 -0.1460379
v -0.777528 2.007185 -0.1460379
v -0.777528 2.007185 -0.04999988
v -0.764979 1.942566 -0.04999988
v -0.777528 2.007185 -0.1460379
v -0.751028 2.083409 -0.1460379
v -0.751028 2.083409 -0.04999987
v -0.777528 2.007185 -0.04999988
v -0.042458 2.265753 -0.1460378
v 0.003778 2.243178 -0.1460378
v 0.043148 2.258636 -0.1460378
v 0.075671 2.291232 -0.1460378
v -0.064679 2.308546 -0.1460378
v 0.096211 2.833062 -0.1460378
v -0.09032 2.846152 -0.1460378
v 0.08594 2.898208 -0.1460378
v -0.078356 2.904372 -0.1460378
v 0.056839 2.939336 -0.1460378
v -0.049297 2.945484 -0.1460378
v -0.003145 2.964346 -0.1460378
v -0.064858 2.101426 -0.1460379
v -0.02558 2.034355 -0.1460379
v 0.038915 2.037404 -0.1460379
v 0.083792 2.079595 -0.1460379
v 0.069773 2.152368 -0.1460379
v -0.034007 2.160367 -0.1460379
v 0.019286 2.182986 -0.1460379
v -0.049297 2.945484 -0.1460378
v -0.003145 2.964346 -0.1460378
v 0 3.112317 -0.1460378
v 0.056839 2.939336 -0.1460378
v -0.078356 2.904372 -0.1460378
v 0.08594 2.898208 -0.1460378
v -0.630544 2.020182 -0.1460379
v 0.630544 2.020182 -0.1460379
v -0.09032 2.846152 -0.1460378
v 0.096211 2.833062 -0.1460378
v -0.064858 2.101426 -0.1460379
v -0.064679 2.308546 -0.1460378
v -0.02558 2.034355 -0.1460379
v -0.034007 2.160367 -0.1460379
v 0.038915 2.037404 -0.1460379
v -0.042458 2.265753 -0.1460378
v 0.083792 2.079595 -0.1460379
v 0.019286 2.182986 -0.1460379
v 0.075671 2.291232 -0.1460378
v 0.069773 2.152368 -0.1460379
v 0.003778 2.243178 -0.1460378
v 0.043148 2.258636 -0.1460378
v 0.630544 2.020182 -0.1460379
v 0.777528 2.007185 -0.1460379
v 0.751028 2.083409 -0.1460379
v 0.764979 1.942566 -0.1460379
v 0.715292 1.899389 -0.1460379
v 0.114998 3.185045 -0.1460378
v 0.63603 1.884227 -0.1460379
v 0 3.112317 -0.1460378
v -0.630544 2.020182 -0.1460379
v 0.062236 3.246106 -0.1460378
v -0.63603 1.884227 -0.1460379
v 0 3.267549 -0.1460378
v -0.715292 1.899388 -0.1460379
v -0.062236 3.246106 -0.1460378
v -0.114998 3.185045 -0.1460378
v -0.751028 2.083409 -0.1460379
v -0.764979 1.942566 -0.1460379
v -0.777528 2.007185 -0.1460379
vt 0.982173 0.988126
vt 0.982173 0.988126
vt 0.982173 0.988126
vt 0.982173 0.988126
vt 0.982173 0.988126
vt 0.982173 0.988126
vt 0.982173 0.950626
vt 0.982173 0.950626
vt 0.982173 0.950626
vt 0.982173 0.950626
vt 0.982173 0.950626
vt 0.982173 0.950626
vt 0.982173 0.924376
vt 0.982173 0.924376
vt 0.982173 0.924376
vt 0.982173 0.924376
vt 0.982173 0.924376
vt 0.982173 0.924376
vt 0.982173 0.951876
vt 0.982173 0.951876
vt 0.982173 0.951876
vt 0.982173 0.951876
vt 0.982173 0.951876
vt 0.982173 0.951876
vt 0.982173 0.988126
vt 0.982173 0.988126
vt 0.982173 0.988126
vt 0.982173 0.988126
vt 0.203423 0.605626
vt 0.203423 0.605626
vt 0.203423 0.605626
vt 0.203423 0.605626
vt 0.199673 0.548126
vt 0.199673 0.548126
vt 0.199673 0.548126
vt 0.199673 0.548126
vt 0.199673 0.548126
vt 0.199673 0.548126
vt 0.199673 0.548126
vt 0.199673 0.548126
vt 0.199673 0.548126
vt 0.199673 0.548126
vt 0.199673 0.548126
vt 0.199673 0.548126
vt 0.199673 0.548126
vt 0.199673 0.548126
vt 0.199673 0.548126
vt 0.199673 0.548126
vt 0.640265 0.828514
vt 0.640265 0.828514
vt 0.640265 0.828514
vt 0.640265 0.828514
vt 0.640265 0.828514
vt 0.640265 0.828514
vt 0.640265 0.828514
vt 0.640265 0.828514
vt 0.640265 0.828514
vt 0.640265 0.828514
vt 0.640265 0.828514
vt 0.640265 0.828514
vt 0.640265 0.828514
vt 0.640265 0.828514
vt 0.640265 0.828514
vt 0.640265 0.828514
vt 0.640265 0.828514
vt 0.640265 0.828514
vt 0.640265 0.828514
vt 0.640265 0.828514
vt 0.640265 0.828514
vt 0.640265 0.828514
vt 0.640265 0.828514
vt 0.640265 0.828514
vt 0.640265 0.828514
vt 0.640265 0.828514
vt 0.640265 0.828514
vt 0.640265 0.828514
vt 0.640265 0.828514
vt 0.640265 0.828514
vt 0.640265 0.828514
vt 0.640265 0.828514
vt 0.640265 0.828514
vt 0.640265 0.828514
vt 0.640265 0.828514
vt 0.640265 0.828514
vt 0.640265 0.828514
vt 0.640265 0.828514
vt 0.640265 0.828514
vt 0.640265 0.828514
vt 0.640265 0.828514
vt 0.640265 0.828514
vt 0.640265 0.828514
vt 0.640265 0.828514
vt 0.640265 0.828514
vt 0.640265 0.828514
vt 0.640265 0.828514
vt 0.640265 0.828514
vt 0.640265 0.828514
vt 0.640265 0.828514
vt 0.640265 0.828514
vt 0.640265 0.828514
vt 0.640265 0.828514
vt 0.640265 0.828514
vt 0.640265 0.828514
vt 0.640265 0.828514
vt 0.640265 0.828514
vt 0.640265 0.828514
vt 0.640265 0.828514
vt 0.640265 0.828514
vt 0.640265 0.828514
vt 0.640265 0.828514
vt 0.640265 0.828514
vt 0.640265 0.828514
vt 0.640265 0.828514
vt 0.640265 0.828514
vt 0.640265 0.828514
vt 0.640265 0.828514
vt 0.640265 0.828514
vt 0.640265 0.828514
vt 0.640265 0.828514
vt 0.640265 0.828514
vt 0.640265 0.828514
vt 0.640265 0.828514
vt 0.640265 0.828514
vt 0.201016 0.573829
vt 0.201016 0.57383
vt 0.201016 0.573829
vt 0.201016 0.573829
vt 0.201016 0.573829
vt 0.201016 0.573829
vt 0.201016 0.57383
vt 0.201016 0.57383
vt 0.201016 0.573829
vt 0.201016 0.573829
vt 0.201016 0.573829
vt 0.201016 0.573829
vt 0.201016 0.573829
vt 0.201016 0.57383
vt 0.201016 0.573829
vt 0.201016 0.573829
vt 0.201016 0.57383
vt 0.201016 0.573829
vt 0.201016 0.573829
vt 0.643957 0.829751
vt 0.643957 0.829751
vt 0.643957 0.829751
vt 0.643957 0.829751
vt 0.643957 0.829751
vt 0.643957 0.829751
vt 0.643957 0.829751
vt 0.643957 0.829751
vt 0.643957 0.829751
vt 0.643957 0.829751
vt 0.643957 0.829751
vt 0.643957 0.829751
vt 0.643957 0.829751
vt 0.643957 0.829751
vt 0.643957 0.829751
vt 0.643957 0.829751
vt 0.643957 0.829751
vt 0.643957 0.829751
vt 0.643957 0.829751
vt 0.643957 0.829751
vt 0.643957 0.829751
vt 0.643957 0.829751
vt 0.640265 0.828514
vt 0.640265 0.828514
vt 0.640265 0.828514
vt 0.640265 0.828514
vt 0.640265 0.828514
vt 0.640265 0.828514
vt 0.640265 0.828514
vt 0.640265 0.828514
vt 0.640265 0.828514
vt 0.640265 0.828514
vt 0.640265 0.828514
vt 0.640265 0.828514
vt 0.640265 0.828514
vt 0.640265 0.828514
vt 0.640265 0.828514
vt 0.640265 0.828514
vt 0.640265 0.828514
vt 0.640265 0.828514
vn 0 5.960465E-08 -1
vn 0 5.960465E-08 -1
vn 0 5.960465E-08 -1
vn 0 5.960465E-08 -1
vn 0 5.960465E-08 -1
vn 0 5.960465E-08 -1
vn 1 0 0
vn 1 0 0
vn 1 0 0
vn 1 0 0
vn 1 0 0
vn 1 0 0
vn 0 -5.960465E-08 1
vn 0 -5.960465E-08 1
vn 0 -5.960465E-08 1
vn 0 -5.960465E-08 1
vn 0 -5.960465E-08 1
vn 0 -5.960465E-08 1
vn -1 0 0
vn -1 0 0
vn -1 0 0
vn -1 0 0
vn -1 0 0
vn -1 0 0
vn 0 -1 -5.960465E-08
vn 0 -1 -5.960465E-08
vn 0 -1 -5.960465E-08
vn 0 -1 -5.960465E-08
vn 0 1 5.960465E-08
vn 0 1 5.960465E-08
vn 0 1 5.960465E-08
vn 0 1 5.960465E-08
vn 0 0.5176859 -0.8555707
vn 0 0.5176859 -0.8555707
vn 0 0.5176859 -0.8555707
vn 0 0.5176859 -0.8555707
vn 0.8555719 0.5176839 3.085637E-08
vn 0.8555719 0.5176839 3.085637E-08
vn 0.8555719 0.5176839 3.085637E-08
vn 0.8555719 0.5176839 3.085637E-08
vn 0 0.5176858 0.8555708
vn 0 0.5176858 0.8555708
vn 0 0.5176858 0.8555708
vn 0 0.5176858 0.8555708
vn -0.8555719 0.5176839 3.085637E-08
vn -0.8555719 0.5176839 3.085637E-08
vn -0.8555719 0.5176839 3.085637E-08
vn -0.8555719 0.5176839 3.085637E-08
vn -0.8660253 0.5000002 2.980234E-08
vn -0.8660253 0.5000002 2.980234E-08
vn -0.8660253 0.5000002 2.980234E-08
vn -0.8660253 0.5000002 2.980234E-08
vn 0 -5.960465E-08 1
vn 0 -5.960465E-08 1
vn 0 -5.960465E-08 1
vn 0 -5.960465E-08 1
vn 0 -5.960465E-08 1
vn 0 -5.960465E-08 1
vn 0 -5.960465E-08 1
vn 0 -5.960465E-08 1
vn 0 -5.960465E-08 1
vn 0 -5.960465E-08 1
vn 0 -5.960465E-08 1
vn 0 -5.960465E-08 1
vn 0 -5.960465E-08 1
vn 0 -5.960465E-08 1
vn 0 -5.960465E-08 1
vn 0 -1 -5.960465E-08
vn 0 -1 -5.960465E-08
vn 0 -1 -5.960465E-08
vn 0 -1 -5.960465E-08
vn 0.8660253 0.5000002 2.980234E-08
vn 0.8660253 0.5000002 2.980234E-08
vn 0.8660253 0.5000002 2.980234E-08
vn 0.8660253 0.5000002 2.980234E-08
vn 0.944544 0.3283849 1.957327E-08
vn 0.944544 0.3283849 1.957327E-08
vn 0.944544 0.3283849 1.957327E-08
vn 0.944544 0.3283849 1.957327E-08
vn 0.981661 -0.190635 -1.136273E-08
vn 0.981661 -0.190635 -1.136273E-08
vn 0.981661 -0.190635 -1.136273E-08
vn 0.981661 -0.190635 -1.136273E-08
vn 0.655925 -0.754826 -4.499114E-08
vn 0.655925 -0.754826 -4.499114E-08
vn 0.655925 -0.754826 -4.499114E-08
vn 0.655925 -0.754826 -4.499114E-08
vn 0.187884 -0.9821912 -5.854316E-08
vn 0.187884 -0.9821912 -5.854316E-08
vn 0.187884 -0.9821912 -5.854316E-08
vn 0.187884 -0.9821912 -5.854316E-08
vn 0.7566631 0.653805 3.896982E-08
vn 0.7566631 0.653805 3.896982E-08
vn 0.7566631 0.653805 3.896982E-08
vn 0.7566631 0.653805 3.896982E-08
vn 0.325736 0.9454608 5.635386E-08
vn 0.325736 0.9454608 5.635386E-08
vn 0.325736 0.9454608 5.635386E-08
vn 0.325736 0.9454608 5.635386E-08
vn -0.325736 0.9454608 5.635386E-08
vn -0.325736 0.9454608 5.635386E-08
vn -0.325736 0.9454608 5.635386E-08
vn -0.325736 0.9454608 5.635386E-08
vn -0.7566631 0.653805 3.896982E-08
vn -0.7566631 0.653805 3.896982E-08
vn -0.7566631 0.653805 3.896982E-08
vn -0.7566631 0.653805 3.896982E-08
vn -0.18788 -0.982192 -5.854321E-08
vn -0.18788 -0.982192 -5.854321E-08
vn -0.18788 -0.982192 -5.854321E-08
vn -0.18788 -0.982192 -5.854321E-08
vn -0.6559267 -0.7548246 -4.499106E-08
vn -0.6559267 -0.7548246 -4.499106E-08
vn -0.6559267 -0.7548246 -4.499106E-08
vn -0.6559267 -0.7548246 -4.499106E-08
vn -0.9816612 -0.190634 -1.136267E-08
vn -0.9816612 -0.190634 -1.136267E-08
vn -0.9816612 -0.190634 -1.136267E-08
vn -0.9816612 -0.190634 -1.136267E-08
vn -0.9445437 0.3283859 1.957332E-08
vn -0.9445437 0.3283859 1.957332E-08
vn -0.9445437 0.3283859 1.957332E-08
vn -0.9445437 0.3283859 1.957332E-08
vn 0 5.960465E-08 -1
vn 0 5.960465E-08 -1
vn 0 5.960465E-08 -1
vn 0 5.960465E-08 -1
vn 0 5.960465E-08 -1
vn 0 5.960465E-08 -1
vn 0 5.960465E-08 -1
vn 0 5.960465E-08 -1
vn 0 5.960465E-08 -1
vn 0 5.960465E-08 -1
vn 0 5.960465E-08 -1
vn 0 5.960465E-08 -1
vn 0 5.960465E-08 -1
vn 0 5.960465E-08 -1
vn 0 5.960465E-08 -1
vn 0 5.960465E-08 -1
vn 0 5.960465E-08 -1
vn 0 5.960465E-08 -1
vn 0 5.960465E-08 -1
vn 0 5.960465E-08 -1
vn 0 5.960465E-08 -1
vn 0 5.960465E-08 -1
vn 0 5.960465E-08 -1
vn 0 5.960465E-08 -1
vn 0 5.960465E-08 -1
vn 0 5.960465E-08 -1
vn 0 5.960465E-08 -1
vn 0 5.960465E-08 -1
vn 0 5.960465E-08 -1
vn 0 5.960465E-08 -1
vn 0 5.960465E-08 -1
vn 0 5.960465E-08 -1
vn 0 5.960465E-08 -1
vn 0 5.960465E-08 -1
vn 0 5.960465E-08 -1
vn 0 5.960465E-08 -1
vn 0 5.960465E-08 -1
vn 0 5.960465E-08 -1
vn 0 5.960465E-08 -1
vn 0 5.960465E-08 -1
vn 0 5.960465E-08 -1
vn 0 5.960465E-08 -1
vn 0 5.960465E-08 -1
vn 0 5.960465E-08 -1
vn 0 5.960465E-08 -1
vn 0 5.960465E-08 -1
vn 0 5.960465E-08 -1
vn 0 5.960465E-08 -1
vn 0 5.960465E-08 -1
vn 0 5.960465E-08 -1
vn 0 5.960465E-08 -1
vn 0 5.960465E-08 -1
vn 0 5.960465E-08 -1
vn 0 5.960465E-08 -1
vn 0 5.960465E-08 -1
vn 0 5.960465E-08 -1
vn 0 5.960465E-08 -1
vn 0 5.960465E-08 -1
vn 0 5.960465E-08 -1
g road_sign_attention_0
f 3/3/3 2/2/2 1/1/1
f 2/2/2 4/4/4 1/1/1
f 1/1/1 4/4/4 5/5/5
f 4/4/4 6/6/6 5/5/5
f 9/9/9 8/8/8 7/7/7
f 8/8/8 10/10/10 7/7/7
f 7/7/7 10/10/10 11/11/11
f 10/10/10 12/12/12 11/11/11
f 15/15/15 14/14/14 13/13/13
f 14/14/14 16/16/16 13/13/13
f 13/13/13 16/16/16 17/17/17
f 16/16/16 18/18/18 17/17/17
f 21/21/21 20/20/20 19/19/19
f 20/20/20 22/22/22 19/19/19
f 19/19/19 22/22/22 23/23/23
f 22/22/22 24/24/24 23/23/23
f 27/27/27 26/26/26 25/25/25
f 28/28/28 27/27/27 25/25/25
f 31/31/31 30/30/30 29/29/29
f 32/32/32 31/31/31 29/29/29
f 35/35/35 34/34/34 33/33/33
f 36/36/36 35/35/35 33/33/33
f 39/39/39 38/38/38 37/37/37
f 40/40/40 39/39/39 37/37/37
f 43/43/43 42/42/42 41/41/41
f 44/44/44 43/43/43 41/41/41
f 47/47/47 46/46/46 45/45/45
f 48/48/48 47/47/47 45/45/45
f 51/51/51 50/50/50 49/49/49
f 52/52/52 51/51/51 49/49/49
f 55/55/55 54/54/54 53/53/53
f 53/53/53 56/56/56 55/55/55
f 53/53/53 57/57/57 56/56/56
f 53/53/53 58/58/58 57/57/57
f 58/58/58 59/59/59 57/57/57
f 59/59/59 60/60/60 57/57/57
f 59/59/59 61/61/61 60/60/60
f 61/61/61 62/62/62 60/60/60
f 61/61/61 63/63/63 62/62/62
f 63/63/63 64/64/64 62/62/62
f 63/63/63 65/65/65 64/64/64
f 65/65/65 66/66/66 64/64/64
f 65/65/65 67/67/67 66/66/66
f 70/70/70 69/69/69 68/68/68
f 71/71/71 70/70/70 68/68/68
f 74/74/74 73/73/73 72/72/72
f 75/75/75 74/74/74 72/72/72
f 78/78/78 77/77/77 76/76/76
f 79/79/79 78/78/78 76/76/76
f 82/82/82 81/81/81 80/80/80
f 83/83/83 82/82/82 80/80/80
f 86/86/86 85/85/85 84/84/84
f 87/87/87 86/86/86 84/84/84
f 90/90/90 89/89/89 88/88/88
f 91/91/91 90/90/90 88/88/88
f 94/94/94 93/93/93 92/92/92
f 95/95/95 94/94/94 92/92/92
f 98/98/98 97/97/97 96/96/96
f 99/99/99 98/98/98 96/96/96
f 102/102/102 101/101/101 100/100/100
f 103/103/103 102/102/102 100/100/100
f 106/106/106 105/105/105 104/104/104
f 107/107/107 106/106/106 104/104/104
f 110/110/110 109/109/109 108/108/108
f 111/111/111 110/110/110 108/108/108
f 114/114/114 113/113/113 112/112/112
f 115/115/115 114/114/114 112/112/112
f 118/118/118 117/117/117 116/116/116
f 119/119/119 118/118/118 116/116/116
f 122/122/122 121/121/121 120/120/120
f 123/123/123 122/122/122 120/120/120
f 126/126/126 125/125/125 124/124/124
f 124/124/124 127/127/127 126/126/126
f 124/124/124 128/128/128 127/127/127
f 128/128/128 129/129/129 127/127/127
f 128/128/128 130/130/130 129/129/129
f 130/130/130 131/131/131 129/129/129
f 130/130/130 132/132/132 131/131/131
f 132/132/132 133/133/133 131/131/131
f 132/132/132 134/134/134 133/133/133
f 134/134/134 135/135/135 133/133/133
f 138/138/138 137/137/137 136/136/136
f 136/136/136 139/139/139 138/138/138
f 136/136/136 140/140/140 139/139/139
f 136/136/136 141/141/141 140/140/140
f 141/141/141 142/142/142 140/140/140
f 145/145/145 144/144/144 143/143/143
f 146/146/146 144/144/144 145/145/145
f 145/145/145 143/143/143 147/147/147
f 148/148/148 146/146/146 145/145/145
f 149/149/149 145/145/145 147/147/147
f 148/148/148 145/145/145 150/150/150
f 147/147/147 151/151/151 149/149/149
f 150/150/150 152/152/152 148/148/148
f 153/153/153 149/149/149 151/151/151
f 151/151/151 154/154/154 153/153/153
f 149/149/149 153/153/153 155/155/155
f 155/155/155 150/150/150 149/149/149
f 154/154/154 156/156/156 153/153/153
f 150/150/150 155/155/155 157/157/157
f 154/154/154 158/158/158 156/156/156
f 157/157/157 159/159/159 150/150/150
f 152/152/152 150/150/150 159/159/159
f 158/158/158 160/160/160 156/156/156
f 159/159/159 161/161/161 152/152/152
f 159/159/159 162/162/162 161/161/161
f 162/162/162 160/160/160 161/161/161
f 158/158/158 163/163/163 160/160/160
f 160/160/160 164/164/164 161/161/161
f 160/160/160 163/163/163 164/164/164
f 167/167/167 166/166/166 165/165/165
f 166/166/166 168/168/168 165/165/165
f 168/168/168 169/169/169 165/165/165
f 170/170/170 167/167/167 165/165/165
f 169/169/169 171/171/171 165/165/165
f 172/172/172 170/170/170 165/165/165
f 165/165/165 171/171/171 173/173/173
f 174/174/174 170/170/170 172/172/172
f 171/171/171 175/175/175 173/173/173
f 176/176/176 174/174/174 172/172/172
f 175/175/175 177/177/177 173/173/173
f 178/178/178 176/176/176 172/172/172
f 179/179/179 178/178/178 172/172/172
f 180/180/180 179/179/179 172/172/172
f 173/173/173 180/180/180 172/172/172
f 177/177/177 181/181/181 173/173/173
f 182/182/182 180/180/180 173/173/173
f 181/181/181 182/182/182 173/173/173
