g birch_tree_6_0
v -0.46807 4.61237 1.287847
v -1.133908 4.50991 0.8505082
v -0.823475 4.897225 0.9835103
v -0.873671 4.106318 1.114072
v -1.361161 4.226375 0.4871412
v -0.06247 5.118423 1.114071
v -0.513042 5.284543 0.8505082
v -1.17059 3.735861 0.6393092
v -1.444341 4.122592 -0.009228754
v 0.234449 5.488881 0.6393093
v -0.28579 5.568078 0.4871403
v -1.279271 3.600264 -0.009228785
v -1.361161 4.226375 -0.5055977
v 0.343129 5.624477 -0.009228664
v -0.20261 5.671858 -0.009228661
v -1.170591 3.735861 -0.6577668
v -1.133909 4.50991 -0.8689657
v 0.234449 5.488881 -0.6577666
v -0.28579 5.568079 -0.5055987
v -0.873672 4.106318 -1.13253
v -0.823476 4.897226 -1.001968
v -0.062471 5.118424 -1.13253
v -0.513043 5.284543 -0.8689656
v -0.468071 4.61237 -1.306305
v 0.829194 5.371857 -0.00922968
v 0.711559 5.225089 -0.7112017
v 0.390175 4.82411 -1.225081
v -0.048843 4.276361 -1.413174
v -0.487862 3.728613 -1.225081
v -0.809245 3.327633 -0.7112008
v 0.71156 5.225089 0.6927433
v -0.926879 3.180864 -0.00922881
v 0.390176 4.824109 1.206622
v -0.809245 3.327633 0.6927442
v -0.048842 4.276361 1.394715
v -0.487861 3.728613 1.206623
v 1.181587 4.952456 -0.009229704
v 1.072907 4.816861 0.6393082
v 0.775987 4.446404 1.114071
v 0.370387 3.940351 1.287847
v -0.035213 3.434297 1.114071
v -0.332133 3.06384 0.6393091
v 1.072906 4.816861 -0.6577677
v -0.440814 2.928244 -0.009228825
v 0.775986 4.446404 -1.13253
v -0.332134 3.06384 -0.6577668
v 0.370386 3.940351 -1.306306
v -0.035214 3.434297 -1.13253
v 1.263476 4.326347 -0.5055987
v 1.036223 4.042811 -0.8689667
v 0.72579 3.655495 -1.001969
v 0.415357 3.268178 -0.8689668
v 0.188105 2.984643 -0.5055988
v 0.104925 2.880862 -0.009228827
v 1.346656 4.430128 -0.009229735
v 0.188105 2.984643 0.4871401
v 1.263476 4.326346 0.4871402
v 0.415358 3.268179 0.8505081
v 1.036224 4.04281 0.8505072
v 0.725791 3.655495 0.9835092
v 1.254258 3.828223 -0.2778628
v 1.299275 3.884389 -0.009229768
v 1.254258 3.828223 0.2594032
v 1.13127 3.674775 0.4560562
v 1.046654 3.398324 -0.009229797
v 1.13127 3.674775 -0.4745158
v 0.963265 3.46516 0.5280372
v 0.79526 3.255546 0.4560572
v 0.963264 3.46516 -0.5464957
v 0.672271 3.102098 0.2594042
v 0.795259 3.255546 -0.4745158
v 0.627255 3.045932 -0.009229817
v 0.672271 3.102098 -0.2778628
v -1.361161 4.226375 0.4871412
v -1.444341 4.122592 -0.009228754
v -1.396959 4.668333 -0.009228721
v -1.351943 4.724499 0.2594043
v -1.133908 4.50991 0.8505082
v -1.351943 4.724499 -0.2778617
v -1.361161 4.226375 -0.5055977
v -1.228954 4.877946 0.4560573
v -0.823475 4.897225 0.9835103
v -1.144339 5.154397 -0.009228692
v -1.228955 4.877946 -0.4745147
v -1.060949 5.087561 0.5280373
v -1.133909 4.50991 -0.8689657
v -0.513042 5.284543 0.8505082
v -1.06095 5.087561 -0.5464947
v -0.823476 4.897226 -1.001968
v -0.892944 5.297174 0.4560573
v -0.28579 5.568078 0.4871403
v -0.892945 5.297174 -0.4745146
v -0.513043 5.284543 -0.8689656
v -0.769956 5.450624 0.2594043
v -0.20261 5.671858 -0.009228661
v -0.769957 5.450624 -0.2778617
v -0.28579 5.568079 -0.5055987
v -0.72494 5.506789 -0.009228671
v -0.00755 -0.179232 -0.117654
v 0.155703 -0.179232 -0.00673101
v 0.196105 -0.21129 -0.09765001
v 0.032852 -0.21129 -0.208573
v -0.118472 -0.179232 0.04559898
v -0.08045 -0.21129 -0.186948
v 0.125294 0.9240429 -0.07603994
v -0.037959 0.9240429 -0.1869629
v 0.21773 -0.21129 0.01565199
v 0.146919 0.9240429 0.03726205
v 0.106807 -0.21129 0.178905
v 0.04478 -0.179232 0.156522
v 0.035996 0.9240429 0.200515
v -0.191373 -0.21129 -0.02369501
v -0.169748 -0.21129 0.08960699
v -0.006496 -0.21129 0.20053
v -0.151261 0.9240429 -0.1653379
v -0.077306 0.9240429 0.22214
v -0.240559 0.9240429 0.1112171
v -0.262184 0.9240429 -0.002084945
v 0.1259 1.67009 0.0436771
v 0.014977 1.67009 0.2069291
v -0.098326 1.67009 0.2285541
v -0.261578 1.67009 0.1176311
v -0.283203 1.67009 0.004329099
v -0.17228 1.67009 -0.1589229
v 0.104275 1.67009 -0.0696259
v -0.058978 1.67009 -0.1805489
v 0.007671 2.357884 0.2091591
v -0.105631 2.357884 0.2307841
v -0.268884 2.357884 0.1198611
v 0.118594 2.357884 0.04590614
v -0.290509 2.357884 0.00655914
v 0.096969 2.357884 -0.06739586
v -0.066284 2.357884 -0.1783189
v -0.179586 2.357884 -0.1566938
v -0.261384 3.435183 -0.002329795
v 0.036796 3.435183 0.2002702
v 0.126093 3.435183 -0.07628479
v -0.239759 3.435183 0.1109732
v -0.150462 3.435183 -0.1655818
v -0.076507 3.435183 0.2218952
v 0.147718 3.435183 0.0370182
v -0.037159 3.435183 -0.1872078
v -0.117004 4.18265 -0.1757928
v -0.227927 4.18265 -0.01253975
v -0.206302 4.18265 0.1007622
v -0.043049 4.18265 0.2116852
v 0.070253 4.18265 0.1900602
v 0.181176 4.18265 0.02680725
v 0.159551 4.18265 -0.08649474
v -0.003702 4.18265 -0.1974177
v -0.045203 4.248714 -0.1312777
v -0.156126 4.248714 0.03197425
v 0.007127 4.248714 0.1428972
v 0.11805 4.248714 -0.02035474
vt 0.043721 0.856094
vt 0.043721 0.856094
vt 0.043721 0.856094
vt 0.043721 0.856094
vt 0.043721 0.856094
vt 0.043721 0.856094
vt 0.043721 0.856094
vt 0.043721 0.856094
vt 0.043721 0.856094
vt 0.043721 0.856094
vt 0.043721 0.856094
vt 0.043721 0.856094
vt 0.043721 0.856094
vt 0.043721 0.856094
vt 0.043721 0.856094
vt 0.043721 0.856094
vt 0.043721 0.856094
vt 0.043721 0.856094
vt 0.043721 0.856094
vt 0.043721 0.856094
vt 0.043721 0.856094
vt 0.043721 0.856094
vt 0.043721 0.856094
vt 0.043721 0.856094
vt 0.043721 0.856094
vt 0.043721 0.856094
vt 0.043721 0.856094
vt 0.043721 0.856094
vt 0.043721 0.856094
vt 0.043721 0.856094
vt 0.043721 0.856094
vt 0.043721 0.856094
vt 0.043721 0.856094
vt 0.043721 0.856094
vt 0.043721 0.856094
vt 0.043721 0.856094
vt 0.043721 0.856094
vt 0.043721 0.856094
vt 0.043721 0.856094
vt 0.043721 0.856094
vt 0.043721 0.856094
vt 0.043721 0.856094
vt 0.043721 0.856094
vt 0.043721 0.856094
vt 0.043721 0.856094
vt 0.043721 0.856094
vt 0.043721 0.856094
vt 0.043721 0.856094
vt 0.043721 0.856094
vt 0.043721 0.856094
vt 0.043721 0.856094
vt 0.043721 0.856094
vt 0.043721 0.856094
vt 0.043721 0.856094
vt 0.043721 0.856094
vt 0.043721 0.856094
vt 0.043721 0.856094
vt 0.043721 0.856094
vt 0.043721 0.856094
vt 0.043721 0.856094
vt 0.043721 0.856094
vt 0.043721 0.856094
vt 0.043721 0.856094
vt 0.043721 0.856094
vt 0.043721 0.856094
vt 0.043721 0.856094
vt 0.043721 0.856094
vt 0.043721 0.856094
vt 0.043721 0.856094
vt 0.043721 0.856094
vt 0.043721 0.856094
vt 0.043721 0.856094
vt 0.043721 0.856094
vt 0.045387 0.953291
vt 0.045387 0.953291
vt 0.045387 0.953291
vt 0.045387 0.953291
vt 0.045387 0.953291
vt 0.045387 0.953291
vt 0.045387 0.953291
vt 0.045387 0.953291
vt 0.045387 0.953291
vt 0.045387 0.953291
vt 0.045387 0.953291
vt 0.045387 0.953291
vt 0.045387 0.953291
vt 0.045387 0.953291
vt 0.045387 0.953291
vt 0.045387 0.953291
vt 0.045387 0.953291
vt 0.045387 0.953291
vt 0.045387 0.953291
vt 0.045387 0.953291
vt 0.045387 0.953291
vt 0.045387 0.953291
vt 0.045387 0.953291
vt 0.045387 0.953291
vt 0.045387 0.953291
vt 0.703985 0.761905
vt 0.703985 0.761905
vt 0.703985 0.761905
vt 0.703985 0.761905
vt 0.703985 0.761905
vt 0.703985 0.761905
vt 0.703985 0.761905
vt 0.703985 0.761905
vt 0.703985 0.761905
vt 0.703985 0.761905
vt 0.703985 0.761905
vt 0.703985 0.761905
vt 0.703985 0.761905
vt 0.703985 0.761905
vt 0.703985 0.761905
vt 0.703985 0.761905
vt 0.703985 0.761905
vt 0.703985 0.761905
vt 0.703985 0.761905
vt 0.703985 0.761905
vt 0.703985 0.761905
vt 0.703985 0.761905
vt 0.703985 0.761905
vt 0.703985 0.761905
vt 0.703985 0.761905
vt 0.703985 0.761905
vt 0.703985 0.761905
vt 0.703985 0.761905
vt 0.703985 0.761905
vt 0.703985 0.761905
vt 0.703985 0.761905
vt 0.703985 0.761905
vt 0.703985 0.761905
vt 0.703985 0.761905
vt 0.703985 0.761905
vt 0.703985 0.761905
vt 0.703985 0.761905
vt 0.703985 0.761905
vt 0.703985 0.761905
vt 0.703985 0.761905
vt 0.703985 0.761905
vt 0.703985 0.761905
vt 0.703985 0.761905
vt 0.703985 0.761905
vt 0.703985 0.761905
vt 0.703985 0.761905
vt 0.703985 0.761905
vt 0.703985 0.761905
vt 0.703985 0.761905
vt 0.703985 0.761905
vt 0.703985 0.761905
vt 0.703985 0.761905
vt 0.703985 0.761905
vt 0.703985 0.761905
vt 0.703985 0.761905
vt 0.703985 0.761905
vn -0.2900769 0.2324949 0.9283326
vn -0.7653718 0.1504389 0.6257589
vn -0.5394238 0.4323468 0.7225637
vn -0.580369 -0.129693 0.80396
vn -0.9307777 -0.055931 0.3612818
vn 0.0002159999 0.5946838 0.8039597
vn -0.3134771 0.7142541 0.6257581
vn -0.7928786 -0.3948328 0.4641667
vn -0.9913204 -0.131468 -7.836107E-09
vn 0.2127251 0.8598243 0.4641662
vn -0.148071 0.920625 0.3612821
vn -0.8706623 -0.4918812 -2.93184E-08
vn -0.930778 -0.05593097 -0.361281
vn 0.2905091 0.9568722 5.703403E-08
vn -0.087529 0.996162 5.937589E-08
vn -0.7928789 -0.3948329 -0.464166
vn -0.7653728 0.150439 -0.6257578
vn 0.2127251 0.8598244 -0.4641661
vn -0.1480711 0.9206253 -0.3612811
vn -0.5803701 -0.129693 -0.8039591
vn -0.5394249 0.4323469 -0.7225628
vn 0.0002159999 0.5946838 -0.8039597
vn -0.3134771 0.7142541 -0.6257581
vn -0.2900772 0.2324952 -0.9283325
vn 0.6254069 0.7802988 4.650944E-08
vn 0.5416179 0.6757589 -0.4999999
vn 0.3127031 0.3901502 -0.8660252
vn 0 5.960465E-08 -1
vn -0.3127041 -0.3901491 -0.8660253
vn -0.541619 -0.6757579 -0.5
vn 0.541618 0.6757589 0.5
vn -0.6254069 -0.7802988 -4.650944E-08
vn 0.3127033 0.3901492 0.8660256
vn -0.5416183 -0.6757584 0.5000002
vn 0 -5.960465E-08 1
vn -0.312703 -0.390149 0.8660258
vn 0.8706623 0.4918812 2.93184E-08
vn 0.7928789 0.3948329 0.464166
vn 0.5803701 0.129693 0.8039591
vn 0.2900769 -0.2324959 0.9283324
vn -0.0002159999 -0.5946838 0.8039597
vn -0.2127251 -0.8598244 0.4641661
vn 0.7928789 0.394833 -0.4641659
vn -0.2905079 -0.9568726 -5.703405E-08
vn 0.580369 0.129693 -0.80396
vn -0.2127251 -0.8598243 -0.4641662
vn 0.290076 -0.2324949 -0.9283329
vn -0.0002160001 -0.5946842 -0.8039594
vn 0.9307777 0.055931 -0.3612818
vn 0.7653723 -0.150439 -0.6257582
vn 0.5394242 -0.4323471 -0.7225632
vn 0.3134759 -0.7142548 -0.6257579
vn 0.1480711 -0.9206253 -0.3612812
vn 0.087529 -0.996162 -5.937589E-08
vn 0.9913204 0.131468 7.836107E-09
vn 0.1480711 -0.9206253 0.3612811
vn 0.930778 0.05593097 0.361281
vn 0.3134769 -0.7142546 0.6257576
vn 0.7653726 -0.15044 0.6257576
vn 0.5394249 -0.4323469 0.7225628
vn 0.9337055 -0.2936498 -0.2048509
vn 0.9680338 -0.2508199 -1.495003E-08
vn 0.9337057 -0.2936499 0.2048499
vn 0.8399188 -0.4106649 0.3548109
vn 0.7802989 -0.6254068 -3.727715E-08
vn 0.8399191 -0.410664 -0.3548111
vn 0.7118042 -0.5705092 0.4097
vn 0.5836899 -0.7303529 0.3548109
vn 0.7118039 -0.5705089 -0.4097009
vn 0.4899028 -0.8473676 0.2048499
vn 0.5836893 -0.7303533 -0.3548112
vn 0.455574 -0.8901979 -5.305994E-08
vn 0.4899028 -0.8473676 -0.20485
vn -0.9307777 -0.055931 0.3612818
vn -0.9913204 -0.131468 -7.836107E-09
vn -0.9680338 0.2508199 1.495003E-08
vn -0.9337057 0.2936499 0.2048499
vn -0.7653718 0.1504389 0.6257589
vn -0.9337057 0.2936499 -0.2048499
vn -0.930778 -0.05593097 -0.361281
vn -0.8399189 0.4106639 0.3548119
vn -0.5394238 0.4323468 0.7225637
vn -0.7802989 0.6254068 3.727715E-08
vn -0.8399191 0.4106641 -0.354811
vn -0.7118039 0.5705089 0.4097009
vn -0.7653728 0.150439 -0.6257578
vn -0.3134771 0.7142541 0.6257581
vn -0.7118047 0.5705088 -0.4096998
vn -0.5394249 0.4323469 -0.7225628
vn -0.5836899 0.7303529 0.354811
vn -0.148071 0.920625 0.3612821
vn -0.5836899 0.7303529 -0.3548109
vn -0.3134771 0.7142541 -0.6257581
vn -0.4899028 0.8473676 0.20485
vn -0.087529 0.996162 5.937589E-08
vn -0.489904 0.847367 -0.204849
vn -0.1480711 0.9206253 -0.3612811
vn -0.4555748 0.8901975 5.305991E-08
vn 0.04578499 -0.9496378 0.3099869
vn -0.38365 -0.9227259 0.03727694
vn 0.6183519 -0.5581209 -0.5533009
vn 0.199397 -0.523837 -0.828152
vn 0.345127 -0.935803 -0.07183406
vn -0.4702068 -0.5527167 -0.6880478
vn 0.8122541 0.162506 -0.5602099
vn 0.199378 -0.08495793 -0.9762328
vn 0.6736775 -0.7270874 -0.1322971
vn 0.9789803 -0.07689003 0.188906
vn 0.544863 -0.646589 0.5338979
vn -0.05852298 -0.8854058 -0.46112
vn 0.5576921 0.130764 0.8196831
vn -0.7586097 -0.5966516 -0.2617599
vn -0.662434 -0.605092 0.4416389
vn -0.2119471 -0.6450834 0.7341293
vn -0.5647251 0.1039591 -0.8187051
vn -0.15537 -0.1307501 0.9791653
vn -0.8946455 -0.02718104 0.4459492
vn -0.9475152 -0.06541499 -0.3129471
vn 0.9512156 0.04113896 0.3057719
vn 0.6328242 -0.008101049 0.7742532
vn -0.307643 0.01232494 0.951422
vn -0.77234 -0.03576004 0.6342019
vn -0.9519616 -0.04086796 -0.3034779
vn -0.6374691 -0.02380896 -0.770108
vn 0.7717517 0.004118036 -0.6359107
vn 0.283628 -0.05490795 -0.9573611
vn 0.6254679 -0.04497303 0.7789528
vn -0.190305 0.1111809 0.975409
vn -0.8087744 0.109024 0.5779253
vn 0.9510389 -0.01112602 0.3088709
vn -0.9679221 0.1127 -0.224556
vn 0.7747783 -0.04649397 -0.6305212
vn 0.3004039 0.01975405 -0.9536075
vn -0.634208 -0.03387895 -0.7724199
vn -0.9948887 0.03514399 -0.09466396
vn 0.4784633 -0.08408509 0.8740724
vn 0.8704103 -0.110614 -0.4797401
vn -0.8740337 -0.04185901 0.4840588
vn -0.4854352 -0.06849596 -0.8715853
vn -0.1955521 0.126046 0.9725594
vn 0.977502 0.07468799 0.19726
vn 0.207188 0.08988507 -0.9741631
vn -0.4694249 0.5229229 -0.7114717
vn -0.8202809 0.5431929 -0.1791109
vn -0.6910436 0.5449136 0.4748978
vn -0.1639521 0.5273203 0.8336985
vn 0.50142 0.5145879 0.695541
vn 0.8510309 0.4932079 0.180256
vn 0.7153861 0.4922901 -0.495856
vn 0.179571 0.509001 -0.8418268
vn -0.05008599 0.9598837 -0.2758889
vn -0.269502 0.961533 0.05313106
vn 0.05957502 0.9602474 0.2727192
vn 0.28175 0.9584518 -0.04457694
g birch_tree_6_0_0
f 3/3/3 2/2/2 1/1/1
f 2/2/2 4/4/4 1/1/1
f 2/2/2 5/5/5 4/4/4
f 3/3/3 1/1/1 6/6/6
f 7/7/7 3/3/3 6/6/6
f 5/5/5 8/8/8 4/4/4
f 5/5/5 9/9/9 8/8/8
f 7/7/7 6/6/6 10/10/10
f 11/11/11 7/7/7 10/10/10
f 9/9/9 12/12/12 8/8/8
f 9/9/9 13/13/13 12/12/12
f 11/11/11 10/10/10 14/14/14
f 15/15/15 11/11/11 14/14/14
f 13/13/13 16/16/16 12/12/12
f 13/13/13 17/17/17 16/16/16
f 15/15/15 14/14/14 18/18/18
f 19/19/19 15/15/15 18/18/18
f 17/17/17 20/20/20 16/16/16
f 17/17/17 21/21/21 20/20/20
f 19/19/19 18/18/18 22/22/22
f 23/23/23 19/19/19 22/22/22
f 21/21/21 23/23/23 24/24/24
f 21/21/21 24/24/24 20/20/20
f 23/23/23 22/22/22 24/24/24
f 14/14/14 10/10/10 25/25/25
f 18/18/18 14/14/14 26/26/26
f 14/14/14 25/25/25 26/26/26
f 22/22/22 18/18/18 27/27/27
f 18/18/18 26/26/26 27/27/27
f 24/24/24 22/22/22 28/28/28
f 22/22/22 27/27/27 28/28/28
f 20/20/20 24/24/24 29/29/29
f 24/24/24 28/28/28 29/29/29
f 16/16/16 20/20/20 30/30/30
f 20/20/20 29/29/29 30/30/30
f 10/10/10 31/31/31 25/25/25
f 10/10/10 6/6/6 31/31/31
f 16/16/16 30/30/30 32/32/32
f 12/12/12 16/16/16 32/32/32
f 6/6/6 33/33/33 31/31/31
f 6/6/6 1/1/1 33/33/33
f 12/12/12 32/32/32 34/34/34
f 8/8/8 12/12/12 34/34/34
f 1/1/1 35/35/35 33/33/33
f 1/1/1 4/4/4 35/35/35
f 4/4/4 8/8/8 36/36/36
f 8/8/8 34/34/34 36/36/36
f 4/4/4 36/36/36 35/35/35
f 25/25/25 31/31/31 37/37/37
f 31/31/31 33/33/33 38/38/38
f 31/31/31 38/38/38 37/37/37
f 33/33/33 35/35/35 39/39/39
f 33/33/33 39/39/39 38/38/38
f 35/35/35 36/36/36 40/40/40
f 35/35/35 40/40/40 39/39/39
f 36/36/36 34/34/34 41/41/41
f 36/36/36 41/41/41 40/40/40
f 34/34/34 32/32/32 42/42/42
f 34/34/34 42/42/42 41/41/41
f 25/25/25 37/37/37 43/43/43
f 26/26/26 25/25/25 43/43/43
f 32/32/32 44/44/44 42/42/42
f 32/32/32 30/30/30 44/44/44
f 26/26/26 43/43/43 45/45/45
f 27/27/27 26/26/26 45/45/45
f 30/30/30 46/46/46 44/44/44
f 30/30/30 29/29/29 46/46/46
f 27/27/27 45/45/45 47/47/47
f 28/28/28 27/27/27 47/47/47
f 29/29/29 28/28/28 48/48/48
f 29/29/29 48/48/48 46/46/46
f 28/28/28 47/47/47 48/48/48
f 43/43/43 37/37/37 49/49/49
f 45/45/45 43/43/43 50/50/50
f 43/43/43 49/49/49 50/50/50
f 47/47/47 45/45/45 51/51/51
f 45/45/45 50/50/50 51/51/51
f 48/48/48 47/47/47 52/52/52
f 47/47/47 51/51/51 52/52/52
f 46/46/46 48/48/48 53/53/53
f 48/48/48 52/52/52 53/53/53
f 44/44/44 46/46/46 54/54/54
f 46/46/46 53/53/53 54/54/54
f 37/37/37 55/55/55 49/49/49
f 37/37/37 38/38/38 55/55/55
f 44/44/44 54/54/54 56/56/56
f 42/42/42 44/44/44 56/56/56
f 38/38/38 57/57/57 55/55/55
f 38/38/38 39/39/39 57/57/57
f 42/42/42 56/56/56 58/58/58
f 41/41/41 42/42/42 58/58/58
f 39/39/39 59/59/59 57/57/57
f 39/39/39 40/40/40 59/59/59
f 40/40/40 41/41/41 60/60/60
f 41/41/41 58/58/58 60/60/60
f 40/40/40 60/60/60 59/59/59
f 49/49/49 55/55/55 61/61/61
f 55/55/55 57/57/57 62/62/62
f 55/55/55 62/62/62 61/61/61
f 57/57/57 59/59/59 63/63/63
f 57/57/57 63/63/63 62/62/62
f 59/59/59 60/60/60 64/64/64
f 59/59/59 64/64/64 63/63/63
f 62/62/62 63/63/63 65/65/65
f 61/61/61 62/62/62 65/65/65
f 63/63/63 64/64/64 65/65/65
f 66/66/66 61/61/61 65/65/65
f 49/49/49 61/61/61 66/66/66
f 64/64/64 67/67/67 65/65/65
f 60/60/60 67/67/67 64/64/64
f 60/60/60 58/58/58 67/67/67
f 50/50/50 49/49/49 66/66/66
f 58/58/58 68/68/68 67/67/67
f 67/67/67 68/68/68 65/65/65
f 58/58/58 56/56/56 68/68/68
f 50/50/50 66/66/66 69/69/69
f 69/69/69 66/66/66 65/65/65
f 51/51/51 50/50/50 69/69/69
f 56/56/56 70/70/70 68/68/68
f 68/68/68 70/70/70 65/65/65
f 56/56/56 54/54/54 70/70/70
f 51/51/51 69/69/69 71/71/71
f 71/71/71 69/69/69 65/65/65
f 52/52/52 51/51/51 71/71/71
f 54/54/54 72/72/72 70/70/70
f 70/70/70 72/72/72 65/65/65
f 54/54/54 53/53/53 72/72/72
f 52/52/52 71/71/71 73/73/73
f 73/73/73 71/71/71 65/65/65
f 72/72/72 73/73/73 65/65/65
f 53/53/53 73/73/73 72/72/72
f 53/53/53 52/52/52 73/73/73
f 76/76/76 75/75/75 74/74/74
f 77/77/77 76/76/76 74/74/74
f 77/77/77 74/74/74 78/78/78
f 76/76/76 79/79/79 75/75/75
f 79/79/79 80/80/80 75/75/75
f 81/81/81 77/77/77 78/78/78
f 81/81/81 78/78/78 82/82/82
f 83/83/83 76/76/76 77/77/77
f 83/83/83 79/79/79 76/76/76
f 83/83/83 77/77/77 81/81/81
f 83/83/83 84/84/84 79/79/79
f 79/79/79 84/84/84 80/80/80
f 83/83/83 81/81/81 85/85/85
f 85/85/85 81/81/81 82/82/82
f 84/84/84 86/86/86 80/80/80
f 85/85/85 82/82/82 87/87/87
f 84/84/84 88/88/88 86/86/86
f 83/83/83 88/88/88 84/84/84
f 88/88/88 89/89/89 86/86/86
f 90/90/90 85/85/85 87/87/87
f 83/83/83 85/85/85 90/90/90
f 90/90/90 87/87/87 91/91/91
f 88/88/88 92/92/92 89/89/89
f 83/83/83 92/92/92 88/88/88
f 92/92/92 93/93/93 89/89/89
f 94/94/94 90/90/90 91/91/91
f 83/83/83 90/90/90 94/94/94
f 94/94/94 91/91/91 95/95/95
f 92/92/92 96/96/96 93/93/93
f 83/83/83 96/96/96 92/92/92
f 96/96/96 97/97/97 93/93/93
f 98/98/98 95/95/95 97/97/97
f 98/98/98 94/94/94 95/95/95
f 83/83/83 94/94/94 98/98/98
f 83/83/83 98/98/98 96/96/96
f 96/96/96 98/98/98 97/97/97
f 101/101/101 100/100/100 99/99/99
f 102/102/102 101/101/101 99/99/99
f 103/103/103 99/99/99 100/100/100
f 104/104/104 102/102/102 99/99/99
f 99/99/99 103/103/103 104/104/104
f 105/105/105 101/101/101 102/102/102
f 106/106/106 102/102/102 104/104/104
f 106/106/106 105/105/105 102/102/102
f 107/107/107 100/100/100 101/101/101
f 105/105/105 108/108/108 101/101/101
f 108/108/108 107/107/107 101/101/101
f 107/107/107 109/109/109 100/100/100
f 110/110/110 103/103/103 100/100/100
f 109/109/109 110/110/110 100/100/100
f 108/108/108 111/111/111 107/107/107
f 111/111/111 109/109/109 107/107/107
f 103/103/103 112/112/112 104/104/104
f 103/103/103 110/110/110 113/113/113
f 112/112/112 103/103/103 113/113/113
f 109/109/109 114/114/114 110/110/110
f 110/110/110 114/114/114 113/113/113
f 115/115/115 104/104/104 112/112/112
f 115/115/115 106/106/106 104/104/104
f 116/116/116 114/114/114 109/109/109
f 111/111/111 116/116/116 109/109/109
f 117/117/117 113/113/113 114/114/114
f 116/116/116 117/117/117 114/114/114
f 118/118/118 112/112/112 113/113/113
f 118/118/118 115/115/115 112/112/112
f 117/117/117 118/118/118 113/113/113
f 108/108/108 119/119/119 111/111/111
f 111/111/111 120/120/120 116/116/116
f 119/119/119 120/120/120 111/111/111
f 116/116/116 121/121/121 117/117/117
f 120/120/120 121/121/121 116/116/116
f 117/117/117 122/122/122 118/118/118
f 121/121/121 122/122/122 117/117/117
f 118/118/118 123/123/123 115/115/115
f 122/122/122 123/123/123 118/118/118
f 115/115/115 124/124/124 106/106/106
f 123/123/123 124/124/124 115/115/115
f 125/125/125 119/119/119 108/108/108
f 105/105/105 125/125/125 108/108/108
f 106/106/106 126/126/126 105/105/105
f 124/124/124 126/126/126 106/106/106
f 126/126/126 125/125/125 105/105/105
f 120/120/120 127/127/127 121/121/121
f 121/121/121 128/128/128 122/122/122
f 127/127/127 128/128/128 121/121/121
f 122/122/122 129/129/129 123/123/123
f 128/128/128 129/129/129 122/122/122
f 119/119/119 130/130/130 120/120/120
f 130/130/130 127/127/127 120/120/120
f 123/123/123 131/131/131 124/124/124
f 129/129/129 131/131/131 123/123/123
f 125/125/125 132/132/132 119/119/119
f 132/132/132 130/130/130 119/119/119
f 126/126/126 133/133/133 125/125/125
f 133/133/133 132/132/132 125/125/125
f 124/124/124 134/134/134 126/126/126
f 131/131/131 134/134/134 124/124/124
f 134/134/134 133/133/133 126/126/126
f 135/135/135 131/131/131 129/129/129
f 134/134/134 131/131/131 135/135/135
f 127/127/127 136/136/136 128/128/128
f 136/136/136 127/127/127 130/130/130
f 132/132/132 137/137/137 130/130/130
f 137/137/137 132/132/132 133/133/133
f 138/138/138 129/129/129 128/128/128
f 138/138/138 135/135/135 129/129/129
f 134/134/134 139/139/139 133/133/133
f 139/139/139 134/134/134 135/135/135
f 136/136/136 140/140/140 128/128/128
f 140/140/140 138/138/138 128/128/128
f 141/141/141 136/136/136 130/130/130
f 137/137/137 141/141/141 130/130/130
f 142/142/142 137/137/137 133/133/133
f 139/139/139 142/142/142 133/133/133
f 139/139/139 135/135/135 143/143/143
f 144/144/144 135/135/135 138/138/138
f 135/135/135 144/144/144 143/143/143
f 138/138/138 140/140/140 145/145/145
f 145/145/145 144/144/144 138/138/138
f 146/146/146 140/140/140 136/136/136
f 140/140/140 146/146/146 145/145/145
f 136/136/136 141/141/141 147/147/147
f 147/147/147 146/146/146 136/136/136
f 148/148/148 141/141/141 137/137/137
f 141/141/141 148/148/148 147/147/147
f 137/137/137 142/142/142 149/149/149
f 149/149/149 148/148/148 137/137/137
f 150/150/150 142/142/142 139/139/139
f 143/143/143 150/150/150 139/139/139
f 142/142/142 150/150/150 149/149/149
f 143/143/143 144/144/144 151/151/151
f 143/143/143 151/151/151 150/150/150
f 144/144/144 145/145/145 152/152/152
f 145/145/145 146/146/146 152/152/152
f 144/144/144 152/152/152 151/151/151
f 146/146/146 147/147/147 153/153/153
f 146/146/146 153/153/153 152/152/152
f 147/147/147 148/148/148 153/153/153
f 152/152/152 153/153/153 151/151/151
f 154/154/154 149/149/149 150/150/150
f 148/148/148 149/149/149 154/154/154
f 151/151/151 154/154/154 150/150/150
f 148/148/148 154/154/154 153/153/153
f 153/153/153 154/154/154 151/151/151
