g desert_cactus_03
v -0.4940439 2.06944 -7.26324E-08
v -0.3493418 2.011988 -0.274884
v -0.2921035 3.491071 -0.349342
v -0.4940439 3.513967 -1.357747E-07
v -0.3493418 2.011988 0.2748839
v -0.2921035 3.491071 0.3493417
v -0.2791828 3.739572 -0.2791829
v 6.005227E-09 3.739572 -0.3948243
v 2.980232E-08 3.862629 -1.762915E-07
v 0.2791829 3.739572 -0.2791829
v 0.3948241 3.739572 -1.719309E-07
v 0.2791829 3.739572 0.2791826
v 4.052185E-08 3.739572 0.394824
v -0.3948241 3.739572 -1.499643E-07
v -0.2791828 3.739572 0.2791826
v -1.570065 1.95737 -2.366198E-08
v -1.513585 2.010602 -0.2838902
v -1.558232 2.542443 -0.3120446
v -1.625839 2.524762 5.107556E-08
v -1.513585 2.010602 0.28389
v -1.558232 2.542443 0.3120446
v -1.590903 2.931628 -0.332647
v -1.503578 2.872567 -0.3542214
v -1.330993 2.997262 -0.4227512
v -1.666652 2.939963 1.057662E-07
v -1.311117 3.079716 -0.3336553
v -1.090297 3.078186 -0.2625409
v -1.310425 3.180264 2.054597E-08
v -1.030455 3.083935 -9.865403E-09
v -1.090297 3.078186 0.2625408
v -1.531936 3.081246 -0.2625408
v -1.590903 2.931628 0.3326472
v -1.501441 2.875672 0.3648681
v -1.330993 2.997262 0.4227513
v -1.591721 3.087824 8.197277E-08
v -1.531936 3.081246 0.2625409
v -1.311117 3.079716 0.3336553
v -1.330993 2.997262 -0.4227512
v -1.503578 2.872567 -0.3542214
v -1.558232 2.542443 -0.3120446
v -1.284822 2.586324 -0.3977898
v -1.513585 2.010602 -0.2838902
v -1.031334 2.927751 -0.3326471
v -1.090297 3.078186 -0.2625409
v -1.030455 3.083935 -9.865403E-09
v -0.9555117 2.935035 -1.059556E-08
v -1.090297 3.078186 0.2625408
v -1.037107 2.635539 -0.3144228
v -1.031334 2.927751 0.3326471
v -1.330993 2.997262 0.4227513
v -0.97067 2.665187 -3.288771E-08
v -1.248885 2.117098 -0.3636786
v -1.037107 2.635539 0.3144226
v -1.044996 2.236217 -0.2895181
v -1.284822 2.586324 0.3977897
v -1.501441 2.875672 0.3648681
v -1.558232 2.542443 0.3120446
v -0.9913847 2.296425 -6.33511E-08
v -1.044996 2.236217 0.289518
v -1.248885 2.117098 0.3636785
v -1.513585 2.010602 0.28389
v -1.345452 1.683719 -0.2775218
v -1.173064 1.863712 -0.353541
v -0.9829248 2.071271 -0.2791703
v -0.9356907 2.130538 -7.450235E-08
v -0.9829247 2.071271 0.2791701
v -1.173064 1.863712 0.3535409
v -1.40098 1.63148 -2.998117E-08
v -1.570065 1.95737 -2.366198E-08
v -1.345452 1.683719 0.2775217
v -1.020786 1.594594 -0.274884
v -0.9197948 1.776302 -0.3493419
v -0.3493418 1.530551 -0.274884
v -0.8265153 2.004892 -0.274884
v -0.7824636 2.064193 -7.841484E-08
v -0.8265153 2.004892 0.2748839
v -0.9197948 1.776302 0.3493417
v -1.020786 1.594594 0.2748839
v -1.076409 1.541855 -4.066604E-08
v -0.3493418 1.799889 -0.3493419
v -0.3493418 2.011988 -0.274884
v -0.4940439 2.06944 -7.26324E-08
v -0.3493418 2.011988 0.2748839
v -0.4940439 1.4731 -4.656557E-08
v -0.3493418 1.799889 0.3493417
v -0.3493418 1.530551 0.2748839
v 0 2.06944 -0.494044
v 0 1.799889 -0.494044
v 3.769666E-09 3.513967 -0.4940441
v -0.2921035 3.491071 -0.349342
v 6.005227E-09 3.739572 -0.3948243
v 0.2791829 3.739572 -0.2791829
v 0.3493419 3.513967 -0.3493419
v 0.3948241 3.739572 -1.719309E-07
v 0.3493419 2.06944 -0.3493419
v 0.4940439 3.513967 -1.632614E-07
v 0.2791829 3.739572 0.2791826
v 0.3493419 3.513967 0.3493416
v 4.052185E-08 3.739572 0.394824
v 0.4940439 2.06944 -1.001192E-07
v 0.3493419 1.799889 -0.3493419
v 4.696036E-08 3.513967 0.4940438
v -0.2921035 3.491071 0.3493417
v 0.3493419 2.06944 0.3493417
v 5.960464E-08 2.06944 0.4940439
v 0.4940439 1.799889 -8.833673E-08
v 0 1.4731 -0.494044
v 0.3493419 1.799889 0.3493417
v 5.960464E-08 1.799889 0.4940439
v 0.3493419 1.4731 -0.3493418
v 0.4940439 1.4731 -7.405233E-08
v 5.960464E-08 1.4731 0.4940439
v 0.3493419 1.4731 0.3493417
v -0.3493418 0.2884822 -0.3493418
v 3.769666E-09 0.2884822 -0.4940439
v 0.3493419 0.2884822 -0.3493418
v 0.4940439 0.2884822 -2.227104E-08
v 0.3493419 0.2884822 0.3493418
v 4.696036E-08 0.2884822 0.4940439
v -0.4940439 0.2884822 5.21572E-09
v -0.3493418 0.2884822 0.3493418
v 0.2779709 0.1071505 -0.277971
v 0.3931102 0.1071505 -2.062509E-07
v 1.117587E-08 0.03296939 -1.974404E-07
v 2.999519E-09 0.1071505 -0.3931104
v 0.2779709 0.1071506 0.2779706
v -0.2779709 0.1071505 -0.2779711
v 3.73663E-08 0.1071506 0.39311
v -0.3931102 0.1071505 -1.843798E-07
v -0.2779709 0.1071506 0.2779707
vt 0.09954834 0.5615234
vt 0.09954834 0.5615234
vt 0.09954834 0.5615234
vt 0.09954834 0.5615234
vt 0.09954834 0.5615234
vt 0.09954834 0.5615234
vt 0.09954834 0.5615234
vt 0.09954834 0.5615234
vt 0.09954834 0.5615234
vt 0.09954834 0.5615234
vt 0.09954834 0.5615234
vt 0.09954834 0.5615234
vt 0.09954834 0.5615234
vt 0.09954834 0.5615234
vt 0.09954834 0.5615234
vt 0.09954834 0.5615234
vt 0.09954834 0.5615234
vt 0.09954834 0.5615234
vt 0.09954834 0.5615234
vt 0.09954834 0.5615234
vt 0.09954834 0.5615234
vt 0.09954834 0.5615234
vt 0.09954834 0.5615234
vt 0.09954834 0.5615234
vt 0.09954834 0.5615234
vt 0.09954834 0.5615234
vt 0.09954834 0.5615234
vt 0.09954834 0.5615234
vt 0.09954834 0.5615234
vt 0.09954834 0.5615234
vt 0.09954834 0.5615234
vt 0.09954834 0.5615234
vt 0.09954834 0.5615234
vt 0.09954834 0.5615234
vt 0.09954834 0.5615234
vt 0.09954834 0.5615234
vt 0.09954834 0.5615234
vt 0.3598633 0.5615234
vt 0.3598633 0.5615234
vt 0.3598633 0.5615234
vt 0.3598633 0.5615234
vt 0.3598633 0.5615234
vt 0.3598633 0.5615234
vt 0.3598633 0.5615234
vt 0.3598633 0.5615234
vt 0.3598633 0.5615234
vt 0.3598633 0.5615234
vt 0.3598633 0.5615234
vt 0.3598633 0.5615234
vt 0.3598633 0.5615234
vt 0.3598633 0.5615234
vt 0.3598633 0.5615234
vt 0.3598633 0.5615234
vt 0.3598633 0.5615234
vt 0.3598633 0.5615234
vt 0.3598633 0.5615234
vt 0.3598633 0.5615234
vt 0.3598633 0.5615234
vt 0.3598633 0.5615234
vt 0.3598633 0.5615234
vt 0.3598633 0.5615234
vt 0.3598633 0.5615234
vt 0.3598633 0.5615234
vt 0.3598633 0.5615234
vt 0.3598633 0.5615234
vt 0.3598633 0.5615234
vt 0.3598633 0.5615234
vt 0.3598633 0.5615234
vt 0.3598633 0.5615234
vt 0.3598633 0.5615234
vt 0.3598633 0.5615234
vt 0.3598633 0.5615234
vt 0.3598633 0.5615234
vt 0.3598633 0.5615234
vt 0.3598633 0.5615234
vt 0.3598633 0.5615234
vt 0.3598633 0.5615234
vt 0.3598633 0.5615234
vt 0.3598633 0.5615234
vt 0.3598633 0.5615234
vt 0.3598633 0.5615234
vt 0.3598633 0.5615234
vt 0.3598633 0.5615234
vt 0.3598633 0.5615234
vt 0.3598633 0.5615234
vt 0.3598633 0.5615234
vt 0.3598633 0.5615234
vt 0.3598633 0.5615234
vt 0.3598633 0.5615234
vt 0.3598633 0.5615234
vt 0.3598633 0.5615234
vt 0.3598633 0.5615234
vt 0.3598633 0.5615234
vt 0.3598633 0.5615234
vt 0.3598633 0.5615234
vt 0.3598633 0.5615234
vt 0.3598633 0.5615234
vt 0.3598633 0.5615234
vt 0.3598633 0.5615234
vt 0.3598633 0.5615234
vt 0.3598633 0.5615234
vt 0.3598633 0.5615234
vt 0.3598633 0.5615234
vt 0.3598633 0.5615234
vt 0.3598633 0.5615234
vt 0.3598633 0.5615234
vt 0.3598633 0.5615234
vt 0.3598633 0.5615234
vt 0.3598633 0.5615234
vt 0.3598633 0.5615234
vt 0.3598633 0.5615234
vt 0.3598633 0.5615234
vt 0.3598633 0.5615234
vt 0.359375 0.5610352
vt 0.359375 0.5610352
vt 0.359375 0.5610352
vt 0.359375 0.5610352
vt 0.359375 0.5610352
vt 0.359375 0.5610352
vt 0.359375 0.5610352
vt 0.359375 0.5610352
vt 0.359375 0.5610352
vt 0.359375 0.5610352
vt 0.359375 0.5610352
vt 0.359375 0.5610352
vt 0.359375 0.5610352
vt 0.359375 0.5610352
vt 0.359375 0.5610352
vt 0.359375 0.5610352
vt 0.359375 0.5610352
vn -0.6152344 0.7885742 0
vn -0.4558105 0.300293 -0.8378906
vn -0.6801758 0.142334 -0.7192383
vn -0.9887695 0.151001 0
vn -0.4558105 0.300293 0.8378906
vn -0.6801758 0.142334 0.7192383
vn -0.5336914 0.6484375 -0.5424805
vn -0.01855469 0.6889648 -0.7246094
vn 0 1 0
vn 0.5063477 0.6977539 -0.5063477
vn 0.7163086 0.6977539 0
vn 0.5063477 0.6977539 0.5063477
vn -0.01855469 0.6889648 0.7246094
vn -0.7539063 0.6572266 0
vn -0.5336914 0.6484375 0.5424805
vn -0.9545898 -0.2971191 0
vn -0.7211914 -0.2186279 -0.6572266
vn -0.7275391 -0.1018677 -0.6787109
vn -0.9951172 -0.09655762 0
vn -0.7211914 -0.2186279 0.6572266
vn -0.7270508 -0.1051636 0.6787109
vn -0.7304688 0.2015381 -0.6523438
vn -0.2958984 -0.08612061 -0.9511719
vn -0.04116821 0.3325195 -0.9423828
vn -0.9833984 0.182251 0
vn -0.01281738 0.8251953 -0.5649414
vn 0.5166016 0.7431641 -0.4248047
vn 0.00692749 1 0
vn 0.6835938 0.7299805 0
vn 0.5166016 0.7431641 0.4248047
vn -0.5068359 0.7602539 -0.40625
vn -0.7421875 0.2154541 0.6347656
vn -0.3254395 -0.05609131 0.9438477
vn -0.03811646 0.3369141 0.940918
vn -0.6777344 0.7353516 0
vn -0.5068359 0.7602539 0.40625
vn -0.01281738 0.8251953 0.5649414
vn -0.04116821 0.3325195 -0.9423828
vn -0.2958984 -0.08612061 -0.9511719
vn -0.7275391 -0.1018677 -0.6787109
vn 0.02380371 -0.06774902 -0.9975586
vn -0.7211914 -0.2186279 -0.6572266
vn 0.7241211 0.2042236 -0.6586914
vn 0.5166016 0.7431641 -0.4248047
vn 0.6835938 0.7299805 0
vn 0.9785156 0.2055664 0
vn 0.5166016 0.7431641 0.4248047
vn 0.7490234 -0.05136108 -0.6606445
vn 0.7241211 0.2042236 0.6586914
vn -0.03811646 0.3369141 0.940918
vn 0.9990234 -0.04385376 0
vn 0.01208496 -0.05184937 -0.9985352
vn 0.7490234 -0.05136108 0.6606445
vn 0.7163086 0.07659912 -0.6938477
vn 0.03027344 -0.07122803 0.9970703
vn -0.3254395 -0.05609131 0.9438477
vn -0.7270508 -0.1051636 0.6787109
vn 0.9921875 0.1240845 0
vn 0.7163086 0.07659912 0.6938477
vn 0.01208496 -0.05184937 0.9985352
vn -0.7211914 -0.2186279 0.6572266
vn -0.4782715 -0.6010742 -0.6401367
vn -0.03909302 -0.09381104 -0.9946289
vn 0.482666 0.4133301 -0.7719727
vn 0.7402344 0.6728516 0
vn 0.482666 0.4133301 0.7719727
vn -0.0390625 -0.09381104 0.9946289
vn -0.6352539 -0.7724609 0
vn -0.9545898 -0.2971191 0
vn -0.4782715 -0.6010742 0.6401367
vn -0.1335449 -0.7407227 -0.6582031
vn 0.005096436 -0.05380249 -0.9985352
vn -0.4785156 -0.2819824 -0.831543
vn 0.1365967 0.6826172 -0.7182617
vn 0.1794434 0.9838867 0
vn 0.1365967 0.6826172 0.7182617
vn 0.005096436 -0.05380249 0.9985352
vn -0.1335449 -0.7407227 0.6582031
vn -0.1936035 -0.980957 0
vn -0.2607422 0.01422119 -0.965332
vn -0.4558105 0.300293 -0.8378906
vn -0.6152344 0.7885742 0
vn -0.4558105 0.300293 0.8378906
vn -0.6816406 -0.7319336 0
vn -0.2607422 0.01422119 0.965332
vn -0.4785156 -0.2819824 0.831543
vn -0.05429077 0.03042603 -0.9980469
vn -0.04638672 0.007049561 -0.9990234
vn -0.05130005 0.1972656 -0.9790039
vn -0.6801758 0.142334 -0.7192383
vn -0.01855469 0.6889648 -0.7246094
vn 0.5063477 0.6977539 -0.5063477
vn 0.6933594 0.1962891 -0.6933594
vn 0.7163086 0.6977539 0
vn 0.7070313 0 -0.7070313
vn 0.9804688 0.1962891 0
vn 0.5063477 0.6977539 0.5063477
vn 0.6933594 0.1962891 0.6933594
vn -0.01855469 0.6889648 0.7246094
vn 1 0 0
vn 0.7070313 0 -0.7070313
vn -0.05130005 0.1972656 0.9790039
vn -0.6801758 0.142334 0.7192383
vn 0.7070313 0 0.7070313
vn -0.05429077 0.03042603 0.9980469
vn 1 0 0
vn -0.04428101 -0.0194397 -0.9990234
vn 0.7070313 0 0.7070313
vn -0.04638672 0.007049561 0.9990234
vn 0.7070313 0 -0.7070313
vn 1 0 0
vn -0.04428101 -0.0194397 0.9990234
vn 0.7070313 0 0.7070313
vn -0.6943359 -0.2247314 -0.6835938
vn -0.02304077 -0.2322998 -0.972168
vn 0.6870117 -0.2375488 -0.6870117
vn 0.9711914 -0.2375488 0
vn 0.6870117 -0.2375488 0.6870117
vn -0.02304077 -0.2322998 0.972168
vn -0.9726563 -0.2325439 0
vn -0.6943359 -0.2247314 0.6835938
vn 0.4567871 -0.7631836 -0.4567871
vn 0.6459961 -0.7631836 0
vn 0 -1 0
vn 0 -0.7631836 -0.6459961
vn 0.4567871 -0.7631836 0.4567871
vn -0.4567871 -0.7631836 -0.4567871
vn 0 -0.7631836 0.6459961
vn -0.6459961 -0.7631836 0
vn -0.4567871 -0.7631836 0.4567871
g desert_cactus_03_0
f 3/3/3 2/2/2 1/1/1
f 4/4/4 3/3/3 1/1/1
f 4/4/4 1/1/1 5/5/5
f 6/6/6 4/4/4 5/5/5
f 7/7/7 3/3/3 4/4/4
f 7/7/7 8/8/8 3/3/3
f 9/9/9 8/8/8 7/7/7
f 9/9/9 10/10/10 8/8/8
f 9/9/9 11/11/11 10/10/10
f 9/9/9 12/12/12 11/11/11
f 9/9/9 13/13/13 12/12/12
f 14/14/14 7/7/7 4/4/4
f 14/14/14 4/4/4 6/6/6
f 9/9/9 7/7/7 14/14/14
f 9/9/9 15/15/15 13/13/13
f 15/15/15 6/6/6 13/13/13
f 15/15/15 14/14/14 6/6/6
f 9/9/9 14/14/14 15/15/15
f 18/18/18 17/17/17 16/16/16
f 19/19/19 18/18/18 16/16/16
f 19/19/19 16/16/16 20/20/20
f 21/21/21 19/19/19 20/20/20
f 22/22/22 18/18/18 19/19/19
f 22/22/22 23/23/23 18/18/18
f 24/24/24 23/23/23 22/22/22
f 25/25/25 19/19/19 21/21/21
f 25/25/25 22/22/22 19/19/19
f 26/26/26 24/24/24 22/22/22
f 24/24/24 26/26/26 27/27/27
f 28/28/28 27/27/27 26/26/26
f 28/28/28 29/29/29 27/27/27
f 28/28/28 30/30/30 29/29/29
f 31/31/31 26/26/26 22/22/22
f 31/31/31 22/22/22 25/25/25
f 28/28/28 26/26/26 31/31/31
f 32/32/32 25/25/25 21/21/21
f 21/21/21 33/33/33 32/32/32
f 32/32/32 33/33/33 34/34/34
f 35/35/35 31/31/31 25/25/25
f 35/35/35 25/25/25 32/32/32
f 28/28/28 31/31/31 35/35/35
f 36/36/36 35/35/35 32/32/32
f 36/36/36 32/32/32 34/34/34
f 28/28/28 35/35/35 36/36/36
f 28/28/28 37/37/37 30/30/30
f 37/37/37 34/34/34 30/30/30
f 37/37/37 36/36/36 34/34/34
f 28/28/28 36/36/36 37/37/37
f 40/40/40 39/39/39 38/38/38
f 41/41/41 40/40/40 38/38/38
f 40/40/40 41/41/41 42/42/42
f 38/38/38 43/43/43 41/41/41
f 44/44/44 43/43/43 38/38/38
f 44/44/44 45/45/45 43/43/43
f 45/45/45 46/46/46 43/43/43
f 45/45/45 47/47/47 46/46/46
f 43/43/43 48/48/48 41/41/41
f 43/43/43 46/46/46 48/48/48
f 47/47/47 49/49/49 46/46/46
f 47/47/47 50/50/50 49/49/49
f 46/46/46 49/49/49 51/51/51
f 46/46/46 51/51/51 48/48/48
f 41/41/41 48/48/48 52/52/52
f 41/41/41 52/52/52 42/42/42
f 49/49/49 50/50/50 53/53/53
f 49/49/49 53/53/53 51/51/51
f 48/48/48 51/51/51 54/54/54
f 48/48/48 54/54/54 52/52/52
f 50/50/50 55/55/55 53/53/53
f 50/50/50 56/56/56 55/55/55
f 56/56/56 57/57/57 55/55/55
f 51/51/51 53/53/53 58/58/58
f 51/51/51 58/58/58 54/54/54
f 53/53/53 55/55/55 59/59/59
f 53/53/53 59/59/59 58/58/58
f 55/55/55 57/57/57 60/60/60
f 55/55/55 60/60/60 59/59/59
f 57/57/57 61/61/61 60/60/60
f 62/62/62 42/42/42 52/52/52
f 63/63/63 52/52/52 54/54/54
f 63/63/63 62/62/62 52/52/52
f 54/54/54 58/58/58 64/64/64
f 64/64/64 63/63/63 54/54/54
f 58/58/58 59/59/59 65/65/65
f 58/58/58 65/65/65 64/64/64
f 66/66/66 59/59/59 60/60/60
f 59/59/59 66/66/66 65/65/65
f 67/67/67 60/60/60 61/61/61
f 67/67/67 66/66/66 60/60/60
f 62/62/62 68/68/68 42/42/42
f 68/68/68 69/69/69 42/42/42
f 70/70/70 61/61/61 69/69/69
f 70/70/70 67/67/67 61/61/61
f 68/68/68 70/70/70 69/69/69
f 71/71/71 62/62/62 63/63/63
f 72/72/72 63/63/63 64/64/64
f 72/72/72 71/71/71 63/63/63
f 71/71/71 72/72/72 73/73/73
f 64/64/64 65/65/65 74/74/74
f 74/74/74 72/72/72 64/64/64
f 65/65/65 66/66/66 75/75/75
f 65/65/65 75/75/75 74/74/74
f 76/76/76 66/66/66 67/67/67
f 66/66/66 76/76/76 75/75/75
f 77/77/77 67/67/67 70/70/70
f 77/77/77 76/76/76 67/67/67
f 78/78/78 70/70/70 68/68/68
f 78/78/78 77/77/77 70/70/70
f 79/79/79 68/68/68 62/62/62
f 71/71/71 79/79/79 62/62/62
f 79/79/79 78/78/78 68/68/68
f 72/72/72 74/74/74 80/80/80
f 72/72/72 80/80/80 73/73/73
f 74/74/74 75/75/75 81/81/81
f 74/74/74 81/81/81 80/80/80
f 75/75/75 76/76/76 82/82/82
f 75/75/75 82/82/82 81/81/81
f 76/76/76 83/83/83 82/82/82
f 76/76/76 77/77/77 83/83/83
f 79/79/79 71/71/71 84/84/84
f 71/71/71 73/73/73 84/84/84
f 77/77/77 78/78/78 85/85/85
f 77/77/77 85/85/85 83/83/83
f 78/78/78 79/79/79 86/86/86
f 79/79/79 84/84/84 86/86/86
f 78/78/78 86/86/86 85/85/85
f 81/81/81 87/87/87 80/80/80
f 80/80/80 88/88/88 73/73/73
f 87/87/87 88/88/88 80/80/80
f 89/89/89 87/87/87 81/81/81
f 90/90/90 89/89/89 81/81/81
f 89/89/89 90/90/90 91/91/91
f 91/91/91 92/92/92 89/89/89
f 92/92/92 93/93/93 89/89/89
f 89/89/89 93/93/93 87/87/87
f 92/92/92 94/94/94 93/93/93
f 93/93/93 95/95/95 87/87/87
f 87/87/87 95/95/95 88/88/88
f 94/94/94 96/96/96 93/93/93
f 93/93/93 96/96/96 95/95/95
f 94/94/94 97/97/97 96/96/96
f 97/97/97 98/98/98 96/96/96
f 97/97/97 99/99/99 98/98/98
f 96/96/96 100/100/100 95/95/95
f 96/96/96 98/98/98 100/100/100
f 95/95/95 101/101/101 88/88/88
f 95/95/95 100/100/100 101/101/101
f 99/99/99 102/102/102 98/98/98
f 99/99/99 103/103/103 102/102/102
f 98/98/98 104/104/104 100/100/100
f 98/98/98 102/102/102 104/104/104
f 102/102/102 103/103/103 105/105/105
f 102/102/102 105/105/105 104/104/104
f 103/103/103 83/83/83 105/105/105
f 100/100/100 104/104/104 106/106/106
f 100/100/100 106/106/106 101/101/101
f 88/88/88 101/101/101 107/107/107
f 88/88/88 107/107/107 73/73/73
f 104/104/104 105/105/105 108/108/108
f 104/104/104 108/108/108 106/106/106
f 105/105/105 83/83/83 109/109/109
f 105/105/105 109/109/109 108/108/108
f 83/83/83 85/85/85 109/109/109
f 101/101/101 106/106/106 110/110/110
f 101/101/101 110/110/110 107/107/107
f 106/106/106 108/108/108 111/111/111
f 106/106/106 111/111/111 110/110/110
f 109/109/109 85/85/85 112/112/112
f 85/85/85 86/86/86 112/112/112
f 108/108/108 109/109/109 113/113/113
f 108/108/108 113/113/113 111/111/111
f 109/109/109 112/112/112 113/113/113
f 73/73/73 107/107/107 114/114/114
f 107/107/107 110/110/110 115/115/115
f 107/107/107 115/115/115 114/114/114
f 110/110/110 111/111/111 116/116/116
f 110/110/110 116/116/116 115/115/115
f 111/111/111 113/113/113 117/117/117
f 111/111/111 117/117/117 116/116/116
f 113/113/113 112/112/112 118/118/118
f 113/113/113 118/118/118 117/117/117
f 112/112/112 86/86/86 119/119/119
f 112/112/112 119/119/119 118/118/118
f 73/73/73 114/114/114 120/120/120
f 84/84/84 73/73/73 120/120/120
f 86/86/86 84/84/84 121/121/121
f 86/86/86 121/121/121 119/119/119
f 84/84/84 120/120/120 121/121/121
f 116/116/116 122/122/122 115/115/115
f 117/117/117 123/123/123 116/116/116
f 123/123/123 122/122/122 116/116/116
f 123/123/123 124/124/124 122/122/122
f 122/122/122 125/125/125 115/115/115
f 115/115/115 125/125/125 114/114/114
f 122/122/122 124/124/124 125/125/125
f 126/126/126 123/123/123 117/117/117
f 126/126/126 124/124/124 123/123/123
f 118/118/118 126/126/126 117/117/117
f 125/125/125 127/127/127 114/114/114
f 114/114/114 127/127/127 120/120/120
f 125/125/125 124/124/124 127/127/127
f 128/128/128 126/126/126 118/118/118
f 128/128/128 124/124/124 126/126/126
f 119/119/119 128/128/128 118/118/118
f 127/127/127 129/129/129 120/120/120
f 127/127/127 124/124/124 129/129/129
f 120/120/120 129/129/129 121/121/121
f 130/130/130 128/128/128 119/119/119
f 130/130/130 124/124/124 128/128/128
f 121/121/121 130/130/130 119/119/119
f 129/129/129 130/130/130 121/121/121
f 129/129/129 124/124/124 130/130/130
