g desert_cactus_02
v -0.6916663 3.9389 -0.1081497
v -1.380156 3.650663 -0.1961966
v -1.366259 3.894994 -0.2578605
v -0.7227004 4.007052 -0.5181245
v -0.6916663 3.9389 -0.1081497
v -1.366259 3.894994 -0.2578605
v -1.382849 3.970825 -0.5320701
v -1.521531 3.789103 -0.3446687
v -1.532183 3.837793 -0.520733
v -1.577618 3.599143 -0.5172837
v -1.407845 3.894994 -0.8056417
v -1.530453 3.632223 -0.3050754
v -1.380156 3.650663 -0.1961966
v -1.548232 3.789103 -0.6963876
v -1.430892 3.650663 -0.864501
v -1.538408 3.384681 -0.3518873
v -1.392545 3.265132 -0.2691031
v -1.56303 3.632223 -0.7341801
v -1.432133 3.265131 -0.7905595
v -1.554621 3.343339 -0.5190295
v -1.417796 3.200744 -0.529417
v -1.563827 3.384681 -0.6867037
v -1.430892 3.650663 -0.864501
v -1.163507 3.905334 -0.7878068
v -1.407845 3.894994 -0.8056417
v -1.382849 3.970825 -0.5320701
v -0.7227004 4.007052 -0.5181245
v 1.879855 4.388532 0.418493
v 1.765262 4.195603 0.3886532
v 1.540034 3.365376 0.3172343
v 1.787035 3.265998 0.3705172
v 2.054309 4.392667 0.6071211
v 1.944146 3.183533 0.5501811
v 1.983546 4.39454 0.8806691
v 1.880585 3.0876 0.8274514
v 1.80131 4.392667 1.096599
v 1.691147 3.183533 1.039659
v 1.546534 4.388532 1.063369
v 1.453715 3.265998 1.015393
v 1.437082 4.247032 0.967262
v 1.267398 3.365376 0.8447041
v 1.448543 3.212059 0.2699444
v 1.698716 2.979985 0.3248672
v 1.797451 2.808211 0.4743579
v 1.735673 2.71259 0.7525497
v 1.544452 2.808211 0.9638355
v 1.365396 2.979985 0.969743
v 1.260799 3.322174 0.507099
v 1.352169 3.475422 0.5543255
v 1.175906 3.212059 0.797414
v 1.296531 3.150723 0.1913732
v 1.47489 2.879396 0.2091768
v 0.5341129 3.22257 -0.303687
v 1.502292 2.631857 0.3217975
v 1.441823 2.535493 0.6006655
v 1.249293 2.631857 0.8112751
v 1.141569 2.879396 0.8540526
v 0.176625 2.656482 0.3663773
v 1.109455 3.259538 0.4288727
v 1.023894 3.150723 0.7188429
v 0.5685241 2.895283 -0.3881226
v 0.5183377 2.549361 0.1233384
v 0.5189859 2.656482 -0.2959884
v 0.540334 3.325651 0.1347077
v 0.1301114 2.895283 0.4600746
v 0.179093 3.22257 0.3831701
v 0.2352237 2.895283 -0.7829965
v 0.2313595 2.549361 -0.7776943
v 0.4998417 0.2968116 -0.3669609
v 0.4608934 0.2968116 0.09364691
v 0.2016836 0.2968116 -0.7202006
v 0.177453 3.618676 0.4145721
v 0.555882 3.666352 0.1427441
v -0.3940149 3.325651 0.4322972
v -0.3847856 2.895283 0.4165356
v -0.4020513 3.666352 0.4478453
v 0.1076538 0.2968117 0.3918053
v -0.3826949 2.549361 0.4103167
v 0.3738127 0.1047572 0.04863663
v 0.0779053 0.1047572 0.2984027
v -0.07563522 0.0349192 -0.1836722
v 0.4064395 0.1047572 -0.3372126
v -0.3079441 0.1047572 0.2657757
v 0.1566736 0.1047572 -0.6331202
v -0.3529541 0.2968117 0.3528568
v -0.2589244 0.2968116 -0.759149
v -0.2291758 0.1047572 -0.665747
v -0.5577101 0.1047572 -0.03013168
v -0.278592 2.549361 -0.820815
v -0.6121639 0.2968116 -0.4609906
v -0.5250831 0.1047572 -0.415981
v -0.6511123 0.2968116 -0.0003828238
v -0.712794 2.549361 0.01923544
v -0.6696732 2.549361 -0.4907159
v -0.2796732 2.895283 -0.8265354
v -0.7180859 2.895283 0.02166172
v -0.674547 2.895283 -0.4932351
v -0.3604265 3.25365 -0.7058765
v 0.2427445 3.325651 -0.7996412
v -0.6663544 3.25365 -0.1139978
v -0.6916044 3.185497 -0.5020517
v 0.5587823 3.618676 -0.3231855
v -0.7182257 3.666352 -0.03520382
v 0.2507809 3.666352 -0.8151893
v -1.417796 3.200744 -0.529417
v -1.392545 3.265132 -0.2691031
v -1.432133 3.265131 -0.7905595
v -1.380156 3.650663 -0.1961966
v -0.6916663 3.9389 -0.1081497
v -1.430892 3.650663 -0.864501
v -0.4100877 4.007052 0.4633932
v -0.586703 5.577556 0.2679231
v -0.3261449 3.666352 -0.7937623
v -1.163507 3.905334 -0.7878068
v 0.1758132 4.014782 0.445974
v -0.4145029 5.577556 0.4719353
v -0.3748316 5.806082 0.3951832
v 0.1483336 5.577556 0.519528
v 0.1221135 5.806082 0.4372043
v 0.57143 4.007052 0.1507804
v 0.5799722 5.577556 0.1551957
v 0.50322 5.806082 0.1155243
v 0.5834516 4.014782 -0.3426841
v 0.6275649 5.577556 -0.4076409
v 0.5452411 5.806082 -0.3814207
v 0.2588172 4.007052 -0.8307372
v 0.2632325 5.577556 -0.8392795
v 0.2235612 5.806082 -0.7625275
v -0.3702941 3.9389 -0.7299081
v -0.7227004 4.007052 -0.5181245
v -0.2996041 5.577556 -0.8868724
v -0.2733839 5.806082 -0.8045484
v -0.5254027 5.577556 -0.6962828
v 1.540034 3.365376 0.3172343
v 1.765262 4.195603 0.3886532
v 1.634898 4.384397 0.3662668
v 1.352169 3.475422 0.5543255
v 1.879855 4.388532 0.418493
v 1.43903 4.38411 0.5992217
v 1.267398 3.365376 0.8447041
v 1.362261 4.384397 0.8937365
v 1.437082 4.247032 0.967262
v 1.546534 4.388532 1.063369
v 1.832693 4.484767 0.5092987
v 1.656791 4.481798 0.4717956
v 1.712559 4.526169 0.7406023
v 1.957966 4.487736 0.6447508
v 2.054309 4.392667 0.6071211
v 1.51614 4.481592 0.6390783
v 1.907152 4.489081 0.8411829
v 1.983546 4.39454 0.8806691
v 1.461014 4.481798 0.8505664
v 1.77629 4.487737 0.9962397
v 1.80131 4.392667 1.096599
v 1.593338 4.484767 0.9723777
v -0.6916663 3.9389 -0.1081497
v -0.7227004 4.007052 -0.5181245
v -0.7312427 5.577556 -0.5225398
v -0.5254027 5.577556 -0.6962828
v -0.2733839 5.806082 -0.8045484
v -0.7788354 5.577556 0.04029652
v -0.586703 5.577556 0.2679231
v -0.3748316 5.806082 0.3951832
v -0.6544906 5.806082 -0.4828686
v -0.6965117 5.806082 0.01407651
v -0.1795609 5.925786 -0.5099698
v -0.3798491 5.925786 -0.3409129
v -0.07563525 5.969314 -0.1836721
v 0.0816056 5.925786 -0.487886
v 0.2235612 5.806082 -0.7625275
v -0.401933 5.925786 -0.0797465
v 0.2506625 5.925786 -0.2875976
v 0.5452411 5.806082 -0.3814207
v -0.2328761 5.925786 0.1205418
v 0.1221135 5.806082 0.4372043
v 0.2285786 5.925786 -0.02643126
v 0.50322 5.806082 0.1155243
v 0.02829036 5.925786 0.1426257
vt 0.1252441 0.5625
vt 0.1252441 0.5625
vt 0.1252441 0.5625
vt 0.1228027 0.5629883
vt 0.1228027 0.5629883
vt 0.1228027 0.5629883
vt 0.1228027 0.5629883
vt 0.1228027 0.5629883
vt 0.1228027 0.5629883
vt 0.1228027 0.5629883
vt 0.1228027 0.5629883
vt 0.1228027 0.5629883
vt 0.1228027 0.5629883
vt 0.1228027 0.5629883
vt 0.1228027 0.5629883
vt 0.1228027 0.5629883
vt 0.1228027 0.5629883
vt 0.1228027 0.5629883
vt 0.1228027 0.5629883
vt 0.1228027 0.5629883
vt 0.1228027 0.5629883
vt 0.1228027 0.5629883
vt 0.1252441 0.5625
vt 0.1252441 0.5625
vt 0.1252441 0.5625
vt 0.1252441 0.5625
vt 0.1252441 0.5625
vt 0.3596191 0.5644531
vt 0.3596191 0.5644531
vt 0.3596191 0.5644531
vt 0.3596191 0.5644531
vt 0.3596191 0.5644531
vt 0.3596191 0.5644531
vt 0.3596191 0.5644531
vt 0.3596191 0.5644531
vt 0.3596191 0.5644531
vt 0.3596191 0.5644531
vt 0.3596191 0.5644531
vt 0.3596191 0.5644531
vt 0.3596191 0.5644531
vt 0.3596191 0.5644531
vt 0.3596191 0.5644531
vt 0.3596191 0.5644531
vt 0.3596191 0.5644531
vt 0.3596191 0.5644531
vt 0.3596191 0.5644531
vt 0.3596191 0.5644531
vt 0.3596191 0.5644531
vt 0.3596191 0.5644531
vt 0.3596191 0.5644531
vt 0.3596191 0.5644531
vt 0.3596191 0.5644531
vt 0.3596191 0.5644531
vt 0.3596191 0.5644531
vt 0.3596191 0.5644531
vt 0.3596191 0.5644531
vt 0.3596191 0.5644531
vt 0.3596191 0.5644531
vt 0.3596191 0.5644531
vt 0.3596191 0.5644531
vt 0.3596191 0.5644531
vt 0.3596191 0.5644531
vt 0.3596191 0.5644531
vt 0.3596191 0.5644531
vt 0.3596191 0.5644531
vt 0.3596191 0.5644531
vt 0.3596191 0.5644531
vt 0.3596191 0.5644531
vt 0.3596191 0.5644531
vt 0.3596191 0.5644531
vt 0.3596191 0.5644531
vt 0.3596191 0.5644531
vt 0.3596191 0.5644531
vt 0.3596191 0.5644531
vt 0.3596191 0.5644531
vt 0.3596191 0.5644531
vt 0.3596191 0.5644531
vt 0.3596191 0.5644531
vt 0.3596191 0.5644531
vt 0.3596191 0.5644531
vt 0.3596191 0.5644531
vt 0.3596191 0.5644531
vt 0.3596191 0.5644531
vt 0.3596191 0.5644531
vt 0.3596191 0.5644531
vt 0.3596191 0.5644531
vt 0.3596191 0.5644531
vt 0.3596191 0.5644531
vt 0.3596191 0.5644531
vt 0.3596191 0.5644531
vt 0.3596191 0.5644531
vt 0.3596191 0.5644531
vt 0.3596191 0.5644531
vt 0.3596191 0.5644531
vt 0.3596191 0.5644531
vt 0.3596191 0.5644531
vt 0.3596191 0.5644531
vt 0.3596191 0.5644531
vt 0.3596191 0.5644531
vt 0.3596191 0.5644531
vt 0.3596191 0.5644531
vt 0.3596191 0.5644531
vt 0.3596191 0.5644531
vt 0.3596191 0.5644531
vt 0.3596191 0.5644531
vt 0.3596191 0.5644531
vt 0.3596191 0.5644531
vt 0.3596191 0.5644531
vt 0.3596191 0.5644531
vt 0.3596191 0.5644531
vt 0.3596191 0.5644531
vt 0.3596191 0.5644531
vt 0.3596191 0.5644531
vt 0.3596191 0.5644531
vt 0.3596191 0.5644531
vt 0.3596191 0.5644531
vt 0.3596191 0.5644531
vt 0.3596191 0.5644531
vt 0.3596191 0.5644531
vt 0.3596191 0.5644531
vt 0.3596191 0.5644531
vt 0.3596191 0.5644531
vt 0.3596191 0.5644531
vt 0.3596191 0.5644531
vt 0.3596191 0.5644531
vt 0.3596191 0.5644531
vt 0.3596191 0.5644531
vt 0.3596191 0.5644531
vt 0.3596191 0.5644531
vt 0.3596191 0.5644531
vt 0.3596191 0.5644531
vt 0.3596191 0.5644531
vt 0.3596191 0.5644531
vt 0.130249 0.5581055
vt 0.130249 0.5581055
vt 0.130249 0.5581055
vt 0.130249 0.5581055
vt 0.130249 0.5581055
vt 0.130249 0.5581055
vt 0.130249 0.5581055
vt 0.130249 0.5581055
vt 0.130249 0.5581055
vt 0.130249 0.5581055
vt 0.130249 0.5581055
vt 0.130249 0.5581055
vt 0.130249 0.5581055
vt 0.130249 0.5581055
vt 0.130249 0.5581055
vt 0.130249 0.5581055
vt 0.130249 0.5581055
vt 0.130249 0.5581055
vt 0.130249 0.5581055
vt 0.130249 0.5581055
vt 0.130249 0.5581055
vt 0.130249 0.5581055
vt 0.1116333 0.5644531
vt 0.1116333 0.5644531
vt 0.1116333 0.5644531
vt 0.1116333 0.5644531
vt 0.1116333 0.5644531
vt 0.1116333 0.5644531
vt 0.1116333 0.5644531
vt 0.1116333 0.5644531
vt 0.1116333 0.5644531
vt 0.1116333 0.5644531
vt 0.1116333 0.5644531
vt 0.1116333 0.5644531
vt 0.1116333 0.5644531
vt 0.1116333 0.5644531
vt 0.1116333 0.5644531
vt 0.1116333 0.5644531
vt 0.1116333 0.5644531
vt 0.1116333 0.5644531
vt 0.1116333 0.5644531
vt 0.1116333 0.5644531
vt 0.1116333 0.5644531
vt 0.1116333 0.5644531
vt 0.1116333 0.5644531
vn -0.784668 0.2932129 0.5463867
vn -0.4089355 0.04336548 0.9116211
vn -0.3977051 0.6748047 0.621582
vn -0.5600586 0.7446289 -0.3635254
vn -0.784668 0.2932129 0.5463867
vn -0.3977051 0.6748047 0.621582
vn -0.3623047 0.9321289 -0.003540039
vn -0.8120117 0.395752 0.4291992
vn -0.8427734 0.534668 0.06396484
vn -0.9960938 0.04495239 0.07562256
vn -0.3510742 0.6523438 -0.671875
vn -0.8168945 0.04653931 0.5751953
vn -0.4089355 0.04336548 0.9116211
vn -0.8671875 0.395752 -0.3017578
vn -0.3432617 0.03717041 -0.9384766
vn -0.8330078 -0.3137207 0.4558105
vn -0.4008789 -0.659668 0.6357422
vn -0.894043 0.04653931 -0.4453125
vn -0.3601074 -0.6381836 -0.6801758
vn -0.8886719 -0.4536133 0.06744385
vn -0.3837891 -0.9233398 -0.001556396
vn -0.8920898 -0.3137207 -0.3249512
vn -0.3432617 0.03717041 -0.9384766
vn 0.01400757 0.6865234 -0.7265625
vn -0.3510742 0.6523438 -0.671875
vn -0.3623047 0.9321289 -0.003540039
vn -0.5600586 0.7446289 -0.3635254
vn 0.4655762 0.3688965 -0.8046875
vn 0.2125244 0.02606201 -0.9765625
vn -0.1757813 0.2202148 -0.9594727
vn 0.5327148 -0.01528931 -0.8461914
vn 0.9145508 0.328125 -0.2358398
vn 0.9511719 -0.1723633 -0.2561035
vn 0.8466797 0.3027344 0.4375
vn 0.8544922 -0.2739258 0.4416504
vn 0.3366699 0.328125 0.8828125
vn 0.3410645 -0.1723633 0.9238281
vn -0.3869629 0.3684082 0.8452148
vn -0.3828125 -0.01513672 0.9238281
vn -0.6738281 0.0256958 0.7382813
vn -0.8847656 0.220459 0.4108887
vn 0.06008911 0.449707 -0.8911133
vn 0.5512695 -0.08966064 -0.8295898
vn 0.7924805 -0.4870605 -0.3671875
vn 0.644043 -0.6884766 0.3330078
vn 0.1588135 -0.4870605 0.8588867
vn -0.3579102 -0.08966064 0.9296875
vn -0.5581055 0.777832 -0.2883301
vn -0.847168 0.3007813 -0.4379883
vn -0.6923828 0.449707 0.5644531
vn 0.3205566 0.6323242 -0.7055664
vn 0.5126953 -0.0916748 -0.8535156
vn 0.8256836 0.2277832 -0.5161133
vn 0.4628906 -0.7216797 -0.5146484
vn 0.2330322 -0.9648438 0.1204224
vn -0.1520996 -0.7216797 0.675293
vn -0.3999023 -0.0916748 0.9121094
vn 0.02432251 -0.3122559 0.949707
vn -0.08734131 0.9951172 -0.04510498
vn -0.3901367 0.6323242 0.6694336
vn 0.7094727 -0.04284668 -0.7036133
vn 0.5664063 -0.7705078 0.2927246
vn 0.7890625 -0.3122559 -0.5292969
vn 0.6323242 0.7021484 0.3269043
vn -0.1638184 -0.04284668 0.9853516
vn 0.05618286 0.2277832 0.972168
vn 0.4726563 0.007019043 -0.8813477
vn 0.4985352 -0.05493164 -0.8652344
vn 0.9311523 -0.2255859 -0.286377
vn 0.8637695 -0.2329102 0.4465332
vn 0.4677734 -0.2327881 -0.8525391
vn 0.3334961 -0.06106567 0.940918
vn 0.8867188 -0.06072998 0.458252
vn -0.4719238 -0.008636475 0.8813477
vn -0.4453125 0.007019043 0.8955078
vn -0.4777832 -0.05325317 0.8769531
vn 0.3049316 -0.2255859 0.925293
vn -0.4174805 -0.05493164 0.9072266
vn 0.5742188 -0.7631836 0.2966309
vn 0.1960449 -0.7631836 0.6157227
vn 0 -1 0
vn 0.6157227 -0.7631836 -0.1960449
vn -0.2966309 -0.7631836 0.5742188
vn 0.2966309 -0.7631836 -0.5742188
vn -0.4250488 -0.2327881 0.875
vn -0.2949219 -0.2357178 -0.9257813
vn -0.1960449 -0.7631836 -0.6157227
vn -0.6157227 -0.7631836 0.1960449
vn -0.3037109 -0.02267456 -0.9526367
vn -0.8632813 -0.2357178 -0.4462891
vn -0.5742188 -0.7631836 -0.2966309
vn -0.9257813 -0.2357178 0.2949219
vn -0.9526367 -0.02267456 0.3032227
vn -0.8881836 -0.02224731 -0.4589844
vn -0.2949219 0.04025269 -0.9545898
vn -0.9492188 0.04025269 0.3115234
vn -0.8881836 0.01867676 -0.4589844
vn -0.1846924 -0.1429443 -0.972168
vn 0.4462891 -0.008636475 -0.8950195
vn -0.7963867 -0.2619629 0.5454102
vn -0.5473633 -0.7626953 -0.3444824
vn 0.9604492 -0.06106567 -0.2722168
vn -0.6113281 0.006317139 0.7915039
vn 0.4389648 -0.05325317 -0.8969727
vn -0.3837891 -0.9233398 -0.001556396
vn -0.4008789 -0.659668 0.6357422
vn -0.3601074 -0.6381836 -0.6801758
vn -0.4089355 0.04336548 0.9116211
vn -0.784668 0.2932129 0.5463867
vn -0.3432617 0.03717041 -0.9384766
vn -0.4968262 -0.01730347 0.8676758
vn -0.7875977 0.137085 0.6005859
vn -0.02212524 -0.008758545 -0.9995117
vn 0.01400757 0.6865234 -0.7265625
vn 0.3249512 -0.04162598 0.9448242
vn -0.4782715 0.1604004 0.8632813
vn -0.3459473 0.6577148 0.6694336
vn 0.3037109 0.1601563 0.9389648
vn 0.2286377 0.6577148 0.7177734
vn 0.8876953 -0.03866577 0.4587402
vn 0.8759766 0.164917 0.4528809
vn 0.6694336 0.6577148 0.3459473
vn 0.9589844 -0.04162598 -0.28125
vn 0.9418945 0.1601563 -0.295166
vn 0.7177734 0.6577148 -0.2286377
vn 0.4311523 -0.02236938 -0.9018555
vn 0.4379883 0.1546631 -0.8857422
vn 0.3459473 0.6577148 -0.6694336
vn -0.1610107 0.1606445 -0.9736328
vn -0.5600586 0.7446289 -0.3635254
vn -0.3032227 0.1467285 -0.9414063
vn -0.2286377 0.6577148 -0.7177734
vn -0.6176758 0.1558838 -0.7709961
vn -0.1757813 0.2202148 -0.9594727
vn 0.2125244 0.02606201 -0.9765625
vn -0.2788086 0.3945313 -0.8754883
vn -0.847168 0.3007813 -0.4379883
vn 0.4655762 0.3688965 -0.8046875
vn -0.8183594 0.3896484 -0.4228516
vn -0.8847656 0.220459 0.4108887
vn -0.8754883 0.394043 0.279541
vn -0.6738281 0.0256958 0.7382813
vn -0.3869629 0.3684082 0.8452148
vn 0.2296143 0.875 -0.4265137
vn -0.19104 0.8598633 -0.4731445
vn -0.01303101 1 -0.006744385
vn 0.4885254 0.8652344 -0.1147461
vn 0.9145508 0.328125 -0.2358398
vn -0.4709473 0.8481445 -0.2434082
vn 0.4558105 0.8583984 0.2355957
vn 0.8466797 0.3027344 0.4375
vn -0.496582 0.8598633 0.1177368
vn 0.1888428 0.8652344 0.4648438
vn 0.3366699 0.328125 0.8828125
vn -0.21521 0.875 0.4338379
vn -0.784668 0.2932129 0.5463867
vn -0.5600586 0.7446289 -0.3635254
vn -0.8837891 0.1641846 -0.4377441
vn -0.6176758 0.1558838 -0.7709961
vn -0.2286377 0.6577148 -0.7177734
vn -0.9360352 0.137207 0.3244629
vn -0.7875977 0.137085 0.6005859
vn -0.3459473 0.6577148 0.6694336
vn -0.6694336 0.6577148 -0.3459473
vn -0.7177734 0.6577148 0.2286377
vn -0.08294678 0.9619141 -0.260498
vn -0.2427979 0.9619141 -0.1254883
vn 0 1 0
vn 0.1254883 0.9619141 -0.2427979
vn 0.3459473 0.6577148 -0.6694336
vn -0.260498 0.9619141 0.08294678
vn 0.260498 0.9619141 -0.08294678
vn 0.7177734 0.6577148 -0.2286377
vn -0.1254883 0.9619141 0.2427979
vn 0.2286377 0.6577148 0.7177734
vn 0.2427979 0.9619141 0.1254883
vn 0.6694336 0.6577148 0.3459473
vn 0.08294678 0.9619141 0.260498
g desert_cactus_02_0
f 3/3/3 2/2/2 1/1/1
f 6/6/6 5/5/5 4/4/4
f 7/7/7 6/6/6 4/4/4
f 8/8/8 6/6/6 7/7/7
f 9/9/9 8/8/8 7/7/7
f 10/10/10 8/8/8 9/9/9
f 9/9/9 7/7/7 11/11/11
f 8/8/8 12/12/12 6/6/6
f 10/10/10 12/12/12 8/8/8
f 12/12/12 13/13/13 6/6/6
f 14/14/14 9/9/9 11/11/11
f 10/10/10 9/9/9 14/14/14
f 14/14/14 11/11/11 15/15/15
f 12/12/12 16/16/16 13/13/13
f 10/10/10 16/16/16 12/12/12
f 16/16/16 17/17/17 13/13/13
f 18/18/18 14/14/14 15/15/15
f 10/10/10 14/14/14 18/18/18
f 18/18/18 15/15/15 19/19/19
f 16/16/16 20/20/20 17/17/17
f 10/10/10 20/20/20 16/16/16
f 20/20/20 21/21/21 17/17/17
f 22/22/22 19/19/19 21/21/21
f 22/22/22 18/18/18 19/19/19
f 10/10/10 18/18/18 22/22/22
f 10/10/10 22/22/22 20/20/20
f 20/20/20 22/22/22 21/21/21
f 25/25/25 24/24/24 23/23/23
f 25/25/25 26/26/26 24/24/24
f 26/26/26 27/27/27 24/24/24
f 30/30/30 29/29/29 28/28/28
f 31/31/31 30/30/30 28/28/28
f 28/28/28 32/32/32 31/31/31
f 32/32/32 33/33/33 31/31/31
f 32/32/32 34/34/34 33/33/33
f 34/34/34 35/35/35 33/33/33
f 34/34/34 36/36/36 35/35/35
f 36/36/36 37/37/37 35/35/35
f 36/36/36 38/38/38 37/37/37
f 38/38/38 39/39/39 37/37/37
f 38/38/38 40/40/40 39/39/39
f 40/40/40 41/41/41 39/39/39
f 42/42/42 30/30/30 31/31/31
f 43/43/43 31/31/31 33/33/33
f 43/43/43 42/42/42 31/31/31
f 44/44/44 33/33/33 35/35/35
f 44/44/44 43/43/43 33/33/33
f 45/45/45 35/35/35 37/37/37
f 45/45/45 44/44/44 35/35/35
f 37/37/37 39/39/39 46/46/46
f 46/46/46 45/45/45 37/37/37
f 39/39/39 41/41/41 47/47/47
f 39/39/39 47/47/47 46/46/46
f 30/30/30 42/42/42 48/48/48
f 49/49/49 30/30/30 48/48/48
f 41/41/41 49/49/49 50/50/50
f 41/41/41 50/50/50 47/47/47
f 49/49/49 48/48/48 50/50/50
f 51/51/51 42/42/42 43/43/43
f 52/52/52 43/43/43 44/44/44
f 52/52/52 51/51/51 43/43/43
f 51/51/51 52/52/52 53/53/53
f 54/54/54 44/44/44 45/45/45
f 54/54/54 52/52/52 44/44/44
f 55/55/55 45/45/45 46/46/46
f 55/55/55 54/54/54 45/45/45
f 46/46/46 47/47/47 56/56/56
f 56/56/56 55/55/55 46/46/46
f 47/47/47 50/50/50 57/57/57
f 47/47/47 57/57/57 56/56/56
f 56/56/56 57/57/57 58/58/58
f 42/42/42 51/51/51 59/59/59
f 48/48/48 42/42/42 59/59/59
f 50/50/50 48/48/48 60/60/60
f 50/50/50 60/60/60 57/57/57
f 48/48/48 59/59/59 60/60/60
f 52/52/52 54/54/54 61/61/61
f 52/52/52 61/61/61 53/53/53
f 55/55/55 56/56/56 62/62/62
f 56/56/56 58/58/58 62/62/62
f 54/54/54 55/55/55 63/63/63
f 54/54/54 63/63/63 61/61/61
f 55/55/55 62/62/62 63/63/63
f 59/59/59 51/51/51 64/64/64
f 51/51/51 53/53/53 64/64/64
f 57/57/57 60/60/60 65/65/65
f 57/57/57 65/65/65 58/58/58
f 60/60/60 59/59/59 66/66/66
f 59/59/59 64/64/64 66/66/66
f 60/60/60 66/66/66 65/65/65
f 53/53/53 61/61/61 67/67/67
f 61/61/61 63/63/63 68/68/68
f 67/67/67 61/61/61 68/68/68
f 63/63/63 62/62/62 69/69/69
f 62/62/62 58/58/58 70/70/70
f 62/62/62 70/70/70 69/69/69
f 68/68/68 63/63/63 71/71/71
f 63/63/63 69/69/69 71/71/71
f 72/72/72 66/66/66 64/64/64
f 73/73/73 64/64/64 53/53/53
f 73/73/73 72/72/72 64/64/64
f 66/66/66 74/74/74 65/65/65
f 65/65/65 75/75/75 58/58/58
f 74/74/74 75/75/75 65/65/65
f 72/72/72 76/76/76 66/66/66
f 76/76/76 74/74/74 66/66/66
f 58/58/58 77/77/77 70/70/70
f 75/75/75 78/78/78 58/58/58
f 58/58/58 78/78/78 77/77/77
f 70/70/70 79/79/79 69/69/69
f 77/77/77 80/80/80 70/70/70
f 80/80/80 79/79/79 70/70/70
f 80/80/80 81/81/81 79/79/79
f 79/79/79 82/82/82 69/69/69
f 79/79/79 81/81/81 82/82/82
f 69/69/69 82/82/82 71/71/71
f 83/83/83 80/80/80 77/77/77
f 83/83/83 81/81/81 80/80/80
f 82/82/82 84/84/84 71/71/71
f 82/82/82 81/81/81 84/84/84
f 85/85/85 83/83/83 77/77/77
f 78/78/78 85/85/85 77/77/77
f 71/71/71 84/84/84 86/86/86
f 68/68/68 71/71/71 86/86/86
f 84/84/84 81/81/81 87/87/87
f 84/84/84 87/87/87 86/86/86
f 88/88/88 81/81/81 83/83/83
f 88/88/88 83/83/83 85/85/85
f 89/89/89 68/68/68 86/86/86
f 67/67/67 68/68/68 89/89/89
f 86/86/86 87/87/87 90/90/90
f 89/89/89 86/86/86 90/90/90
f 87/87/87 81/81/81 91/91/91
f 91/91/91 81/81/81 88/88/88
f 87/87/87 91/91/91 90/90/90
f 91/91/91 88/88/88 92/92/92
f 92/92/92 88/88/88 85/85/85
f 90/90/90 91/91/91 92/92/92
f 78/78/78 93/93/93 85/85/85
f 93/93/93 92/92/92 85/85/85
f 94/94/94 90/90/90 92/92/92
f 94/94/94 89/89/89 90/90/90
f 93/93/93 94/94/94 92/92/92
f 95/95/95 67/67/67 89/89/89
f 95/95/95 89/89/89 94/94/94
f 96/96/96 93/93/93 78/78/78
f 75/75/75 96/96/96 78/78/78
f 97/97/97 94/94/94 93/93/93
f 97/97/97 95/95/95 94/94/94
f 96/96/96 97/97/97 93/93/93
f 98/98/98 95/95/95 97/97/97
f 99/99/99 67/67/67 95/95/95
f 98/98/98 99/99/99 95/95/95
f 99/99/99 53/53/53 67/67/67
f 100/100/100 96/96/96 75/75/75
f 74/74/74 100/100/100 75/75/75
f 101/101/101 97/97/97 96/96/96
f 101/101/101 98/98/98 97/97/97
f 100/100/100 101/101/101 96/96/96
f 102/102/102 53/53/53 99/99/99
f 102/102/102 73/73/73 53/53/53
f 103/103/103 100/100/100 74/74/74
f 76/76/76 103/103/103 74/74/74
f 104/104/104 99/99/99 98/98/98
f 104/104/104 102/102/102 99/99/99
f 105/105/105 101/101/101 100/100/100
f 106/106/106 105/105/105 100/100/100
f 106/106/106 100/100/100 103/103/103
f 105/105/105 107/107/107 101/101/101
f 107/107/107 98/98/98 101/101/101
f 108/108/108 106/106/106 103/103/103
f 103/103/103 109/109/109 108/108/108
f 109/109/109 103/103/103 76/76/76
f 107/107/107 110/110/110 98/98/98
f 111/111/111 109/109/109 76/76/76
f 111/111/111 76/76/76 72/72/72
f 112/112/112 109/109/109 111/111/111
f 110/110/110 113/113/113 98/98/98
f 113/113/113 104/104/104 98/98/98
f 110/110/110 114/114/114 113/113/113
f 115/115/115 111/111/111 72/72/72
f 115/115/115 72/72/72 73/73/73
f 116/116/116 112/112/112 111/111/111
f 116/116/116 111/111/111 115/115/115
f 117/117/117 112/112/112 116/116/116
f 117/117/117 116/116/116 118/118/118
f 118/118/118 116/116/116 115/115/115
f 119/119/119 117/117/117 118/118/118
f 120/120/120 115/115/115 73/73/73
f 118/118/118 115/115/115 120/120/120
f 120/120/120 73/73/73 102/102/102
f 119/119/119 118/118/118 121/121/121
f 121/121/121 118/118/118 120/120/120
f 122/122/122 119/119/119 121/121/121
f 123/123/123 120/120/120 102/102/102
f 121/121/121 120/120/120 123/123/123
f 123/123/123 102/102/102 104/104/104
f 122/122/122 121/121/121 124/124/124
f 124/124/124 121/121/121 123/123/123
f 125/125/125 122/122/122 124/124/124
f 126/126/126 123/123/123 104/104/104
f 124/124/124 123/123/123 126/126/126
f 126/126/126 104/104/104 113/113/113
f 125/125/125 124/124/124 127/127/127
f 127/127/127 124/124/124 126/126/126
f 128/128/128 125/125/125 127/127/127
f 129/129/129 126/126/126 113/113/113
f 127/127/127 126/126/126 129/129/129
f 114/114/114 129/129/129 113/113/113
f 114/114/114 130/130/130 129/129/129
f 128/128/128 127/127/127 131/131/131
f 131/131/131 127/127/127 129/129/129
f 131/131/131 129/129/129 130/130/130
f 132/132/132 128/128/128 131/131/131
f 133/133/133 131/131/131 130/130/130
f 131/131/131 133/133/133 132/132/132
f 136/136/136 135/135/135 134/134/134
f 136/136/136 134/134/134 137/137/137
f 138/138/138 135/135/135 136/136/136
f 139/139/139 136/136/136 137/137/137
f 139/139/139 137/137/137 140/140/140
f 141/141/141 139/139/139 140/140/140
f 140/140/140 142/142/142 141/141/141
f 141/141/141 142/142/142 143/143/143
f 144/144/144 138/138/138 136/136/136
f 145/145/145 136/136/136 139/139/139
f 145/145/145 144/144/144 136/136/136
f 146/146/146 144/144/144 145/145/145
f 144/144/144 147/147/147 138/138/138
f 146/146/146 147/147/147 144/144/144
f 147/147/147 148/148/148 138/138/138
f 149/149/149 145/145/145 139/139/139
f 149/149/149 139/139/139 141/141/141
f 146/146/146 145/145/145 149/149/149
f 147/147/147 150/150/150 148/148/148
f 146/146/146 150/150/150 147/147/147
f 150/150/150 151/151/151 148/148/148
f 152/152/152 149/149/149 141/141/141
f 152/152/152 141/141/141 143/143/143
f 146/146/146 149/149/149 152/152/152
f 150/150/150 153/153/153 151/151/151
f 146/146/146 153/153/153 150/150/150
f 153/153/153 154/154/154 151/151/151
f 155/155/155 152/152/152 143/143/143
f 146/146/146 152/152/152 155/155/155
f 155/155/155 143/143/143 154/154/154
f 153/153/153 155/155/155 154/154/154
f 146/146/146 155/155/155 153/153/153
f 158/158/158 157/157/157 156/156/156
f 157/157/157 158/158/158 159/159/159
f 160/160/160 159/159/159 158/158/158
f 161/161/161 158/158/158 156/156/156
f 161/161/161 156/156/156 162/162/162
f 161/161/161 162/162/162 163/163/163
f 164/164/164 158/158/158 161/161/161
f 164/164/164 160/160/160 158/158/158
f 165/165/165 161/161/161 163/163/163
f 165/165/165 164/164/164 161/161/161
f 166/166/166 160/160/160 164/164/164
f 167/167/167 164/164/164 165/165/165
f 167/167/167 166/166/166 164/164/164
f 168/168/168 166/166/166 167/167/167
f 166/166/166 169/169/169 160/160/160
f 168/168/168 169/169/169 166/166/166
f 169/169/169 170/170/170 160/160/160
f 171/171/171 167/167/167 165/165/165
f 171/171/171 165/165/165 163/163/163
f 168/168/168 167/167/167 171/171/171
f 169/169/169 172/172/172 170/170/170
f 168/168/168 172/172/172 169/169/169
f 172/172/172 173/173/173 170/170/170
f 174/174/174 171/171/171 163/163/163
f 168/168/168 171/171/171 174/174/174
f 174/174/174 163/163/163 175/175/175
f 172/172/172 176/176/176 173/173/173
f 168/168/168 176/176/176 172/172/172
f 176/176/176 177/177/177 173/173/173
f 178/178/178 175/175/175 177/177/177
f 178/178/178 174/174/174 175/175/175
f 168/168/168 174/174/174 178/178/178
f 176/176/176 178/178/178 177/177/177
f 168/168/168 178/178/178 176/176/176
