g desert_cactus_01
v 0.09321051 2.802128 0.06247595
v 0.3210155 2.678184 -0.3057588
v 0.3459155 3.073647 -0.3353783
v 0.1062989 3.143023 0.06103378
v 0.2575612 2.68388 0.4647946
v 0.3708153 3.469111 -0.364998
v 0.2777587 3.079765 0.492278
v 0.1193876 3.483919 0.0595916
v 0.2979563 3.475651 0.5197614
v 0.5038136 4.983217 -0.4434637
v 0.246427 5.006322 0.0587992
v 0.4181585 4.990906 0.5966845
v 0.5837032 5.248503 -0.3775448
v 0.7360882 5.234823 -0.4265889
v 1.044859 5.304247 -0.2807479
v 0.3564489 5.268903 0.0659183
v 0.7934572 5.349858 -0.1416665
v 1.017834 5.37342 0.1196101
v 1.274172 5.306706 -0.1017611
v 1.353859 5.299553 0.1478275
v 1.234427 5.310274 0.3808866
v 0.9749296 5.297229 0.5540544
v 0.5080757 5.255291 0.5408331
v 0.6819547 5.239683 0.6306562
v 0.674025 5.360579 0.09139268
v 0.7537115 5.353426 0.3409812
v -1.263286 4.094851 0.03392833
v -1.388263 3.972224 0.09139103
v -1.41088 2.893694 0.1284656
v -1.192275 2.969721 0.02749483
v -1.018318 4.083459 0.08500948
v -0.9419462 3.06173 0.07843462
v -0.9331788 4.080651 0.3772006
v -0.8625279 3.169472 0.3711805
v -0.9817773 4.082377 0.6776462
v -0.9054053 3.060647 0.6710715
v -1.218612 4.093527 0.758476
v -1.1476 2.968398 0.7520427
v -1.357072 3.962711 0.7144176
v -1.37697 2.89269 0.6784164
v -1.329082 2.537556 0.1182987
v -1.155393 2.686014 0.02137387
v -0.8737217 2.879794 0.07209395
v -0.7826976 2.977899 0.364848
v -0.8375407 2.874565 0.6647307
v -1.111158 2.679622 0.7459217
v -1.397941 2.450892 0.3977596
v -1.467449 2.799394 0.407803
v -1.295507 2.532703 0.6682494
v -0.9208857 2.550492 0.005861382
v -0.7134577 2.794662 0.06155844
v -0.6233616 2.891587 0.3543589
v -1.02609 2.315584 0.09784257
v 0.2791018 2.113581 -0.2912049
v -0.6772764 2.789433 0.6541952
v -0.8766512 2.544099 0.7304092
v -0.992515 2.310732 0.6477933
v -1.09651 2.228395 0.3773941
v 0.3073465 2.350807 -0.395583
v 0.3210155 2.678184 -0.3057588
v 0.09321051 2.802128 0.06247595
v 0.2575612 2.68388 0.4647946
v 0.05158552 2.076496 0.06451619
v 0.2289871 2.357841 0.5559704
v 0.2179101 2.119074 0.4518727
v 0.8383762 2.735237 -0.5714172
v 0.7974467 2.306812 -0.5533188
v 0.8702738 3.074444 -0.5888599
v 0.3459155 3.073647 -0.3353783
v 0.9021714 3.413651 -0.6063024
v 1.373805 3.302887 -0.1869154
v 0.3708153 3.469111 -0.364998
v 1.345929 3.031745 -0.264466
v 1.043375 4.977795 -0.6158857
v 0.5038136 4.983217 -0.4434637
v 0.7360882 5.234823 -0.4265889
v 1.291504 2.62227 -0.1717865
v 1.543626 4.932889 -0.357464
v 1.056716 5.206042 -0.529781
v 1.044859 5.304247 -0.2807479
v 1.274172 5.306706 -0.1017611
v 1.498403 5.166393 -0.301613
v 1.353859 5.299553 0.1478275
v 1.65003 5.152782 0.1733018
v 1.234427 5.310274 0.3808866
v 1.715358 4.917473 0.1804209
v 1.422776 5.173182 0.6167648
v 0.9749296 5.297229 0.5540544
v 0.9497628 5.215642 0.7690014
v 0.6819547 5.239683 0.6306562
v 1.457971 4.940577 0.6826841
v 0.9222403 4.988668 0.855106
v 0.4181585 4.990906 0.5966845
v 1.565399 3.354115 0.1796287
v 0.7826148 3.424384 0.8455228
v 0.2979563 3.475651 0.5197614
v 1.316364 3.308044 0.5106068
v 0.75359 3.084918 0.8280804
v 0.2777587 3.079765 0.492278
v 1.27585 3.038036 0.586526
v 1.236824 2.627179 0.4922149
v 0.7245653 2.745453 0.8106377
v 0.6866296 2.31676 0.7923809
v 1.17673 2.272765 0.634645
v 0.6572247 1.972087 0.7860006
v 1.142618 1.928515 0.6297798
v 2.177446 3.186665 0.3534126
v 2.181112 2.941022 0.4112011
v 2.147369 3.265501 0.08120526
v 2.112068 3.192534 -0.1920089
v 2.10135 2.948182 -0.2542244
v 2.082402 2.562802 -0.1819334
v 2.28357 3.119708 0.06331072
v 2.260905 3.072856 -0.1121145
v 2.307292 2.877969 0.05786618
v 2.302882 3.069088 0.2380893
v 2.254022 2.915963 -0.152062
v 2.241856 2.668519 -0.1056453
v 2.305236 2.911366 0.2751943
v 2.261615 2.625237 0.06062192
v 2.144638 2.557215 0.3372767
v 2.281816 2.664931 0.227729
v 2.113176 2.495393 0.07701765
v 1.4572 2.53897 0.1767444
v 1.412193 2.251628 0.1751622
v 1.25509 2.265731 -0.3169084
v 1.37582 1.907581 0.1747102
v 0.7669776 1.962235 -0.5467741
v 1.220224 1.921548 -0.3126343
v 1.262437 0.3666501 0.169376
v 1.121333 0.3666501 -0.2708125
v 0.7102964 0.3666501 -0.4822966
v 0.2701079 0.3666501 -0.3411919
v 1.050954 0.3666501 0.5804125
v 0.05862373 0.3666501 0.06984454
v 0.6107649 0.3666501 0.7215173
v 0.1997285 0.3666501 0.510033
v 1.00509 0.1571362 -0.172324
v 1.1106 0.1571362 0.1568219
v 0.6605305 0.0698387 0.1196102
v 0.6977423 0.1571361 -0.3304589
v 0.9524648 0.1571362 0.4641698
v 0.3685963 0.1571361 -0.2249495
v 0.6233187 0.1571362 0.5696793
v 0.2104614 0.1571362 0.0823984
v 0.3159709 0.1571362 0.4115443
v -1.41088 2.893694 0.1284656
v -1.388263 3.972224 0.09139103
v -1.498805 4.105962 0.136101
v -1.467449 2.799394 0.407803
v -1.263286 4.094851 0.03392833
v -1.544391 4.109186 0.414939
v -1.37697 2.89269 0.6784164
v -1.464896 4.104958 0.6860517
v -1.357072 3.962711 0.7144176
v -1.218612 4.093527 0.758476
v -1.25394 4.190851 0.1360442
v -1.423063 4.198831 0.2094136
v -1.236161 4.231744 0.3961579
v -1.07803 4.182671 0.1727252
v -1.018318 4.083459 0.08500948
v -1.455798 4.201146 0.4096445
v -1.016892 4.180655 0.3825449
v -0.9331788 4.080651 0.3772006
v -1.398714 4.198109 0.6043277
v -1.05179 4.181894 0.5982921
v -0.9817773 4.082377 0.6776462
v -1.221859 4.189901 0.6563351
vt 0.09918213 0.5581055
vt 0.09918213 0.5581055
vt 0.09918213 0.5581055
vt 0.09918213 0.5581055
vt 0.09918213 0.5581055
vt 0.09918213 0.5581055
vt 0.09918213 0.5581055
vt 0.09918213 0.5581055
vt 0.09918213 0.5581055
vt 0.09918213 0.5581055
vt 0.09918213 0.5581055
vt 0.09918213 0.5581055
vt 0.09918213 0.5581055
vt 0.09918213 0.5581055
vt 0.09918213 0.5581055
vt 0.09918213 0.5581055
vt 0.09918213 0.5581055
vt 0.09918213 0.5581055
vt 0.09918213 0.5581055
vt 0.09918213 0.5581055
vt 0.09918213 0.5581055
vt 0.09918213 0.5581055
vt 0.09918213 0.5581055
vt 0.09918213 0.5581055
vt 0.09918213 0.5581055
vt 0.09918213 0.5581055
vt 0.3596191 0.5644531
vt 0.3596191 0.5644531
vt 0.3596191 0.5644531
vt 0.3596191 0.5644531
vt 0.3596191 0.5644531
vt 0.3596191 0.5644531
vt 0.3596191 0.5644531
vt 0.3596191 0.5644531
vt 0.3596191 0.5644531
vt 0.3596191 0.5644531
vt 0.3596191 0.5644531
vt 0.3596191 0.5644531
vt 0.3596191 0.5644531
vt 0.3596191 0.5644531
vt 0.3596191 0.5644531
vt 0.3596191 0.5644531
vt 0.3596191 0.5644531
vt 0.3596191 0.5644531
vt 0.3596191 0.5644531
vt 0.3596191 0.5644531
vt 0.3596191 0.5644531
vt 0.3596191 0.5644531
vt 0.3596191 0.5644531
vt 0.3596191 0.5644531
vt 0.3596191 0.5644531
vt 0.3596191 0.5644531
vt 0.3596191 0.5644531
vt 0.3596191 0.5644531
vt 0.3596191 0.5644531
vt 0.3596191 0.5644531
vt 0.3596191 0.5644531
vt 0.3596191 0.5644531
vt 0.3596191 0.5644531
vt 0.3596191 0.5644531
vt 0.3596191 0.5644531
vt 0.3596191 0.5644531
vt 0.3596191 0.5644531
vt 0.3596191 0.5644531
vt 0.3596191 0.5644531
vt 0.3596191 0.5644531
vt 0.3596191 0.5644531
vt 0.3596191 0.5644531
vt 0.3596191 0.5644531
vt 0.3596191 0.5644531
vt 0.3596191 0.5644531
vt 0.3596191 0.5644531
vt 0.3596191 0.5644531
vt 0.3596191 0.5644531
vt 0.3596191 0.5644531
vt 0.3596191 0.5644531
vt 0.3596191 0.5644531
vt 0.3596191 0.5644531
vt 0.3596191 0.5644531
vt 0.3596191 0.5644531
vt 0.3596191 0.5644531
vt 0.3596191 0.5644531
vt 0.3596191 0.5644531
vt 0.3596191 0.5644531
vt 0.3596191 0.5644531
vt 0.3596191 0.5644531
vt 0.3596191 0.5644531
vt 0.3596191 0.5644531
vt 0.3596191 0.5644531
vt 0.3596191 0.5644531
vt 0.3596191 0.5644531
vt 0.3596191 0.5644531
vt 0.3596191 0.5644531
vt 0.3596191 0.5644531
vt 0.3596191 0.5644531
vt 0.3596191 0.5644531
vt 0.3596191 0.5644531
vt 0.3596191 0.5644531
vt 0.3596191 0.5644531
vt 0.3596191 0.5644531
vt 0.3596191 0.5644531
vt 0.3596191 0.5644531
vt 0.3596191 0.5644531
vt 0.3596191 0.5644531
vt 0.3596191 0.5644531
vt 0.3596191 0.5644531
vt 0.3596191 0.5644531
vt 0.3596191 0.5644531
vt 0.3596191 0.5644531
vt 0.3596191 0.5644531
vt 0.3596191 0.5644531
vt 0.3596191 0.5644531
vt 0.3596191 0.5644531
vt 0.3596191 0.5644531
vt 0.3596191 0.5644531
vt 0.3596191 0.5644531
vt 0.3596191 0.5644531
vt 0.3596191 0.5644531
vt 0.3596191 0.5644531
vt 0.3596191 0.5644531
vt 0.3596191 0.5644531
vt 0.3596191 0.5644531
vt 0.3596191 0.5644531
vt 0.3596191 0.5644531
vt 0.3596191 0.5644531
vt 0.3596191 0.5644531
vt 0.3596191 0.5644531
vt 0.3596191 0.5644531
vt 0.3596191 0.5644531
vt 0.3596191 0.5644531
vt 0.3596191 0.5644531
vt 0.3596191 0.5644531
vt 0.3596191 0.5644531
vt 0.3596191 0.5644531
vt 0.3596191 0.5644531
vt 0.3596191 0.5644531
vt 0.3596191 0.5644531
vt 0.3596191 0.5644531
vt 0.3596191 0.5644531
vt 0.3596191 0.5644531
vt 0.3596191 0.5644531
vt 0.3596191 0.5644531
vt 0.3596191 0.5644531
vt 0.3596191 0.5644531
vt 0.3596191 0.5644531
vt 0.3596191 0.5644531
vt 0.1116333 0.5581055
vt 0.1116333 0.5581055
vt 0.1116333 0.5581055
vt 0.1116333 0.5581055
vt 0.1116333 0.5581055
vt 0.1116333 0.5581055
vt 0.1116333 0.5581055
vt 0.1116333 0.5581055
vt 0.1116333 0.5581055
vt 0.1116333 0.5581055
vt 0.1116333 0.5581055
vt 0.1116333 0.5581055
vt 0.1116333 0.5581055
vt 0.1116333 0.5581055
vt 0.1116333 0.5581055
vt 0.1116333 0.5581055
vt 0.1116333 0.5581055
vt 0.1116333 0.5581055
vt 0.1116333 0.5581055
vt 0.1116333 0.5581055
vt 0.1116333 0.5581055
vt 0.1116333 0.5581055
vn -0.5917969 0.7958984 -0.1275635
vn -0.4697266 0.2297363 -0.8525391
vn -0.6723633 -0.0009460449 -0.7402344
vn -0.9960938 0.02844238 -0.08221436
vn -0.4177246 0.3217773 0.8496094
vn -0.6640625 0.01757813 -0.7470703
vn -0.7841797 0.009063721 0.6206055
vn -0.9951172 0.05023193 -0.08233643
vn -0.7773438 0.027771 0.628418
vn -0.6308594 0.1929932 -0.7514648
vn -0.9702148 0.2277832 -0.081604
vn -0.7451172 0.203125 0.6352539
vn -0.4399414 0.6782227 -0.5888672
vn -0.1696777 0.6918945 -0.7016602
vn 0.1098633 0.9482422 -0.298584
vn -0.7089844 0.7026367 -0.06359863
vn -0.07836914 0.9750977 -0.2084961
vn 0.08905029 0.9960938 0.004180908
vn 0.2827148 0.9423828 -0.1785889
vn 0.3574219 0.9335938 0.02252197
vn 0.2446289 0.9467773 0.2089844
vn 0.05950928 0.9492188 0.3093262
vn -0.5292969 0.6865234 0.4987793
vn -0.2814941 0.7026367 0.6538086
vn -0.1853027 0.9824219 -0.02252197
vn -0.104187 0.9780273 0.1800537
vn -0.09069824 0.3710938 -0.9243164
vn -0.4023438 -0.02258301 -0.9150391
vn -0.7802734 -0.08966064 -0.6191406
vn -0.1330566 0.003082275 -0.9912109
vn 0.6186523 0.3762207 -0.6899414
vn 0.6015625 0.1553955 -0.7836914
vn 0.9301758 0.3620605 -0.05670166
vn 0.9785156 0.1962891 -0.05914307
vn 0.6987305 0.3737793 0.6103516
vn 0.6948242 0.1433105 0.7050781
vn 0.02386475 0.3681641 0.9296875
vn -0.006378174 -0.01150513 1
vn -0.2878418 -0.02542114 0.9575195
vn -0.6948242 -0.09942627 0.7124023
vn -0.6577148 -0.3825684 -0.6489258
vn -0.1901855 -0.06011963 -0.9799805
vn 0.3718262 0.3830566 -0.8457031
vn 0.7592773 0.6494141 -0.0418396
vn 0.4758301 0.3652344 0.800293
vn -0.06640625 -0.08148193 0.9946289
vn -0.8295898 -0.5566406 0.04559326
vn -0.9868164 -0.1506348 0.06182861
vn -0.5732422 -0.3967285 0.7167969
vn -0.2047119 -0.0479126 -0.9775391
vn 0.0305481 0.6582031 -0.7519531
vn 0.2817383 0.9594727 0.004516602
vn -0.3679199 -0.6757813 -0.6391602
vn -0.5166016 -0.22229 -0.8271484
vn 0.2915039 0.565918 0.7709961
vn 0.07061768 -0.1124268 0.9912109
vn -0.1928711 -0.7080078 0.6791992
vn -0.4006348 -0.9160156 0.01904297
vn -0.3605957 0.00112915 -0.9326172
vn -0.4697266 0.2297363 -0.8525391
vn -0.5917969 0.7958984 -0.1275635
vn -0.4177246 0.3217773 0.8496094
vn -0.6879883 -0.71875 -0.1013794
vn -0.2287598 -0.05743408 0.9716797
vn -0.5161133 -0.3500977 0.7817383
vn 0.09570313 -0.01724243 -0.9951172
vn 0.06738281 0.00100708 -0.9975586
vn 0.09881592 -0.06231689 -0.9931641
vn -0.6723633 -0.0009460449 -0.7402344
vn 0.1110229 -0.03253174 -0.9931641
vn 0.5678711 0.2069092 -0.796875
vn -0.6640625 0.01757813 -0.7470703
vn 0.3391113 -0.03079224 -0.9404297
vn 0.1091919 0.1442871 -0.9833984
vn -0.6308594 0.1929932 -0.7514648
vn -0.1696777 0.6918945 -0.7016602
vn 0.5405273 -0.279541 -0.793457
vn 0.7709961 0.08068848 -0.6318359
vn 0.1151123 0.6455078 -0.7548828
vn 0.1098633 0.9482422 -0.298584
vn 0.2827148 0.9423828 -0.1785889
vn 0.6313477 0.6035156 -0.4870605
vn 0.3574219 0.9335938 0.02252197
vn 0.8066406 0.5878906 0.06207275
vn 0.2446289 0.9467773 0.2089844
vn 0.9941406 0.0703125 0.08135986
vn 0.5439453 0.6113281 0.574707
vn 0.05950928 0.9492188 0.3093262
vn -0.009216309 0.6572266 0.7539063
vn -0.2814941 0.7026367 0.6538086
vn 0.6572266 0.09094238 0.7480469
vn -0.05303955 0.1591797 0.9858398
vn -0.7451172 0.203125 0.6352539
vn 0.7158203 0.6928711 0.08410645
vn -0.052948 -0.01782227 0.9985352
vn -0.7773438 0.027771 0.628418
vn 0.5087891 0.1467285 0.8481445
vn -0.06506348 -0.04760742 0.996582
vn -0.7841797 0.009063721 0.6206055
vn 0.3413086 -0.03582764 0.9394531
vn 0.4916992 -0.2125244 0.8442383
vn -0.06842041 -0.002532959 0.9975586
vn -0.09667969 0.01574707 0.9951172
vn 0.6401367 -0.01702881 0.7680664
vn -0.1403809 -0.05108643 0.9887695
vn 0.6391602 -0.06799316 0.7661133
vn 0.5043945 0.6152344 0.6054688
vn 0.4780273 -0.002990723 0.878418
vn 0.4465332 0.894043 -0.03411865
vn 0.3701172 0.6396484 -0.6738281
vn 0.2858887 0.01730347 -0.9580078
vn 0.2561035 -0.6801758 -0.6870117
vn 0.8833008 0.4575195 -0.1009521
vn 0.8242188 0.3234863 -0.4645996
vn 0.9916992 -0.04388428 -0.1193848
vn 0.9116211 0.3156738 0.2631836
vn 0.7915039 -0.02429199 -0.6108398
vn 0.7807617 -0.3850098 -0.4919434
vn 0.9135742 -0.0352478 0.4055176
vn 0.8408203 -0.5307617 -0.1065063
vn 0.3952637 -0.6835938 0.6132813
vn 0.8740234 -0.3933105 0.2851563
vn 0.302002 -0.9526367 -0.03866577
vn 0.5585938 -0.8256836 0.08227539
vn 0.9941406 -0.07049561 0.08239746
vn 0.7573242 -0.02755737 -0.6523438
vn 0.9926758 -0.08905029 0.08294678
vn 0.02374268 -0.06091309 -0.9980469
vn 0.7568359 -0.07513428 -0.6494141
vn 0.9428711 -0.3239746 0.07836914
vn 0.7207031 -0.3203125 -0.6147461
vn 0.04730225 -0.3041992 -0.9516602
vn -0.6293945 -0.2832031 -0.7236328
vn 0.6098633 -0.3183594 0.7255859
vn -0.9545898 -0.2873535 -0.07836914
vn -0.1099243 -0.3015137 0.9472656
vn -0.7397461 -0.28125 0.6113281
vn 0.4543457 -0.8032227 -0.3847656
vn 0.5932617 -0.8032227 0.04904175
vn 0 -1 0
vn 0.04904175 -0.8032227 -0.5932617
vn 0.3847656 -0.8032227 0.4543457
vn -0.3847656 -0.8032227 -0.4543457
vn -0.04904175 -0.8032227 0.5932617
vn -0.5932617 -0.8032227 -0.04904175
vn -0.4543457 -0.8032227 0.3847656
vn -0.7802734 -0.08966064 -0.6191406
vn -0.4023438 -0.02258301 -0.9150391
vn -0.7304688 0.3498535 -0.5864258
vn -0.9868164 -0.1506348 0.06182861
vn -0.09069824 0.3710938 -0.9243164
vn -0.9418945 0.3308105 0.05865479
vn -0.6948242 -0.09942627 0.7124023
vn -0.652832 0.3481445 0.6728516
vn -0.2878418 -0.02542114 0.9575195
vn 0.02386475 0.3681641 0.9296875
vn -0.01196289 0.8754883 -0.4829102
vn -0.3747559 0.8764648 -0.3022461
vn 0.04425049 0.9990234 -0.0008850098
vn 0.3911133 0.8486328 -0.3557129
vn 0.6186523 0.3762207 -0.6899414
vn -0.4865723 0.8730469 0.03158569
vn 0.5537109 0.8320313 -0.03262329
vn 0.9301758 0.3620605 -0.05670166
vn -0.3347168 0.8754883 0.3491211
vn 0.4318848 0.8476563 0.3081055
vn 0.6987305 0.3737793 0.6103516
vn 0.04763794 0.8740234 0.4838867
g desert_cactus_01_0
f 3/3/3 2/2/2 1/1/1
f 4/4/4 3/3/3 1/1/1
f 4/4/4 1/1/1 5/5/5
f 6/6/6 3/3/3 4/4/4
f 7/7/7 4/4/4 5/5/5
f 8/8/8 6/6/6 4/4/4
f 8/8/8 4/4/4 7/7/7
f 9/9/9 8/8/8 7/7/7
f 10/10/10 6/6/6 8/8/8
f 11/11/11 8/8/8 9/9/9
f 11/11/11 10/10/10 8/8/8
f 12/12/12 11/11/11 9/9/9
f 13/13/13 10/10/10 11/11/11
f 13/13/13 14/14/14 10/10/10
f 15/15/15 14/14/14 13/13/13
f 16/16/16 11/11/11 12/12/12
f 16/16/16 13/13/13 11/11/11
f 17/17/17 15/15/15 13/13/13
f 17/17/17 13/13/13 16/16/16
f 18/18/18 15/15/15 17/17/17
f 18/18/18 19/19/19 15/15/15
f 18/18/18 20/20/20 19/19/19
f 18/18/18 21/21/21 20/20/20
f 18/18/18 22/22/22 21/21/21
f 23/23/23 16/16/16 12/12/12
f 23/23/23 12/12/12 24/24/24
f 23/23/23 24/24/24 22/22/22
f 25/25/25 17/17/17 16/16/16
f 18/18/18 17/17/17 25/25/25
f 25/25/25 16/16/16 23/23/23
f 18/18/18 26/26/26 22/22/22
f 26/26/26 23/23/23 22/22/22
f 26/26/26 25/25/25 23/23/23
f 18/18/18 25/25/25 26/26/26
f 29/29/29 28/28/28 27/27/27
f 30/30/30 29/29/29 27/27/27
f 27/27/27 31/31/31 30/30/30
f 31/31/31 32/32/32 30/30/30
f 31/31/31 33/33/33 32/32/32
f 33/33/33 34/34/34 32/32/32
f 33/33/33 35/35/35 34/34/34
f 35/35/35 36/36/36 34/34/34
f 35/35/35 37/37/37 36/36/36
f 37/37/37 38/38/38 36/36/36
f 37/37/37 39/39/39 38/38/38
f 39/39/39 40/40/40 38/38/38
f 29/29/29 30/30/30 41/41/41
f 30/30/30 32/32/32 42/42/42
f 30/30/30 42/42/42 41/41/41
f 32/32/32 34/34/34 43/43/43
f 32/32/32 43/43/43 42/42/42
f 34/34/34 36/36/36 44/44/44
f 34/34/34 44/44/44 43/43/43
f 45/45/45 36/36/36 38/38/38
f 36/36/36 45/45/45 44/44/44
f 46/46/46 38/38/38 40/40/40
f 46/46/46 45/45/45 38/38/38
f 41/41/41 47/47/47 29/29/29
f 47/47/47 48/48/48 29/29/29
f 49/49/49 40/40/40 48/48/48
f 49/49/49 46/46/46 40/40/40
f 47/47/47 49/49/49 48/48/48
f 42/42/42 43/43/43 50/50/50
f 43/43/43 44/44/44 51/51/51
f 43/43/43 51/51/51 50/50/50
f 44/44/44 45/45/45 52/52/52
f 44/44/44 52/52/52 51/51/51
f 41/41/41 42/42/42 53/53/53
f 42/42/42 50/50/50 53/53/53
f 53/53/53 50/50/50 54/54/54
f 55/55/55 45/45/45 46/46/46
f 45/45/45 55/55/55 52/52/52
f 56/56/56 46/46/46 49/49/49
f 56/56/56 55/55/55 46/46/46
f 57/57/57 49/49/49 47/47/47
f 57/57/57 56/56/56 49/49/49
f 58/58/58 47/47/47 41/41/41
f 53/53/53 58/58/58 41/41/41
f 58/58/58 57/57/57 47/47/47
f 50/50/50 51/51/51 59/59/59
f 50/50/50 59/59/59 54/54/54
f 51/51/51 52/52/52 60/60/60
f 51/51/51 60/60/60 59/59/59
f 52/52/52 55/55/55 61/61/61
f 52/52/52 61/61/61 60/60/60
f 55/55/55 62/62/62 61/61/61
f 55/55/55 56/56/56 62/62/62
f 58/58/58 53/53/53 63/63/63
f 53/53/53 54/54/54 63/63/63
f 56/56/56 57/57/57 64/64/64
f 56/56/56 64/64/64 62/62/62
f 57/57/57 58/58/58 65/65/65
f 58/58/58 63/63/63 65/65/65
f 57/57/57 65/65/65 64/64/64
f 60/60/60 66/66/66 59/59/59
f 59/59/59 67/67/67 54/54/54
f 66/66/66 67/67/67 59/59/59
f 68/68/68 66/66/66 60/60/60
f 69/69/69 68/68/68 60/60/60
f 70/70/70 68/68/68 69/69/69
f 70/70/70 71/71/71 68/68/68
f 72/72/72 70/70/70 69/69/69
f 68/68/68 73/73/73 66/66/66
f 71/71/71 73/73/73 68/68/68
f 74/74/74 70/70/70 72/72/72
f 75/75/75 74/74/74 72/72/72
f 74/74/74 75/75/75 76/76/76
f 66/66/66 77/77/77 67/67/67
f 73/73/73 77/77/77 66/66/66
f 78/78/78 71/71/71 70/70/70
f 74/74/74 78/78/78 70/70/70
f 79/79/79 74/74/74 76/76/76
f 79/79/79 76/76/76 80/80/80
f 80/80/80 81/81/81 79/79/79
f 79/79/79 82/82/82 74/74/74
f 81/81/81 82/82/82 79/79/79
f 82/82/82 78/78/78 74/74/74
f 81/81/81 83/83/83 82/82/82
f 83/83/83 84/84/84 82/82/82
f 82/82/82 84/84/84 78/78/78
f 83/83/83 85/85/85 84/84/84
f 84/84/84 86/86/86 78/78/78
f 78/78/78 86/86/86 71/71/71
f 85/85/85 87/87/87 84/84/84
f 84/84/84 87/87/87 86/86/86
f 85/85/85 88/88/88 87/87/87
f 88/88/88 89/89/89 87/87/87
f 88/88/88 90/90/90 89/89/89
f 87/87/87 91/91/91 86/86/86
f 87/87/87 89/89/89 91/91/91
f 89/89/89 90/90/90 92/92/92
f 89/89/89 92/92/92 91/91/91
f 90/90/90 93/93/93 92/92/92
f 86/86/86 91/91/91 94/94/94
f 86/86/86 94/94/94 71/71/71
f 92/92/92 93/93/93 95/95/95
f 93/93/93 96/96/96 95/95/95
f 91/91/91 92/92/92 97/97/97
f 91/91/91 97/97/97 94/94/94
f 92/92/92 95/95/95 97/97/97
f 95/95/95 96/96/96 98/98/98
f 96/96/96 99/99/99 98/98/98
f 97/97/97 95/95/95 100/100/100
f 95/95/95 98/98/98 100/100/100
f 100/100/100 98/98/98 101/101/101
f 98/98/98 99/99/99 102/102/102
f 98/98/98 102/102/102 101/101/101
f 99/99/99 62/62/62 102/102/102
f 102/102/102 62/62/62 103/103/103
f 62/62/62 64/64/64 103/103/103
f 101/101/101 102/102/102 104/104/104
f 102/102/102 103/103/103 104/104/104
f 103/103/103 64/64/64 105/105/105
f 64/64/64 65/65/65 105/105/105
f 104/104/104 103/103/103 106/106/106
f 103/103/103 105/105/105 106/106/106
f 107/107/107 97/97/97 100/100/100
f 108/108/108 100/100/100 101/101/101
f 108/108/108 107/107/107 100/100/100
f 107/107/107 109/109/109 97/97/97
f 109/109/109 94/94/94 97/97/97
f 109/109/109 110/110/110 94/94/94
f 110/110/110 71/71/71 94/94/94
f 110/110/110 111/111/111 71/71/71
f 111/111/111 73/73/73 71/71/71
f 111/111/111 112/112/112 73/73/73
f 112/112/112 77/77/77 73/73/73
f 113/113/113 109/109/109 107/107/107
f 114/114/114 110/110/110 109/109/109
f 113/113/113 114/114/114 109/109/109
f 115/115/115 114/114/114 113/113/113
f 116/116/116 113/113/113 107/107/107
f 116/116/116 107/107/107 108/108/108
f 115/115/115 113/113/113 116/116/116
f 114/114/114 117/117/117 110/110/110
f 117/117/117 111/111/111 110/110/110
f 115/115/115 117/117/117 114/114/114
f 117/117/117 118/118/118 111/111/111
f 118/118/118 112/112/112 111/111/111
f 115/115/115 118/118/118 117/117/117
f 119/119/119 116/116/116 108/108/108
f 115/115/115 116/116/116 119/119/119
f 118/118/118 120/120/120 112/112/112
f 115/115/115 120/120/120 118/118/118
f 119/119/119 108/108/108 121/121/121
f 121/121/121 108/108/108 101/101/101
f 115/115/115 119/119/119 122/122/122
f 115/115/115 122/122/122 120/120/120
f 122/122/122 119/119/119 121/121/121
f 120/120/120 123/123/123 112/112/112
f 120/120/120 122/122/122 123/123/123
f 122/122/122 121/121/121 123/123/123
f 112/112/112 123/123/123 77/77/77
f 123/123/123 121/121/121 124/124/124
f 121/121/121 101/101/101 124/124/124
f 123/123/123 124/124/124 77/77/77
f 124/124/124 101/101/101 125/125/125
f 101/101/101 104/104/104 125/125/125
f 77/77/77 124/124/124 126/126/126
f 124/124/124 125/125/125 126/126/126
f 77/77/77 126/126/126 67/67/67
f 125/125/125 104/104/104 127/127/127
f 104/104/104 106/106/106 127/127/127
f 67/67/67 126/126/126 128/128/128
f 67/67/67 128/128/128 54/54/54
f 126/126/126 125/125/125 129/129/129
f 125/125/125 127/127/127 129/129/129
f 126/126/126 129/129/129 128/128/128
f 127/127/127 106/106/106 130/130/130
f 129/129/129 127/127/127 131/131/131
f 127/127/127 130/130/130 131/131/131
f 128/128/128 129/129/129 132/132/132
f 129/129/129 131/131/131 132/132/132
f 54/54/54 128/128/128 133/133/133
f 128/128/128 132/132/132 133/133/133
f 106/106/106 134/134/134 130/130/130
f 106/106/106 105/105/105 134/134/134
f 54/54/54 133/133/133 135/135/135
f 63/63/63 54/54/54 135/135/135
f 105/105/105 136/136/136 134/134/134
f 105/105/105 65/65/65 136/136/136
f 65/65/65 63/63/63 137/137/137
f 63/63/63 135/135/135 137/137/137
f 65/65/65 137/137/137 136/136/136
f 131/131/131 138/138/138 132/132/132
f 130/130/130 139/139/139 131/131/131
f 139/139/139 138/138/138 131/131/131
f 139/139/139 140/140/140 138/138/138
f 138/138/138 141/141/141 132/132/132
f 132/132/132 141/141/141 133/133/133
f 138/138/138 140/140/140 141/141/141
f 142/142/142 139/139/139 130/130/130
f 134/134/134 142/142/142 130/130/130
f 142/142/142 140/140/140 139/139/139
f 141/141/141 143/143/143 133/133/133
f 133/133/133 143/143/143 135/135/135
f 141/141/141 140/140/140 143/143/143
f 144/144/144 142/142/142 134/134/134
f 136/136/136 144/144/144 134/134/134
f 144/144/144 140/140/140 142/142/142
f 143/143/143 145/145/145 135/135/135
f 143/143/143 140/140/140 145/145/145
f 135/135/135 145/145/145 137/137/137
f 146/146/146 144/144/144 136/136/136
f 146/146/146 140/140/140 144/144/144
f 137/137/137 146/146/146 136/136/136
f 145/145/145 146/146/146 137/137/137
f 145/145/145 140/140/140 146/146/146
f 149/149/149 148/148/148 147/147/147
f 149/149/149 147/147/147 150/150/150
f 151/151/151 148/148/148 149/149/149
f 152/152/152 149/149/149 150/150/150
f 152/152/152 150/150/150 153/153/153
f 154/154/154 152/152/152 153/153/153
f 153/153/153 155/155/155 154/154/154
f 154/154/154 155/155/155 156/156/156
f 157/157/157 151/151/151 149/149/149
f 158/158/158 149/149/149 152/152/152
f 158/158/158 157/157/157 149/149/149
f 159/159/159 157/157/157 158/158/158
f 157/157/157 160/160/160 151/151/151
f 159/159/159 160/160/160 157/157/157
f 160/160/160 161/161/161 151/151/151
f 162/162/162 158/158/158 152/152/152
f 162/162/162 152/152/152 154/154/154
f 159/159/159 158/158/158 162/162/162
f 160/160/160 163/163/163 161/161/161
f 159/159/159 163/163/163 160/160/160
f 163/163/163 164/164/164 161/161/161
f 165/165/165 162/162/162 154/154/154
f 165/165/165 154/154/154 156/156/156
f 159/159/159 162/162/162 165/165/165
f 163/163/163 166/166/166 164/164/164
f 159/159/159 166/166/166 163/163/163
f 166/166/166 167/167/167 164/164/164
f 168/168/168 165/165/165 156/156/156
f 159/159/159 165/165/165 168/168/168
f 168/168/168 156/156/156 167/167/167
f 166/166/166 168/168/168 167/167/167
f 159/159/159 168/168/168 166/166/166
