g Tree 3
v -2.672119 4.496185 0.830569
v -0.8254877 4.396572 -0.4956111
v -2.169413 4.338574 -0.3785294
v -2.045564 4.544703 1.11217
v -3.64289 5.480243 2.535622
v -3.73452 5.011361 1.306201
v -1.032137 4.664077 0.9939957
v 0.1763332 4.79269 0.3489629
v 0.9004229 5.756832 1.22326
v -1.451149 5.231494 1.785403
v -1.966457 6.221442 2.819118
v -3.454393 6.95107 3.41104
v -2.053655 8.629268 3.651927
v -4.516065 8.073075 3.217214
v -4.13688 9.569659 3.228497
v -0.4934717 6.992776 2.64207
v 0.698049 7.927425 2.361906
v 1.763592 7.692211 1.351378
v 0.09487203 9.197165 2.498362
v -2.672119 4.496185 0.830569
v -2.169413 4.338574 -0.3785294
v -3.28815 4.665031 -0.5117763
v -3.73452 5.011361 1.306201
v -4.746575 6.31167 1.330376
v -3.64289 5.480243 2.535622
v -5.0967 7.508419 2.364729
v -5.39543 9.837611 1.988206
v -4.516065 8.073075 3.217214
v -3.454393 6.95107 3.41104
v -4.13688 9.569659 3.228497
v -4.897913 6.71385 0.1269109
v -5.018021 6.976637 -1.125983
v -4.059418 5.55131 -1.935227
v -3.415369 5.400192 -2.555786
v -2.643807 4.891372 -2.088256
v -4.877146 8.007353 -2.834838
v -3.469438 6.72482 -3.410078
v -5.431781 9.194277 -0.4701759
v -5.066545 10.9522 0.3286556
v -4.394933 11.44146 1.580407
v -4.384535 11.01112 -0.8106334
v 1.867193 7.577876 0.2396032
v 0.9004229 5.756832 1.22326
v 1.763592 7.692211 1.351378
v 1.314229 6.413512 -0.15936
v 0.66401 7.382679 -1.944226
v 1.619344 8.573127 -0.7277915
v 0.8678585 9.295275 -1.853412
v 0.1780507 8.873302 -2.936751
v -0.5194758 8.203709 -3.402065
v 0.6792951 5.436766 -0.3450435
v 0.1763332 4.79269 0.3489629
v -0.8254877 4.396572 -0.4956111
v 0.05131048 5.548554 -1.337578
v -0.6675486 5.797423 -2.284072
v -0.6112665 7.020797 -3.002308
v -1.969262 6.371258 -3.222708
v -1.495901 8.365708 -3.595902
v -2.930306 8.146936 -3.629695
v -3.469438 6.72482 -3.410078
v -3.415369 5.400192 -2.555786
v -2.643807 4.891372 -2.088256
v -1.355285 5.058078 -2.070956
v -2.003046 4.612802 -1.568904
v -3.28815 4.665031 -0.5117763
v -2.169413 4.338574 -0.3785294
v 1.867193 7.577876 0.2396032
v 1.412781 9.608652 0.6647915
v 1.619344 8.573127 -0.7277915
v 1.763592 7.692211 1.351378
v 0.698049 7.927425 2.361906
v 0.09487203 9.197165 2.498362
v -0.8220984 10.48513 2.00409
v -2.053655 8.629268 3.651927
v -0.4168452 11.13875 0.5601652
v -0.2915542 11.16568 -0.8304968
v 0.5023267 10.21043 -1.412039
v -2.681191 12.02612 0.5102629
v -1.709448 11.4834 -1.378994
v -2.27092 10.73735 2.451125
v -3.600768 10.81457 2.584857
v -4.13688 9.569659 3.228497
v -4.394933 11.44146 1.580407
v -5.39543 9.837611 1.988206
v -2.930306 8.146936 -3.629695
v -4.877146 8.007353 -2.834838
v -3.469438 6.72482 -3.410078
v -3.420615 9.390583 -3.138596
v -0.9917774 10.08067 -2.877628
v -1.495901 8.365708 -3.595902
v -0.5194758 8.203709 -3.402065
v 0.1780507 8.873302 -2.936751
v 0.8678585 9.295275 -1.853412
v -3.575786 11.27098 -1.739779
v -4.384535 11.01112 -0.8106334
v -2.681191 12.02612 0.5102629
v -5.066545 10.9522 0.3286556
v -4.394933 11.44146 1.580407
v -1.709448 11.4834 -1.378994
v -0.2915542 11.16568 -0.8304968
v 0.5023267 10.21043 -1.412039
v 1.412781 9.608652 0.6647915
v 1.619344 8.573127 -0.7277915
v -0.9965388 4.325653 0.0719313
v -1.290112 5.833086 0.08172573
v -0.887011 5.833086 0.0817257
v -1.546698 4.260574 0.06495728
v -0.7912824 2.806423 0.1581651
v -1.370174 2.680223 0.1029472
v -0.5475301 1.299659 0.4313695
v -1.279566 1.213067 0.4220899
v -0.7064899 -0.2824243 0.2622477
v -1.470633 -0.2824243 0.2622478
v -1.546698 4.260574 0.06495728
v -1.290112 5.833086 -0.3213755
v -1.290112 5.833086 0.08172573
v -1.539796 4.261591 -0.4890377
v -1.370174 2.680223 0.1029472
v -1.327844 2.744239 -0.4871384
v -1.279566 1.213067 0.4220899
v -1.270382 1.21442 -0.3150495
v -1.470633 -0.2824243 0.2622478
v -1.470633 -0.2824244 -0.5018955
v -1.539796 4.261591 -0.4890377
v -0.887011 5.833086 -0.3213755
v -1.290112 5.833086 -0.3213755
v -0.9896365 4.32667 -0.4820637
v -1.327844 2.744239 -0.4871384
v -0.7489524 2.870439 -0.4319204
v -1.270382 1.21442 -0.3150495
v -0.5383459 1.301013 -0.3057699
v -1.470633 -0.2824244 -0.5018955
v -0.70649 -0.2824244 -0.5018955
v -0.9896365 4.32667 -0.4820637
v -0.887011 5.833086 0.0817257
v -0.887011 5.833086 -0.3213755
v -0.9965388 4.325653 0.0719313
v -0.7489524 2.870439 -0.4319204
v -0.7912824 2.806423 0.1581651
v -0.5383459 1.301013 -0.3057699
v -0.5475301 1.299659 0.4313695
v -0.70649 -0.2824244 -0.5018955
v -0.7064899 -0.2824243 0.2622477
v -1.470633 -0.2824243 0.2622478
v -0.7064899 -0.2824243 0.2622477
v -0.70649 -0.2824244 -0.5018955
v -1.470633 -0.2824244 -0.5018955
v -1.290112 5.833086 -0.3213755
v -0.887011 5.833086 -0.3213755
v -0.887011 5.833086 0.0817257
v -1.290112 5.833086 0.08172573
vt 0.4875488 0.7285156
vt 0.4782715 0.8808594
vt 0.4968262 0.8022461
vt 0.4750977 0.7529297
vt 0.4616699 0.5957031
vt 0.486084 0.6425781
vt 0.4597168 0.8115234
vt 0.4470215 0.8999023
vt 0.4069824 0.8916016
vt 0.4448242 0.7495117
vt 0.4196777 0.6660156
vt 0.4179688 0.5478516
vt 0.3598633 0.5869141
vt 0.4104004 0.4743652
vt 0.3725586 0.4675293
vt 0.3845215 0.7407227
vt 0.3505859 0.800293
vt 0.3518066 0.8999023
vt 0.3300781 0.737793
vt 0.01989746 0.4294434
vt 0.04135132 0.4963379
vt 0.05569458 0.4663086
vt 0.02340698 0.3654785
vt 0.04907227 0.2797852
vt 0.00312233 0.2912598
vt 0.04705811 0.168335
vt 0.09387207 0.05700684
vt 0.03390503 0.1127319
vt 0.005977631 0.1807861
vt 0.05523682 0.04003906
vt 0.08288574 0.3061523
vt 0.1154175 0.3425293
vt 0.1054688 0.4665527
vt 0.1132202 0.5107422
vt 0.09057617 0.5307617
vt 0.1688232 0.3618164
vt 0.1534424 0.4760742
vt 0.1383057 0.1922607
vt 0.1463623 0.07293701
vt 0.1227417 0.006244659
vt 0.1688232 0.128418
vt 0.06341553 0.9677734
vt 0.006690979 0.8974609
vt 0.04421997 0.9936523
vt 0.04699707 0.8989258
vt 0.09967041 0.8330078
vt 0.1015015 0.9482422
vt 0.1364746 0.8881836
vt 0.1478271 0.809082
vt 0.142334 0.7407227
vt 0.03007507 0.8354492
vt 0.00312233 0.8100586
vt 0.009918213 0.7192383
vt 0.05044556 0.7734375
vt 0.07250977 0.7104492
vt 0.1108398 0.7207031
vt 0.1000366 0.6196289
vt 0.1478271 0.6806641
vt 0.1419678 0.5893555
vt 0.1084595 0.5327148
vt 0.06567383 0.5307617
vt 0.04766846 0.5786133
vt 0.0526123 0.6591797
vt 0.03308105 0.6245117
vt 0.01190186 0.5776367
vt 0.004493713 0.6411133
vt 0.1800537 0.5073242
vt 0.2197266 0.5166016
vt 0.2156982 0.4675293
vt 0.1688232 0.5546875
vt 0.1757813 0.6484375
vt 0.2071533 0.6665039
vt 0.2521973 0.6767578
vt 0.2133789 0.8374023
vt 0.277832 0.5878906
vt 0.295166 0.5268555
vt 0.2729492 0.4758301
vt 0.3295898 0.6953125
vt 0.3300781 0.5776367
vt 0.2727051 0.769043
vt 0.2927246 0.8457031
vt 0.2685547 0.9199219
vt 0.3300781 0.8398438
vt 0.3093262 0.9355469
vt 0.3037109 0.07904053
vt 0.3535156 0.1021729
vt 0.3139648 0.006244659
vt 0.3181152 0.1691895
vt 0.2521973 0.2177734
vt 0.2646484 0.09228516
vt 0.2368164 0.09008789
vt 0.2175293 0.1459961
vt 0.1954346 0.2113037
vt 0.3215332 0.3303223
vt 0.3393555 0.3513184
vt 0.2900391 0.4594727
vt 0.3535156 0.3918457
vt 0.3312988 0.4675293
vt 0.2695313 0.3557129
vt 0.2277832 0.3579102
vt 0.2060547 0.2807617
vt 0.1715088 0.3254395
vt 0.1688232 0.2127686
vt 0.6547852 0.2553711
vt 0.6831055 0.01702881
vt 0.6401367 0.01812744
vt 0.7138672 0.263916
vt 0.6357422 0.4956055
vt 0.6977539 0.5136719
vt 0.6113281 0.7348633
vt 0.6899414 0.746582
vt 0.6323242 0.9829102
vt 0.7138672 0.980957
vt 0.8505859 0.2658691
vt 0.8930664 0.01728821
vt 0.8500977 0.01702881
vt 0.909668 0.2661133
vt 0.8461914 0.5141602
vt 0.909668 0.5043945
vt 0.8120117 0.7446289
vt 0.890625 0.7451172
vt 0.828125 0.9814453
vt 0.909668 0.9819336
vt 0.6113281 0.7348633
vt 0.5385742 0.9819336
vt 0.581543 0.9829102
vt 0.5522461 0.7441406
vt 0.5913086 0.4956055
vt 0.5288086 0.5141602
vt 0.5869141 0.255127
vt 0.5083008 0.2670898
vt 0.6113281 0.01896667
vt 0.5297852 0.01702881
vt 0.8120117 0.7446289
vt 0.7529297 0.9819336
vt 0.7958984 0.9814453
vt 0.7529297 0.7451172
vt 0.8066406 0.5141602
vt 0.7431641 0.5048828
vt 0.7924805 0.2658691
vt 0.7138672 0.2663574
vt 0.8120117 0.01702881
vt 0.7304688 0.01763916
vt 0.909668 0.01702881
vt 0.909668 0.1374512
vt 0.9916992 0.1374512
vt 0.9916992 0.01702881
vt 0.9526367 0.1374512
vt 0.909668 0.1374512
vt 0.909668 0.2010498
vt 0.9526367 0.2010498
vn -0.2092285 -0.9584961 0.1934814
vn 0.3186035 -0.9267578 -0.197998
vn -0.09643555 -0.9921875 -0.07897949
vn 0.06018066 -0.9057617 0.4196777
vn -0.3591309 -0.6611328 0.6586914
vn -0.6547852 -0.7421875 0.1411133
vn 0.2473145 -0.8500977 0.4650879
vn 0.5214844 -0.8359375 0.1719971
vn 0.6235352 -0.5532227 0.5517578
vn 0.2565918 -0.6445313 0.7202148
vn 0.2332764 -0.4741211 0.8491211
vn -0.1381836 -0.3166504 0.9384766
vn 0.1848145 0.1138306 0.9760742
vn -0.5043945 -0.06365967 0.8613281
vn -0.3310547 0.3029785 0.8935547
vn 0.3874512 -0.3300781 0.8608398
vn 0.5917969 -0.03820801 0.8051758
vn 0.862793 -0.06130981 0.5024414
vn 0.5209961 0.371582 0.7685547
vn -0.2092285 -0.9584961 0.1934814
vn -0.09643555 -0.9921875 -0.07897949
vn -0.6098633 -0.7885742 -0.07922363
vn -0.6547852 -0.7421875 0.1411133
vn -0.8920898 -0.4465332 0.06610107
vn -0.3591309 -0.6611328 0.6586914
vn -0.90625 -0.2429199 0.345459
vn -0.9306641 0.1811523 0.3178711
vn -0.5043945 -0.06365967 0.8613281
vn -0.1381836 -0.3166504 0.9384766
vn -0.3310547 0.3029785 0.8935547
vn -0.9296875 -0.3688965 0.002748489
vn -0.9389648 -0.3325195 -0.0881958
vn -0.7768555 -0.5683594 -0.2709961
vn -0.3754883 -0.6494141 -0.6616211
vn -0.1444092 -0.8081055 -0.5708008
vn -0.8154297 0.03240967 -0.578125
vn -0.3293457 -0.3054199 -0.8935547
vn -0.9824219 0.08575439 -0.1663818
vn -0.7836914 0.6000977 -0.1595459
vn -0.489502 0.8188477 0.2998047
vn -0.6152344 0.6757813 -0.4055176
vn 0.9794922 -0.1455078 -0.1380615
vn 0.6235352 -0.5532227 0.5517578
vn 0.862793 -0.06130981 0.5024414
vn 0.875 -0.4047852 -0.2651367
vn 0.7758789 -0.2653809 -0.5717773
vn 0.9384766 0.1132202 -0.3256836
vn 0.8076172 0.3068848 -0.5029297
vn 0.6430664 0.1728516 -0.7460938
vn 0.4309082 -0.06155396 -0.9003906
vn 0.7490234 -0.5800781 -0.3195801
vn 0.5214844 -0.8359375 0.1719971
vn 0.3186035 -0.9267578 -0.197998
vn 0.6450195 -0.5566406 -0.5234375
vn 0.5209961 -0.5288086 -0.6704102
vn 0.4899902 -0.362793 -0.7929688
vn 0.1431885 -0.4187012 -0.8969727
vn 0.1022949 0.1231689 -0.9873047
vn -0.1333008 0.1029663 -0.9858398
vn -0.3293457 -0.3054199 -0.8935547
vn -0.3754883 -0.6494141 -0.6616211
vn -0.1444092 -0.8081055 -0.5708008
vn 0.300293 -0.7202148 -0.6254883
vn 0.0004527569 -0.9047852 -0.425293
vn -0.6098633 -0.7885742 -0.07922363
vn -0.09643555 -0.9921875 -0.07897949
vn 0.9794922 -0.1455078 -0.1380615
vn 0.7988281 0.5424805 0.2592773
vn 0.9384766 0.1132202 -0.3256836
vn 0.862793 -0.06130981 0.5024414
vn 0.5917969 -0.03820801 0.8051758
vn 0.5209961 0.371582 0.7685547
vn 0.4016113 0.675293 0.6186523
vn 0.1848145 0.1138306 0.9760742
vn 0.4885254 0.8354492 0.2519531
vn 0.5 0.8398438 -0.2110596
vn 0.6601563 0.6694336 -0.3410645
vn 0.01953125 0.9921875 0.1226196
vn 0.112854 0.8759766 -0.4689941
vn 0.2058105 0.6821289 0.7016602
vn -0.1125488 0.6630859 0.7402344
vn -0.3310547 0.3029785 0.8935547
vn -0.489502 0.8188477 0.2998047
vn -0.9306641 0.1811523 0.3178711
vn -0.1333008 0.1029663 -0.9858398
vn -0.8154297 0.03240967 -0.578125
vn -0.3293457 -0.3054199 -0.8935547
vn -0.3374023 0.4797363 -0.8100586
vn 0.1849365 0.6088867 -0.7709961
vn 0.1022949 0.1231689 -0.9873047
vn 0.4309082 -0.06155396 -0.9003906
vn 0.6430664 0.1728516 -0.7460938
vn 0.8076172 0.3068848 -0.5029297
vn -0.331543 0.7368164 -0.5888672
vn -0.6152344 0.6757813 -0.4055176
vn 0.01953125 0.9921875 0.1226196
vn -0.7836914 0.6000977 -0.1595459
vn -0.489502 0.8188477 0.2998047
vn 0.112854 0.8759766 -0.4689941
vn 0.5 0.8398438 -0.2110596
vn 0.6601563 0.6694336 -0.3410645
vn 0.7988281 0.5424805 0.2592773
vn 0.9384766 0.1132202 -0.3256836
vn -0.03503418 0.01340485 0.9995117
vn -0.006782532 -0.007820129 1
vn -0.006782532 -0.007820129 1
vn -0.03903198 0.01641846 0.9990234
vn -0.06988525 0.1118164 0.9912109
vn -0.07086182 0.1200562 0.9902344
vn -0.03955078 0.04003906 0.9985352
vn -0.03366089 0.01805115 0.9995117
vn -1.585484E-05 -0.1062622 0.9941406
vn -1.585484E-05 -0.1062622 0.9941406
vn -0.9995117 0.005222321 -0.0304718
vn -0.9873047 0.1594238 -0.006950378
vn -0.9873047 0.1594238 -0.006950378
vn -0.9995117 0.001335144 -0.03106689
vn -0.9956055 -0.08428955 -0.04489136
vn -0.9946289 -0.09240723 -0.04586792
vn -0.9985352 0.04736328 -0.02189636
vn -0.9990234 0.04382324 -0.02258301
vn -0.9912109 0.1303711 -0.005947113
vn -0.9912109 0.1303711 -0.005947113
vn 0.03314209 0.03890991 -0.9985352
vn 3.302097E-05 0.1060791 -0.9941406
vn 3.302097E-05 0.1060791 -0.9941406
vn 0.02946472 0.0463562 -0.9985352
vn 0.06063843 -0.0562439 -0.996582
vn 0.0602417 -0.05169678 -0.9970703
vn 0.02653503 0.03308105 -0.9990234
vn 0.03204346 0.01483917 -0.9995117
vn -0.000992775 0.1234741 -0.9921875
vn -0.000992775 0.1234741 -0.9921875
vn 0.9980469 0.05224609 0.03167725
vn 0.9975586 -0.07061768 0.007118225
vn 0.9975586 -0.07061768 0.007118225
vn 0.9980469 0.05151367 0.03152466
vn 0.9873047 0.151001 0.0484314
vn 0.9873047 0.1512451 0.04785156
vn 0.9995117 0.01313782 0.02436829
vn 0.9995117 0.01135254 0.02407837
vn 0.9946289 -0.1034546 0.005992889
vn 0.9946289 -0.1034546 0.005992889
vn 0 -1 0
vn 0 -1 0
vn 0 -1 0
vn 0 -1 0
vn 0 1 0
vn 0 1 0
vn 0 1 0
vn 0 1 0
g Tree 3_0
f 3/3/3 2/2/2 1/1/1
f 2/2/2 4/4/4 1/1/1
f 4/4/4 5/5/5 1/1/1
f 5/5/5 6/6/6 1/1/1
f 4/4/4 2/2/2 7/7/7
f 5/5/5 4/4/4 7/7/7
f 2/2/2 8/8/8 7/7/7
f 8/8/8 9/9/9 7/7/7
f 10/10/10 5/5/5 7/7/7
f 9/9/9 10/10/10 7/7/7
f 5/5/5 10/10/10 11/11/11
f 10/10/10 9/9/9 11/11/11
f 12/12/12 5/5/5 11/11/11
f 13/13/13 12/12/12 11/11/11
f 12/12/12 13/13/13 14/14/14
f 13/13/13 15/15/15 14/14/14
f 9/9/9 16/16/16 11/11/11
f 16/16/16 13/13/13 11/11/11
f 16/16/16 9/9/9 17/17/17
f 13/13/13 16/16/16 17/17/17
f 9/9/9 18/18/18 17/17/17
f 19/19/19 13/13/13 17/17/17
f 22/22/22 21/21/21 20/20/20
f 23/23/23 22/22/22 20/20/20
f 22/22/22 23/23/23 24/24/24
f 23/23/23 25/25/25 24/24/24
f 25/25/25 26/26/26 24/24/24
f 26/26/26 27/27/27 24/24/24
f 26/26/26 25/25/25 28/28/28
f 27/27/27 26/26/26 28/28/28
f 25/25/25 29/29/29 28/28/28
f 30/30/30 27/27/27 28/28/28
f 31/31/31 22/22/22 24/24/24
f 27/27/27 31/31/31 24/24/24
f 22/22/22 31/31/31 32/32/32
f 31/31/31 27/27/27 32/32/32
f 33/33/33 22/22/22 32/32/32
f 22/22/22 33/33/33 34/34/34
f 35/35/35 22/22/22 34/34/34
f 33/33/33 36/36/36 34/34/34
f 36/36/36 33/33/33 32/32/32
f 36/36/36 37/37/37 34/34/34
f 27/27/27 38/38/38 32/32/32
f 38/38/38 36/36/36 32/32/32
f 38/38/38 27/27/27 39/39/39
f 36/36/36 38/38/38 39/39/39
f 27/27/27 40/40/40 39/39/39
f 41/41/41 36/36/36 39/39/39
f 44/44/44 43/43/43 42/42/42
f 43/43/43 45/45/45 42/42/42
f 45/45/45 46/46/46 42/42/42
f 46/46/46 47/47/47 42/42/42
f 47/47/47 46/46/46 48/48/48
f 46/46/46 49/49/49 48/48/48
f 49/49/49 46/46/46 50/50/50
f 45/45/45 43/43/43 51/51/51
f 46/46/46 45/45/45 51/51/51
f 43/43/43 52/52/52 51/51/51
f 52/52/52 53/53/53 51/51/51
f 54/54/54 46/46/46 51/51/51
f 53/53/53 54/54/54 51/51/51
f 46/46/46 54/54/54 55/55/55
f 54/54/54 53/53/53 55/55/55
f 46/46/46 56/56/56 50/50/50
f 56/56/56 46/46/46 55/55/55
f 56/56/56 57/57/57 50/50/50
f 57/57/57 56/56/56 55/55/55
f 57/57/57 58/58/58 50/50/50
f 58/58/58 57/57/57 59/59/59
f 57/57/57 60/60/60 59/59/59
f 60/60/60 57/57/57 61/61/61
f 57/57/57 62/62/62 61/61/61
f 53/53/53 63/63/63 55/55/55
f 63/63/63 57/57/57 55/55/55
f 62/62/62 57/57/57 64/64/64
f 57/57/57 63/63/63 64/64/64
f 63/63/63 53/53/53 64/64/64
f 65/65/65 62/62/62 64/64/64
f 53/53/53 66/66/66 64/64/64
f 66/66/66 65/65/65 64/64/64
f 69/69/69 68/68/68 67/67/67
f 68/68/68 70/70/70 67/67/67
f 70/70/70 68/68/68 71/71/71
f 68/68/68 72/72/72 71/71/71
f 72/72/72 68/68/68 73/73/73
f 74/74/74 72/72/72 73/73/73
f 68/68/68 75/75/75 73/73/73
f 75/75/75 68/68/68 76/76/76
f 68/68/68 77/77/77 76/76/76
f 78/78/78 75/75/75 76/76/76
f 75/75/75 78/78/78 73/73/73
f 79/79/79 78/78/78 76/76/76
f 80/80/80 74/74/74 73/73/73
f 78/78/78 80/80/80 73/73/73
f 74/74/74 80/80/80 81/81/81
f 80/80/80 78/78/78 81/81/81
f 82/82/82 74/74/74 81/81/81
f 78/78/78 83/83/83 81/81/81
f 84/84/84 82/82/82 81/81/81
f 83/83/83 84/84/84 81/81/81
f 87/87/87 86/86/86 85/85/85
f 86/86/86 88/88/88 85/85/85
f 88/88/88 89/89/89 85/85/85
f 89/89/89 90/90/90 85/85/85
f 90/90/90 89/89/89 91/91/91
f 89/89/89 92/92/92 91/91/91
f 92/92/92 89/89/89 93/93/93
f 88/88/88 86/86/86 94/94/94
f 89/89/89 88/88/88 94/94/94
f 86/86/86 95/95/95 94/94/94
f 95/95/95 96/96/96 94/94/94
f 96/96/96 95/95/95 97/97/97
f 98/98/98 96/96/96 97/97/97
f 96/96/96 99/99/99 94/94/94
f 99/99/99 89/89/89 94/94/94
f 89/89/89 99/99/99 100/100/100
f 101/101/101 89/89/89 100/100/100
f 89/89/89 101/101/101 93/93/93
f 101/101/101 102/102/102 93/93/93
f 102/102/102 103/103/103 93/93/93
g Tree 3_1
f 106/106/106 105/105/105 104/104/104
f 105/105/105 107/107/107 104/104/104
f 104/104/104 107/107/107 108/108/108
f 107/107/107 109/109/109 108/108/108
f 108/108/108 109/109/109 110/110/110
f 109/109/109 111/111/111 110/110/110
f 110/110/110 111/111/111 112/112/112
f 111/111/111 113/113/113 112/112/112
f 116/116/116 115/115/115 114/114/114
f 115/115/115 117/117/117 114/114/114
f 114/114/114 117/117/117 118/118/118
f 117/117/117 119/119/119 118/118/118
f 118/118/118 119/119/119 120/120/120
f 119/119/119 121/121/121 120/120/120
f 120/120/120 121/121/121 122/122/122
f 121/121/121 123/123/123 122/122/122
f 126/126/126 125/125/125 124/124/124
f 125/125/125 127/127/127 124/124/124
f 124/124/124 127/127/127 128/128/128
f 127/127/127 129/129/129 128/128/128
f 128/128/128 129/129/129 130/130/130
f 129/129/129 131/131/131 130/130/130
f 130/130/130 131/131/131 132/132/132
f 131/131/131 133/133/133 132/132/132
f 136/136/136 135/135/135 134/134/134
f 135/135/135 137/137/137 134/134/134
f 134/134/134 137/137/137 138/138/138
f 137/137/137 139/139/139 138/138/138
f 138/138/138 139/139/139 140/140/140
f 139/139/139 141/141/141 140/140/140
f 140/140/140 141/141/141 142/142/142
f 141/141/141 143/143/143 142/142/142
f 146/146/146 145/145/145 144/144/144
f 147/147/147 146/146/146 144/144/144
f 150/150/150 149/149/149 148/148/148
f 151/151/151 150/150/150 148/148/148
