g taxi7
v -1.259245 0.5659947 -5.617876
v -1.170791 0.5659947 -12.05948
v -1.170791 -0.01906931 -12.05948
v -1.259245 -0.01906931 -5.617876
v -1.259245 -0.01906931 -5.617876
v -1.170791 -0.01906931 -12.05948
v -1.677459 -0.3116009 -12.05948
v -1.765922 -0.3116009 -5.617876
v -1.765922 -0.3116009 -5.617876
v -1.677459 -0.3116009 -12.05948
v -2.184137 -0.01906931 -12.05948
v -2.2726 -0.01906931 -5.617876
v -2.2726 -0.01906931 -5.617876
v -2.184137 -0.01906931 -12.05948
v -2.184137 0.5659944 -12.05948
v -2.2726 0.5659944 -5.617876
v -1.170791 0.5659947 -12.05948
v -0.1194608 0.5659947 -14.07945
v -0.1194608 -0.01906931 -14.07945
v -1.170791 -0.01906931 -12.05948
v -1.170791 -0.01906931 -12.05948
v -0.1194608 -0.01906931 -14.07945
v -0.4805028 -0.3116009 -14.43493
v -1.677459 -0.3116009 -12.05948
v -1.677459 -0.3116009 -12.05948
v -0.4805028 -0.3116009 -14.43493
v -0.8415639 -0.01906931 -14.79041
v -2.184137 -0.01906931 -12.05948
v -2.184137 -0.01906931 -12.05948
v -0.8415639 -0.01906931 -14.79041
v -0.8415639 0.5659944 -14.79041
v -2.184137 0.5659944 -12.05948
v -0.1194608 0.5659947 -14.07945
v 3.393828 0.5659947 -14.08932
v 3.393828 -0.01906931 -14.08932
v -0.1194608 -0.01906931 -14.07945
v -0.1194608 -0.01906931 -14.07945
v 3.393828 -0.01906931 -14.08932
v 3.032767 -0.3116009 -14.4448
v -0.4805028 -0.3116009 -14.43493
v -0.4805028 -0.3116009 -14.43493
v 3.032767 -0.3116009 -14.4448
v 2.671715 -0.01906931 -14.80028
v -0.8415639 -0.01906931 -14.79041
v -0.8415639 -0.01906931 -14.79041
v 2.671715 -0.01906931 -14.80028
v 2.671715 0.5659944 -14.80028
v -0.8415639 0.5659944 -14.79041
v 3.393828 0.5659947 -14.08932
v 3.393828 0.5659947 -16.16251
v 3.393828 -0.01906931 -16.16251
v 3.393828 -0.01906931 -14.08932
v 3.393828 -0.01906931 -14.08932
v 3.393828 -0.01906931 -16.16251
v 3.032767 -0.3116009 -16.16251
v 3.032767 -0.3116009 -14.4448
v 3.032767 -0.3116009 -14.4448
v 3.032767 -0.3116009 -16.16251
v 2.671715 -0.01906931 -16.16251
v 2.671715 -0.01906931 -14.80028
v 2.671715 -0.01906931 -14.80028
v 2.671715 -0.01906931 -16.16251
v 2.671715 0.5659944 -16.16251
v 2.671715 0.5659944 -14.80028
v -0.7520044 1.170771 -14.90092
v -0.6602514 1.170771 -18.15246
v -1.720356 -0.9876919 -18.15246
v -1.766237 -0.9082305 -14.90092
v -1.766237 -0.9082305 -14.90092
v -1.720356 -0.9876919 -18.15246
v -3.840564 -0.9876931 -18.15246
v -3.794683 -0.9082305 -14.90092
v -3.794683 -0.9082305 -14.90092
v -3.840564 -0.9876931 -18.15246
v -4.900669 1.17077 -18.15246
v -4.808926 1.17077 -14.90092
v -1.766237 -0.9082305 -14.90092
v -2.78046 1.17077 -14.90092
v -0.7520044 1.170771 -14.90092
v -3.794683 -0.9082305 -14.90092
v -4.808926 1.17077 -14.90092
v -0.6602514 1.170771 -18.15246
v -2.78046 1.17077 -18.15246
v -1.720356 -0.9876919 -18.15246
v -3.840564 -0.9876931 -18.15246
v -4.900669 1.17077 -18.15246
v -2.273782 0.5659947 18.13663
v -2.273782 0.5659947 -16.42447
v -2.273782 -0.01906931 -16.42447
v -2.273782 -0.01906931 18.13663
v -2.273782 -0.01906931 18.13663
v -2.273782 -0.01906931 -16.42447
v -2.78046 -0.3116009 -16.42447
v -2.78046 -0.3116009 18.13663
v -2.78046 -0.3116009 18.13663
v -2.78046 -0.3116009 -16.42447
v -3.287138 -0.01906961 -16.42447
v -3.287138 -0.01906961 18.13663
v -3.287138 -0.01906961 18.13663
v -3.287138 -0.01906961 -16.42447
v -3.287138 0.5659944 -16.42447
v -3.287138 0.5659944 18.13663
v -4.92802 0.5372635 2.065287
v -4.221052 -0.6946501 2.065287
v -4.221052 -0.6946501 -6.080074
v -4.92802 0.5372635 -6.080074
v -4.221052 -0.6946501 2.065287
v -1.339878 -0.6946501 2.065287
v -1.339878 -0.6946501 -6.080074
v -4.221052 -0.6946501 -6.080074
v -1.339878 -0.6946501 2.065287
v -0.6329 0.5372635 2.065287
v -0.6329 0.5372635 -6.080074
v -1.339878 -0.6946501 -6.080074
v -4.92802 0.5372635 -6.080074
v -4.221052 -0.6946501 -6.080074
v -1.339878 -0.6946501 -6.080074
v -0.6329 0.5372635 -6.080074
v -0.6329 0.5372635 2.065287
v -1.339878 -0.6946501 2.065287
v -4.221052 -0.6946501 2.065287
v -4.92802 0.5372635 2.065287
v -0.7520044 1.170771 21.26661
v -0.6602514 1.170771 18.01507
v -1.720356 -0.9876919 18.01507
v -1.766237 -0.9082308 21.26661
v -1.766237 -0.9082308 21.26661
v -1.720356 -0.9876919 18.01507
v -3.840564 -0.9876931 18.01507
v -3.794683 -0.9082308 21.26661
v -3.794683 -0.9082308 21.26661
v -3.840564 -0.9876931 18.01507
v -4.900669 1.17077 18.01507
v -4.808926 1.17077 21.26661
v -1.766237 -0.9082308 21.26661
v -2.78046 1.17077 21.26661
v -0.7520044 1.170771 21.26661
v -3.794683 -0.9082308 21.26661
v -4.808926 1.17077 21.26661
v -0.6602514 1.170771 18.01507
v -2.78046 1.17077 18.01507
v -1.720356 -0.9876919 18.01507
v -3.840564 -0.9876931 18.01507
v -4.900669 1.17077 18.01507
v 1.44303 0.6193206 -16.16251
v 2.016655 -1.170771 -16.16251
v 2.016655 -1.170771 -21.26661
v 1.44303 0.6193206 -21.26661
v 2.016655 -1.170771 -16.16251
v 4.354397 -1.170771 -16.16251
v 4.354397 -1.170771 -21.26661
v 2.016655 -1.170771 -21.26661
v 4.354397 -1.170771 -16.16251
v 4.928022 0.6193206 -16.16251
v 4.928022 0.6193206 -21.26661
v 4.354397 -1.170771 -21.26661
v 1.44303 0.6193206 -21.26661
v 2.016655 -1.170771 -21.26661
v 4.354397 -1.170771 -21.26661
v 4.928022 0.6193206 -21.26661
v 4.928022 0.6193206 -16.16251
v 4.354397 -1.170771 -16.16251
v 2.016655 -1.170771 -16.16251
v 1.44303 0.6193206 -16.16251
vt 0.08111572 0.3496094
vt 0.08111572 0.3496094
vt 0.08111572 0.3496094
vt 0.08111572 0.3496094
vt 0.08111572 0.3496094
vt 0.08111572 0.3496094
vt 0.08111572 0.3496094
vt 0.08111572 0.3496094
vt 0.08111572 0.3496094
vt 0.08111572 0.3496094
vt 0.08111572 0.3496094
vt 0.08111572 0.3496094
vt 0.08111572 0.3496094
vt 0.08111572 0.3496094
vt 0.08111572 0.3496094
vt 0.08111572 0.3496094
vt 0.08111572 0.3496094
vt 0.08111572 0.3496094
vt 0.08111572 0.3496094
vt 0.08111572 0.3496094
vt 0.08111572 0.3496094
vt 0.08111572 0.3496094
vt 0.08111572 0.3496094
vt 0.08111572 0.3496094
vt 0.08111572 0.3496094
vt 0.08111572 0.3496094
vt 0.08111572 0.3496094
vt 0.08111572 0.3496094
vt 0.08111572 0.3496094
vt 0.08111572 0.3496094
vt 0.08111572 0.3496094
vt 0.08111572 0.3496094
vt 0.08111572 0.3496094
vt 0.08111572 0.3496094
vt 0.08111572 0.3496094
vt 0.08111572 0.3496094
vt 0.08111572 0.3496094
vt 0.08111572 0.3496094
vt 0.08111572 0.3496094
vt 0.08111572 0.3496094
vt 0.08111572 0.3496094
vt 0.08111572 0.3496094
vt 0.08111572 0.3496094
vt 0.08111572 0.3496094
vt 0.08111572 0.3496094
vt 0.08111572 0.3496094
vt 0.08111572 0.3496094
vt 0.08111572 0.3496094
vt 0.08111572 0.3496094
vt 0.08111572 0.3496094
vt 0.08111572 0.3496094
vt 0.08111572 0.3496094
vt 0.08111572 0.3496094
vt 0.08111572 0.3496094
vt 0.08111572 0.3496094
vt 0.08111572 0.3496094
vt 0.08111572 0.3496094
vt 0.08111572 0.3496094
vt 0.08111572 0.3496094
vt 0.08111572 0.3496094
vt 0.08111572 0.3496094
vt 0.08111572 0.3496094
vt 0.08111572 0.3496094
vt 0.08111572 0.3496094
vt 0.07983398 0.2507324
vt 0.07983398 0.2507324
vt 0.07983398 0.2507324
vt 0.07983398 0.2507324
vt 0.07983398 0.2507324
vt 0.07983398 0.2507324
vt 0.07983398 0.2507324
vt 0.07983398 0.2507324
vt 0.07983398 0.2507324
vt 0.07983398 0.2507324
vt 0.07983398 0.2507324
vt 0.07983398 0.2507324
vt 0.07983398 0.2507324
vt 0.07983398 0.2507324
vt 0.07983398 0.2507324
vt 0.07983398 0.2507324
vt 0.07983398 0.2507324
vt 0.07983398 0.2507324
vt 0.07983398 0.2507324
vt 0.07983398 0.2507324
vt 0.07983398 0.2507324
vt 0.07983398 0.2507324
vt 0.07983398 0.2507324
vt 0.07983398 0.2507324
vt 0.07983398 0.2507324
vt 0.07983398 0.2507324
vt 0.07983398 0.2507324
vt 0.07983398 0.2507324
vt 0.07983398 0.2507324
vt 0.07983398 0.2507324
vt 0.07983398 0.2507324
vt 0.07983398 0.2507324
vt 0.07983398 0.2507324
vt 0.07983398 0.2507324
vt 0.07983398 0.2507324
vt 0.07983398 0.2507324
vt 0.07983398 0.2507324
vt 0.07983398 0.2507324
vt 0.08111572 0.3496094
vt 0.08111572 0.3496094
vt 0.08111572 0.3496094
vt 0.08111572 0.3496094
vt 0.08111572 0.3496094
vt 0.08111572 0.3496094
vt 0.08111572 0.3496094
vt 0.08111572 0.3496094
vt 0.08111572 0.3496094
vt 0.08111572 0.3496094
vt 0.08111572 0.3496094
vt 0.08111572 0.3496094
vt 0.08111572 0.3496094
vt 0.08111572 0.3496094
vt 0.08111572 0.3496094
vt 0.08111572 0.3496094
vt 0.08111572 0.3496094
vt 0.08111572 0.3496094
vt 0.08111572 0.3496094
vt 0.08111572 0.3496094
vt 0.07983398 0.2507324
vt 0.07983398 0.2507324
vt 0.07983398 0.2507324
vt 0.07983398 0.2507324
vt 0.07983398 0.2507324
vt 0.07983398 0.2507324
vt 0.07983398 0.2507324
vt 0.07983398 0.2507324
vt 0.07983398 0.2507324
vt 0.07983398 0.2507324
vt 0.07983398 0.2507324
vt 0.07983398 0.2507324
vt 0.07983398 0.2507324
vt 0.07983398 0.2507324
vt 0.07983398 0.2507324
vt 0.07983398 0.2507324
vt 0.07983398 0.2507324
vt 0.07983398 0.2507324
vt 0.07983398 0.2507324
vt 0.07983398 0.2507324
vt 0.07983398 0.2507324
vt 0.07983398 0.2507324
vt 0.08111572 0.3496094
vt 0.08111572 0.3496094
vt 0.08111572 0.3496094
vt 0.08111572 0.3496094
vt 0.08111572 0.3496094
vt 0.08111572 0.3496094
vt 0.08111572 0.3496094
vt 0.08111572 0.3496094
vt 0.08111572 0.3496094
vt 0.08111572 0.3496094
vt 0.08111572 0.3496094
vt 0.08111572 0.3496094
vt 0.08111572 0.3496094
vt 0.08111572 0.3496094
vt 0.08111572 0.3496094
vt 0.08111572 0.3496094
vt 0.08111572 0.3496094
vt 0.08111572 0.3496094
vt 0.08111572 0.3496094
vt 0.08111572 0.3496094
vn 1 0 0.01373291
vn 1 0 0.01373291
vn 1 0 0.01373291
vn 1 0 0.01373291
vn 0.5 -0.8662109 0.006866455
vn 0.5 -0.8662109 0.006866455
vn 0.5 -0.8662109 0.006866455
vn 0.5 -0.8662109 0.006866455
vn -0.5 -0.8662109 -0.006866455
vn -0.5 -0.8662109 -0.006866455
vn -0.5 -0.8662109 -0.006866455
vn -0.5 -0.8662109 -0.006866455
vn -1 0 -0.01373291
vn -1 0 -0.01373291
vn -1 0 -0.01373291
vn -1 0 -0.01373291
vn 0.887207 0 0.4616699
vn 0.887207 0 0.4616699
vn 0.887207 0 0.4616699
vn 0.887207 0 0.4616699
vn 0.4724121 -0.8476563 0.2416992
vn 0.4724121 -0.8476563 0.2416992
vn 0.4724121 -0.8476563 0.2416992
vn 0.4724121 -0.8476563 0.2416992
vn -0.4748535 -0.8476563 -0.2362061
vn -0.4748535 -0.8476563 -0.2362061
vn -0.4748535 -0.8476563 -0.2362061
vn -0.4748535 -0.8476563 -0.2362061
vn -0.8974609 0 -0.4411621
vn -0.8974609 0 -0.4411621
vn -0.8974609 0 -0.4411621
vn -0.8974609 0 -0.4411621
vn 0.002809525 0 1
vn 0.002809525 0 1
vn 0.002809525 0 1
vn 0.002809525 0 1
vn 0.001782417 -0.7729492 0.6342773
vn 0.001782417 -0.7729492 0.6342773
vn 0.001782417 -0.7729492 0.6342773
vn 0.001782417 -0.7729492 0.6342773
vn -0.001782417 -0.7729492 -0.6342773
vn -0.001782417 -0.7729492 -0.6342773
vn -0.001782417 -0.7729492 -0.6342773
vn -0.001782417 -0.7729492 -0.6342773
vn -0.002809525 0 -1
vn -0.002809525 0 -1
vn -0.002809525 0 -1
vn -0.002809525 0 -1
vn 1 0 0
vn 1 0 0
vn 1 0 0
vn 1 0 0
vn 0.6293945 -0.7768555 0
vn 0.6293945 -0.7768555 0
vn 0.6293945 -0.7768555 0
vn 0.6293945 -0.7768555 0
vn -0.6293945 -0.7768555 0
vn -0.6293945 -0.7768555 0
vn -0.6293945 -0.7768555 0
vn -0.6293945 -0.7768555 0
vn -1 0 0
vn -1 0 0
vn -1 0 0
vn -1 0 0
vn 0.8979492 -0.4394531 0.02436829
vn 0.8979492 -0.4394531 0.02436829
vn 0.8979492 -0.4394531 0.02436829
vn 0.8979492 -0.4394531 0.02436829
vn 0 -0.9995117 0.02442932
vn 0 -0.9995117 0.02442932
vn 0 -0.9995117 0.02442932
vn 0 -0.9995117 0.02442932
vn -0.8979492 -0.4394531 0.02436829
vn -0.8979492 -0.4394531 0.02436829
vn -0.8979492 -0.4394531 0.02436829
vn -0.8979492 -0.4394531 0.02436829
vn 0 0 1
vn 0 0 1
vn 0 0 1
vn 0 0 1
vn 0 0 1
vn 0 0 -1
vn 0 0 -1
vn 0 0 -1
vn 0 0 -1
vn 0 0 -1
vn 1 0 0
vn 1 0 0
vn 1 0 0
vn 1 0 0
vn 0.5 -0.8662109 0
vn 0.5 -0.8662109 0
vn 0.5 -0.8662109 0
vn 0.5 -0.8662109 0
vn -0.5 -0.8662109 0
vn -0.5 -0.8662109 0
vn -0.5 -0.8662109 0
vn -0.5 -0.8662109 0
vn -1 0 0
vn -1 0 0
vn -1 0 0
vn -1 0 0
vn -0.8671875 -0.4978027 0
vn -0.8671875 -0.4978027 0
vn -0.8671875 -0.4978027 0
vn -0.8671875 -0.4978027 0
vn 0 -1 0
vn 0 -1 0
vn 0 -1 0
vn 0 -1 0
vn 0.8671875 -0.4978027 0
vn 0.8671875 -0.4978027 0
vn 0.8671875 -0.4978027 0
vn 0.8671875 -0.4978027 0
vn 0 0 -1
vn 0 0 -1
vn 0 0 -1
vn 0 0 -1
vn 0 0 1
vn 0 0 1
vn 0 0 1
vn 0 0 1
vn 0.8979492 -0.4394531 0.02436829
vn 0.8979492 -0.4394531 0.02436829
vn 0.8979492 -0.4394531 0.02436829
vn 0.8979492 -0.4394531 0.02436829
vn 0 -0.9995117 0.02442932
vn 0 -0.9995117 0.02442932
vn 0 -0.9995117 0.02442932
vn 0 -0.9995117 0.02442932
vn -0.8979492 -0.4394531 0.02436829
vn -0.8979492 -0.4394531 0.02436829
vn -0.8979492 -0.4394531 0.02436829
vn -0.8979492 -0.4394531 0.02436829
vn 0 0 1
vn 0 0 1
vn 0 0 1
vn 0 0 1
vn 0 0 1
vn 0 0 -1
vn 0 0 -1
vn 0 0 -1
vn 0 0 -1
vn 0 0 -1
vn -0.9521484 -0.3051758 0
vn -0.9521484 -0.3051758 0
vn -0.9521484 -0.3051758 0
vn -0.9521484 -0.3051758 0
vn 0 -1 0
vn 0 -1 0
vn 0 -1 0
vn 0 -1 0
vn 0.9521484 -0.3051758 0
vn 0.9521484 -0.3051758 0
vn 0.9521484 -0.3051758 0
vn 0.9521484 -0.3051758 0
vn 0 0 -1
vn 0 0 -1
vn 0 0 -1
vn 0 0 -1
vn 0 0 1
vn 0 0 1
vn 0 0 1
vn 0 0 1
g taxi7_0
f 3/3/3 2/2/2 1/1/1
f 4/4/4 3/3/3 1/1/1
f 7/7/7 6/6/6 5/5/5
f 8/8/8 7/7/7 5/5/5
f 11/11/11 10/10/10 9/9/9
f 12/12/12 11/11/11 9/9/9
f 15/15/15 14/14/14 13/13/13
f 16/16/16 15/15/15 13/13/13
f 19/19/19 18/18/18 17/17/17
f 20/20/20 19/19/19 17/17/17
f 23/23/23 22/22/22 21/21/21
f 24/24/24 23/23/23 21/21/21
f 27/27/27 26/26/26 25/25/25
f 28/28/28 27/27/27 25/25/25
f 31/31/31 30/30/30 29/29/29
f 32/32/32 31/31/31 29/29/29
f 35/35/35 34/34/34 33/33/33
f 36/36/36 35/35/35 33/33/33
f 39/39/39 38/38/38 37/37/37
f 40/40/40 39/39/39 37/37/37
f 43/43/43 42/42/42 41/41/41
f 44/44/44 43/43/43 41/41/41
f 47/47/47 46/46/46 45/45/45
f 48/48/48 47/47/47 45/45/45
f 51/51/51 50/50/50 49/49/49
f 52/52/52 51/51/51 49/49/49
f 55/55/55 54/54/54 53/53/53
f 56/56/56 55/55/55 53/53/53
f 59/59/59 58/58/58 57/57/57
f 60/60/60 59/59/59 57/57/57
f 63/63/63 62/62/62 61/61/61
f 64/64/64 63/63/63 61/61/61
f 67/67/67 66/66/66 65/65/65
f 68/68/68 67/67/67 65/65/65
f 71/71/71 70/70/70 69/69/69
f 72/72/72 71/71/71 69/69/69
f 75/75/75 74/74/74 73/73/73
f 76/76/76 75/75/75 73/73/73
f 79/79/79 78/78/78 77/77/77
f 77/77/77 78/78/78 80/80/80
f 80/80/80 78/78/78 81/81/81
f 84/84/84 83/83/83 82/82/82
f 85/85/85 83/83/83 84/84/84
f 86/86/86 83/83/83 85/85/85
f 89/89/89 88/88/88 87/87/87
f 90/90/90 89/89/89 87/87/87
f 93/93/93 92/92/92 91/91/91
f 94/94/94 93/93/93 91/91/91
f 97/97/97 96/96/96 95/95/95
f 98/98/98 97/97/97 95/95/95
f 101/101/101 100/100/100 99/99/99
f 102/102/102 101/101/101 99/99/99
f 105/105/105 104/104/104 103/103/103
f 106/106/106 105/105/105 103/103/103
f 109/109/109 108/108/108 107/107/107
f 110/110/110 109/109/109 107/107/107
f 113/113/113 112/112/112 111/111/111
f 114/114/114 113/113/113 111/111/111
f 117/117/117 116/116/116 115/115/115
f 118/118/118 117/117/117 115/115/115
f 121/121/121 120/120/120 119/119/119
f 122/122/122 121/121/121 119/119/119
f 125/125/125 124/124/124 123/123/123
f 126/126/126 125/125/125 123/123/123
f 129/129/129 128/128/128 127/127/127
f 130/130/130 129/129/129 127/127/127
f 133/133/133 132/132/132 131/131/131
f 134/134/134 133/133/133 131/131/131
f 137/137/137 136/136/136 135/135/135
f 135/135/135 136/136/136 138/138/138
f 138/138/138 136/136/136 139/139/139
f 142/142/142 141/141/141 140/140/140
f 143/143/143 141/141/141 142/142/142
f 144/144/144 141/141/141 143/143/143
f 147/147/147 146/146/146 145/145/145
f 148/148/148 147/147/147 145/145/145
f 151/151/151 150/150/150 149/149/149
f 152/152/152 151/151/151 149/149/149
f 155/155/155 154/154/154 153/153/153
f 156/156/156 155/155/155 153/153/153
f 159/159/159 158/158/158 157/157/157
f 160/160/160 159/159/159 157/157/157
f 163/163/163 162/162/162 161/161/161
f 164/164/164 163/163/163 161/161/161
